<?xml version="1.0" encoding="UTF-8"?>
<svg width="18px" height="15px" viewBox="0 0 18 15" version="1.1" xmlns="http://www.w3.org/2000/svg" xmlns:xlink="http://www.w3.org/1999/xlink">
    <!-- Generator: Sketch 52.4 (67378) - http://www.bohemiancoding.com/sketch -->
    <title>邮箱</title>
    <desc>Created with Sketch.</desc>
    <defs>
        <polygon id="path-1" points="0.00229299363 0 17.9769936 0 17.9769936 14.9976563 0.00229299363 14.9976563"></polygon>
    </defs>
    <g id="联邦学习-" stroke="none" stroke-width="1" fill="none" fill-rule="evenodd">
        <g id="youxiang-(2)">
            <mask id="mask-2" fill="white">
                <use xlink:href="#path-1"></use>
            </mask>
            <g id="Clip-2"></g>
            <path d="M16.7540637,0 L1.22292994,0 C0.547261146,0 0,0.559375 0,1.25 L0,13.75 C0,14.440625 0.547261146,15 1.22292994,15 L16.7540637,15 C17.4297325,15 17.9769936,14.440625 17.9769936,13.75 L17.9769936,1.25 C17.9769936,0.559375 17.4297325,0 16.7540637,0 Z M11.5781274,6.91253906 L17.0597962,1.628125 L17.0597962,13.4625391 L11.5781274,6.91253906 Z M16.4483312,0.9375 C16.472828,0.9375 16.4973248,0.940546875 16.5217834,0.94375 L9.19945223,8.00003906 C9.08033121,8.1125 8.8968535,8.1125 8.78071338,8.00003906 L1.45521019,0.94375 C1.47970701,0.940546875 1.50416561,0.9375 1.52866242,0.9375 L16.4483312,0.9375 Z M0.917197452,13.4344531 L0.917197452,1.63132813 L6.39901911,6.91253906 L0.917197452,13.4344531 Z M1.51345223,14.0625 L7.01961783,7.50929688 L8.65528662,9.08433594 C8.74398726,9.16871094 8.86012739,9.21875 8.99163057,9.21875 C9.12301911,9.21875 9.2393121,9.16871094 9.32782166,9.08433594 L10.9605478,7.50929688 L16.4422166,14.0625 L1.51345223,14.0625 Z" id="Fill-1" fill="#C3CAD9" mask="url(#mask-2)"></path>
        </g>
    </g>
</svg>