<?xml version="1.0" encoding="UTF-8"?>
<svg width="20px" height="18px" viewBox="0 0 20 18" version="1.1" xmlns="http://www.w3.org/2000/svg" xmlns:xlink="http://www.w3.org/1999/xlink">
    <!-- Generator: Sketch 52.4 (67378) - http://www.bohemiancoding.com/sketch -->
    <title>公司名称</title>
    <desc>Created with Sketch.</desc>
    <g id="联邦学习-" stroke="none" stroke-width="1" fill="none" fill-rule="evenodd">
        <path d="M0,18 L0,16.6152806 L1.33330729,16.6152806 L1.33330729,2.76916836 C1.33330729,1.23987608 2.52726562,0 4.00005208,0 L10.6667188,0 C12.139375,0 13.3333333,1.23987608 13.3333333,2.76916836 L13.3333333,6.92305612 L15.9999479,6.92305612 C17.4727344,6.92305612 18.6666927,8.1629322 18.6666927,9.69222448 L18.6666927,16.6152806 L20,16.6152806 L20,18 L0,18 Z M12.000026,2.76916836 C12.000026,2.00446814 11.403099,1.38458418 10.6667188,1.38458418 L4.00005208,1.38458418 C3.26364583,1.38458418 2.66661458,2.00446814 2.66661458,2.76916836 L2.66661458,16.6152806 L12.000026,16.6152806 L12.000026,2.76916836 Z M17.3333854,9.69222448 C17.3333854,8.92752426 16.7363542,8.3076403 15.9999479,8.3076403 L13.3333333,8.3076403 L13.3333333,16.6152806 L17.3333854,16.6152806 L17.3333854,9.69222448 Z M4.00005208,11.0769439 L9.33328125,11.0769439 L9.33328125,9.69222448 L4.00005208,9.69222448 L4.00005208,11.0769439 Z M4.00005208,8.3076403 L9.33328125,8.3076403 L9.33328125,6.92305612 L4.00005208,6.92305612 L4.00005208,8.3076403 Z M4.00005208,5.53847194 L9.33328125,5.53847194 L9.33328125,4.15388776 L4.00005208,4.15388776 L4.00005208,5.53847194 Z" id="gongsixinxi-copy" fill="#C3CAD9"></path>
    </g>
</svg>