<?xml version="1.0" encoding="UTF-8"?>
<svg width="18px" height="18px" viewBox="0 0 18 18" version="1.1" xmlns="http://www.w3.org/2000/svg" xmlns:xlink="http://www.w3.org/1999/xlink">
    <!-- Generator: Sketch 52.4 (67378) - http://www.bohemiancoding.com/sketch -->
    <title>联系电话</title>
    <desc>Created with Sketch.</desc>
    <defs>
        <polygon id="path-1" points="0 0.00297111417 17.9950371 0.00297111417 17.9950371 17.9999752 0 17.9999752"></polygon>
    </defs>
    <g id="联邦学习-" stroke="none" stroke-width="1" fill="none" fill-rule="evenodd">
        <g id="dianhua-(1)-copy">
            <mask id="mask-2" fill="white">
                <use xlink:href="#path-1"></use>
            </mask>
            <g id="Clip-2"></g>
            <path d="M13.7348171,17.9999752 C13.405989,17.9999752 13.0969931,17.9485254 12.8196891,17.847458 C12.463205,17.7523824 9.41674828,16.841216 5.28890509,12.7114415 C1.28584869,8.71031637 0.281636864,5.56093535 0.172646492,5.19053645 C-0.0135433287,4.72107565 -0.0511526823,4.14869051 0.0696231087,3.58019257 C0.190423659,3.00976341 0.459878955,2.49274003 0.826341128,2.12637689 L2.38318019,0.56943879 C2.7476121,0.205006878 3.21900413,0.00297111417 3.71022834,0.00297111417 C4.27870151,0.00297111417 4.81355158,0.274357634 5.18001376,0.745749656 L7.45979917,3.68514718 C7.84403851,4.18033287 7.8895956,4.98847593 7.56675928,5.52728748 L6.45355708,7.37138377 C6.55861073,7.71994498 6.92108666,8.58352407 8.14114993,9.87699862 C9.49798349,11.1624512 10.3417304,11.481425 10.6191334,11.5546382 L12.4730591,10.4355186 C12.6989133,10.2988721 12.9920385,10.2236286 13.2970977,10.2236286 C13.681337,10.2236286 14.0517607,10.3385117 14.3131939,10.5405722 L17.2525667,12.8223879 C17.6963026,13.1669876 17.9577359,13.6483329 17.9913838,14.1791224 C18.0250564,14.7099862 17.8250509,15.2210426 17.4289023,15.6171912 L15.8739945,17.1720743 C15.3649684,17.6830316 14.5449161,17.9999752 13.7348171,17.9999752 Z M3.70827235,0.985419532 C3.48051169,0.985419532 3.25671252,1.08445667 3.07644017,1.26269876 L1.52153232,2.8176066 C1.04414856,3.29499037 0.842112792,4.23980468 1.0917359,4.83992022 L1.09366713,4.84195048 L1.11156809,4.89342503 L1.11156809,4.89738652 C1.11949106,4.92910316 2.02261073,8.05466575 5.98216506,12.0142201 C10.0704429,16.1023989 13.0553975,16.8907345 13.0850839,16.8986575 L13.0910757,16.9006878 L13.138564,16.9145282 L13.1405942,16.9165585 C13.3109133,16.9819477 13.5169354,17.0155956 13.7348171,17.0155956 C14.2854388,17.0155956 14.8539367,16.8036066 15.1807345,16.476784 L16.7356424,14.921901 C16.9297304,14.7277882 17.0287675,14.4861871 17.0129216,14.2405254 C16.9970509,13.9949629 16.8683274,13.7672022 16.6524512,13.5988143 L13.7129794,11.3169986 C13.6218652,11.2456176 13.4634305,11.2020908 13.3010591,11.2020908 C13.1742669,11.2020908 13.059359,11.2278157 12.9820853,11.275403 L10.8508556,12.5608556 L10.7121541,12.5589243 C10.5913535,12.5568941 9.47815131,12.4915048 7.44994498,10.5702586 L7.44595873,10.5662971 C5.60777992,8.62509491 5.4533315,7.45648143 5.44142228,7.32978817 L5.4276066,7.16932325 L6.7249436,5.02021733 C6.84381293,4.82407428 6.82204952,4.46949656 6.68337276,4.28932325 L4.40153232,1.34789546 C4.22125997,1.11414305 3.97366713,0.985419532 3.70827235,0.985419532 Z" id="Fill-1" fill="#C3CAD9" mask="url(#mask-2)"></path>
        </g>
    </g>
</svg>