<?xml version="1.0" encoding="UTF-8"?>
<svg width="18px" height="18px" viewBox="0 0 18 18" version="1.1" xmlns="http://www.w3.org/2000/svg" xmlns:xlink="http://www.w3.org/1999/xlink">
    <!-- Generator: Sketch 52.4 (67378) - http://www.bohemiancoding.com/sketch -->
    <title>您的职务</title>
    <desc>Created with Sketch.</desc>
    <g id="联邦学习-" stroke="none" stroke-width="1" fill="none" fill-rule="evenodd">
        <path d="M18,15.4284997 L15.3675103,15.4284997 L15.3675103,18 L14.0511626,18 L14.0511626,15.4284997 L11.4186472,15.4284997 L11.4186472,14.1428123 L14.0511626,14.1428123 L14.0511626,11.5714375 L15.3675103,11.5714375 L15.3675103,14.1428123 L18,14.1428123 L18,15.4284997 Z M8.78615745,10.2857502 C5.87827925,10.2857502 3.52104947,7.98311944 3.52104947,5.14287508 C3.52104947,2.30250516 5.87827925,0 8.78615745,0 C11.6939071,0 14.0511626,2.30250516 14.0511626,5.14287508 C14.0511626,7.98311944 11.6939071,10.2857502 8.78615745,10.2857502 Z M8.78615745,1.28568738 C6.60526165,1.28568738 4.83729433,3.01261019 4.83729433,5.14287508 C4.83729433,7.27313996 6.60526165,8.99993722 8.78615745,8.99993722 C10.9669504,8.99993722 12.734892,7.27313996 12.734892,5.14287508 C12.734892,3.01261019 10.9669504,1.28568738 8.78615745,1.28568738 Z M11.4186472,11.9699833 L11.4186472,13.3135529 C10.5745887,13.0142731 9.68404936,12.8598621 8.78615745,12.8571249 C5.35197669,12.8571249 2.46006341,15.0107436 1.37159506,18 L0,18 C1.13859975,14.2920253 4.61877285,11.5714375 8.78615745,11.5714375 C9.70613288,11.5714375 10.5841265,11.7244675 11.4186472,11.9699833 Z" id="lingqukehu-copy" fill="#C3CAD9"></path>
    </g>
</svg>