<?xml version="1.0" encoding="UTF-8"?>
<svg width="16px" height="16px" viewBox="0 0 16 16" version="1.1" xmlns="http://www.w3.org/2000/svg" xmlns:xlink="http://www.w3.org/1999/xlink">
    <!-- Generator: Sketch 52.4 (67378) - http://www.bohemiancoding.com/sketch -->
    <title>English</title>
    <desc>Created with Sketch.</desc>
    <g id="home" stroke="none" stroke-width="1" fill="none" fill-rule="evenodd">
        <g id="Group-24" fill="#212B34">
            <g id="Group-2">
                <path d="M15.371203,4.88593342 C14.9682243,3.93328955 14.3914618,3.07773054 13.6568971,2.3431868 C12.9222695,1.60853818 12.0667104,1.03169179 11.1140666,0.628775992 C10.127593,0.211535512 9.07983573,0 8.00003146,0 C6.92016427,0 5.87240703,0.211535512 4.88593342,0.628775992 C3.93328955,1.03169179 3.07773054,1.60853818 2.3431868,2.3431868 C1.60853818,3.07773054 1.03169179,3.93328955 0.628775992,4.88593342 C0.211535512,5.87240703 0,6.92016427 0,8.00003146 C0,9.07983573 0.211535512,10.127593 0.628775992,11.1140666 C1.03169179,12.0667104 1.60853818,12.9222695 2.3431868,13.6568971 C3.07773054,14.3914618 3.93328955,14.9682872 4.88593342,15.371203 C5.87240703,15.7884645 6.92016427,16 8.00003146,16 C9.07983573,16 10.127593,15.7884645 11.1140666,15.371203 C12.0667104,14.9682872 12.9222695,14.3914618 13.6568971,13.6568971 C14.3915457,12.9222695 14.9683082,12.0667104 15.371203,11.1140666 C15.7884645,10.127593 16,9.07983573 16,8.00003146 C16,6.92016427 15.7884645,5.87240703 15.371203,4.88593342 Z M15.4080739,7.72264016 L13.0193543,7.72264016 C12.9702771,6.41615774 12.6351046,5.13392032 12.0387742,3.97949347 C12.5530156,3.71479094 13.0403275,3.4038006 13.4962425,3.04144694 C14.6261727,4.28974975 15.3379396,5.91500356 15.4080739,7.72264016 Z M8.29531289,0.860068241 C9.53017189,1.56430574 10.513143,2.54742364 11.2233578,3.70594026 C10.3007895,4.0976354 9.31544845,4.32171288 8.29531289,4.36013575 L8.29531289,0.860068241 Z M7.72264016,4.36177166 C6.6666824,4.32710299 5.6388287,4.09197265 4.68415044,3.67653586 C5.41812791,2.49048145 6.43400592,1.48999776 7.72264016,0.787228381 L7.72264016,4.36177166 Z M4.8795366,4.39346213 C5.78786413,4.73280822 6.73828484,4.9190291 7.72264016,4.94828669 L7.72264016,7.72264016 L3.43853219,7.72264016 C3.48842739,6.46980714 3.81925836,5.26754046 4.37922134,4.19815987 C4.54232978,4.27066416 4.71166725,4.33071037 4.8795366,4.39346213 Z M7.72264016,8.29531289 L7.72264016,10.9830681 C6.73828484,11.0123886 5.77966362,11.2000986 4.86783356,11.5422131 C4.68054305,11.6124313 4.4957064,11.6888576 4.31359626,11.7713661 C3.7810662,10.7099973 3.47196344,9.53017189 3.43559595,8.29531289 L7.72264016,8.29531289 Z M7.72264016,11.5695831 L7.72264016,15.2992021 C6.3982047,14.5723555 5.34652546,13.5274506 4.60885671,12.2877468 C5.58444524,11.8517353 6.63088118,11.6050488 7.72264016,11.5695831 Z M8.29531289,11.5711351 C9.3333176,11.6106276 10.3547745,11.8458419 11.2983999,12.2574406 C10.5842421,13.4696066 9.56597311,14.4972296 8.29531289,15.2264461 L8.29531289,11.5711351 Z M11.1138149,11.5478759 C10.2106677,11.2070617 9.26179905,11.0179675 8.29531289,10.9843684 L8.29531289,8.29531289 L12.4357126,8.29531289 C12.3996597,9.53017189 12.1004563,10.6866541 11.5776788,11.7399063 C11.4248891,11.672142 11.2707992,11.6071041 11.1138149,11.5478759 Z M8.29531289,7.72264016 L8.29531289,4.94696538 C9.26179905,4.91345023 10.2024672,4.72584512 11.1021119,4.38782035 C11.2408075,4.33572297 11.3772171,4.28769438 11.5126409,4.22896947 C12.0627675,5.29048512 12.3833635,6.46980714 12.4326715,7.72264016 L8.29531289,7.72264016 Z M13.0838259,2.60870728 C12.6678857,2.9337916 12.2217862,3.21831378 11.7516094,3.45837282 C11.730804,3.42362026 11.709663,3.38897256 11.6882913,3.35455557 C11.0216587,2.28475551 10.1358564,1.36841622 9.08916879,0.666150202 C10.6230844,0.892996137 12.0055107,1.59134017 13.0838259,2.60870728 Z M6.74231169,0.693100741 C5.71282209,1.39192716 4.84102984,2.29853489 4.18299625,3.35455557 C4.16858768,3.37766802 4.15457759,3.40109506 4.14031583,3.42435432 C3.70292012,3.19612416 3.28681219,2.92919847 2.89700464,2.62680713 C3.93853285,1.63706171 5.26663862,0.946330938 6.74231169,0.693100741 Z M2.48614,3.05709293 C2.91478989,3.39528549 3.37087271,3.69578924 3.85078105,3.94811759 C3.24297824,5.1119614 2.90151387,6.3982047 2.85193327,7.72264016 L0.592010004,7.72264016 C0.661724861,5.93287271 1.36644474,4.30285799 2.48614,3.05709293 Z M0.592010004,8.29531289 L2.8492487,8.29531289 C2.8856162,9.60177433 3.20675756,10.8721409 3.78836487,12.0291055 C3.31776861,12.28135 2.87070427,12.576946 2.450171,12.9122652 C1.351386,11.6718274 0.660990799,10.0671273 0.592010004,8.29531289 Z M2.85751213,13.3353363 C3.23773495,13.0367201 3.64335629,12.7719337 4.06978302,12.5441649 C4.11009347,12.6128311 4.15138967,12.6809101 4.19348285,12.7484228 C4.81368081,13.7389022 5.62253254,14.597754 6.57402288,15.2760897 C5.14711245,14.9969786 3.86546228,14.3072335 2.85751213,13.3353363 Z M9.25221431,15.307885 C10.2231258,14.6247885 11.0477074,13.7545482 11.6778047,12.7484228 C11.7271127,12.6694377 11.7752042,12.5897187 11.8220793,12.5092656 C12.28135,12.7494085 12.7170469,13.032127 13.1234023,13.3537717 C12.0775116,14.3550733 10.7397372,15.0538368 9.25221431,15.307885 Z M13.5322115,12.9314347 C13.0865314,12.5733386 12.6071684,12.2593072 12.1008758,11.9936189 C12.6711575,10.8463229 12.986007,9.60177433 13.0220599,8.29531289 L15.40799,8.29531289 C15.3386946,10.0849964 14.6412524,11.6883752 13.5322115,12.9314347 Z" id="lvzhou_yuyanqiehuan"></path>
            </g>
        </g>
    </g>
</svg>