<?xml version="1.0" encoding="UTF-8"?>
<svg width="50px" height="50px" viewBox="0 0 50 50" version="1.1" xmlns="http://www.w3.org/2000/svg" xmlns:xlink="http://www.w3.org/1999/xlink">
    <!-- Generator: Sketch 52.4 (67378) - http://www.bohemiancoding.com/sketch -->
    <title>丰富的数据源</title>
    <desc>Created with Sketch.</desc>
    <defs>
        <polygon id="path-1" points="8.44479056e-06 0.0023255814 35.994656 0.0023255814 35.994656 40 8.44479056e-06 40"></polygon>
    </defs>
    <g id="Page-1" stroke="none" stroke-width="1" fill="none" fill-rule="evenodd">
        <g id="Group-21">
            <g id="Group-10">
                <polygon id="Path" points="0 0 50 0 50 50 0 50"></polygon>
                <g id="ffcx" transform="translate(7.000000, 5.000000)">
                    <mask id="mask-2" fill="white">
                        <use xlink:href="#path-1"></use>
                    </mask>
                    <g id="Clip-2"></g>
                    <path d="M12.9954184,5 C12.9954184,2.23860465 15.2347464,0 17.9970339,0 C20.7593215,0 22.9986494,2.23860465 22.9986494,5 C22.9986494,10 18.9972989,15.4703488 17.9970339,20 C16.996769,15.4224419 12.9954184,10 12.9954184,5 Z M28.4912375,8.16976744 C30.8836381,6.78895349 33.9421842,7.60831395 35.3236769,10 C36.704937,12.391686 35.8852536,15.4492442 33.492853,16.8302326 C29.1611632,19.3302326 22.4218352,18.6014535 17.9974992,20 C21.4629208,16.845 24.1595477,10.6697674 28.4912375,8.16976744 Z" id="Fill-1" fill="#FF8F38" mask="url(#mask-2)"></path>
                    <path d="M33.492853,23.1697674 C35.8852536,24.5507558 36.7044717,27.608314 35.3236769,30 C33.9421842,32.391686 30.8836381,33.2106395 28.4912375,31.8302326 C24.1595477,29.3302326 21.4208724,23.1306977 17.9970339,20 C22.4631858,21.4228488 29.1611632,20.6697674 33.492853,23.1697674 Z" id="Fill-3" fill="#FFECDE" mask="url(#mask-2)"></path>
                    <path d="M22.9986494,35 C22.9986494,37.7613953 20.7593215,40 17.9970339,40 C15.2347464,40 12.9954184,37.7613953 12.9954184,35 C12.9954184,30 16.996769,24.5296512 17.9970339,20 C18.9972989,24.5775581 22.9986494,30 22.9986494,35 Z" id="Fill-4" fill="#F96D00" mask="url(#mask-2)"></path>
                    <path d="M7.50358643,31.8302326 C5.11112763,33.2110465 2.05234895,32.391686 0.671088853,30 C-0.710403877,27.608314 0.109512116,24.5507558 2.50197092,23.1697674 C6.83336995,20.6697674 13.5729305,21.3985465 17.9970339,20 C14.5318449,23.155 11.8349855,29.3302326 7.50358643,31.8302326 Z M2.50197092,16.8302326 C0.109512116,15.4492442 -0.709938611,12.391686 0.671088853,10 C2.05188368,7.60831395 5.11112763,6.78936047 7.50358643,8.16976744 C11.8349855,10.6697674 14.5731955,16.8693023 17.9970339,20 C13.5313473,18.5771512 6.83336995,19.3302326 2.50197092,16.8302326 Z" id="Fill-5" fill="#F96D00" mask="url(#mask-2)"></path>
                </g>
            </g>
        </g>
    </g>
</svg>