<?xml version="1.0" encoding="UTF-8"?>
<svg width="50px" height="50px" viewBox="0 0 50 50" version="1.1" xmlns="http://www.w3.org/2000/svg" xmlns:xlink="http://www.w3.org/1999/xlink">
    <!-- Generator: Sketch 52.4 (67378) - http://www.bohemiancoding.com/sketch -->
    <title>打通各类软件系统</title>
    <desc>Created with Sketch.</desc>
    <defs>
        <polygon id="path-1" points="0.0107891566 0.0021686747 14.4108976 0.0021686747 14.4108976 25.2000542 0.0107891566 25.2000542"></polygon>
        <polygon id="path-3" points="0.00325301205 0.0326385542 11.417747 0.0326385542 11.417747 17.4148373 0.00325301205 17.4148373"></polygon>
    </defs>
    <g id="Page-1" stroke="none" stroke-width="1" fill="none" fill-rule="evenodd">
        <g id="Group-21">
            <g id="Group-10">
                <polygon id="Path" points="0 0 50 0 50 50 0 50"></polygon>
                <g id="shishiquanmian-(1)" transform="translate(7.000000, 7.000000)">
                    <polygon id="Fill-1" fill="#F96D00" points="17.0998916 32.4000542 18.9000542 32.4000542 18.9000542 3.59989157 17.0998916 3.59989157"></polygon>
                    <polygon id="Fill-2" fill="#F96D00" points="3.59989157 18.9000542 32.4000542 18.9000542 32.4000542 17.0998916 3.59989157 17.0998916"></polygon>
                    <polygon id="Fill-3" fill="#F96D00" points="7.18118675 8.45425301 8.45381928 7.18162048 28.8183795 27.5459639 27.5455301 28.8188133"></polygon>
                    <polygon id="Fill-4" fill="#F96D00" points="7.18118675 27.545747 27.5455301 7.18118675 28.8183795 8.45403614 8.45381928 28.8183795"></polygon>
                    <g id="Group-8" transform="translate(10.789157, 0.000000)">
                        <mask id="mask-2" fill="white">
                            <use xlink:href="#path-1"></use>
                        </mask>
                        <g id="Clip-6"></g>
                        <path d="M0.0107891566,18 C0.0107891566,21.9764819 3.23436145,25.2000542 7.21084337,25.2000542 C11.1873253,25.2000542 14.4108976,21.9764819 14.4108976,18 C14.4108976,14.0235181 11.1873253,10.7999458 7.21084337,10.7999458 C3.23436145,10.7999458 0.0107891566,14.0235181 0.0107891566,18 Z" id="Fill-5" fill="#FFECDE" mask="url(#mask-2)"></path>
                        <path d="M3.61095181,3.59989157 C3.61095181,5.58813253 5.22260241,7.20005422 7.21084337,7.20005422 C9.19908434,7.20005422 10.8107349,5.58813253 10.8107349,3.59989157 C10.8107349,1.61170482 9.19908434,0 7.21084337,0 C5.22260241,0 3.61095181,1.61170482 3.61095181,3.59989157 Z" id="Fill-7" fill="#F96D00" mask="url(#mask-2)"></path>
                    </g>
                    <path d="M24.582253,7.81758434 C24.582253,9.8058253 26.1941747,11.417747 28.1824157,11.417747 C30.1706024,11.417747 31.7823072,9.8058253 31.7823072,7.81758434 C31.7823072,5.82939759 30.1706024,4.21769277 28.1824157,4.21769277 C26.1941747,4.21769277 24.582253,5.82939759 24.582253,7.81758434 Z" id="Fill-9" fill="#F96D00"></path>
                    <path d="M28.7999458,18 C28.7999458,19.988241 30.4118675,21.5998916 32.4001084,21.5998916 C34.3882952,21.5998916 36,19.988241 36,18 C36,16.011759 34.3882952,14.4001084 32.4001084,14.4001084 C30.4118675,14.4001084 28.7999458,16.011759 28.7999458,18 Z" id="Fill-10" fill="#F96D00"></path>
                    <path d="M24.582253,28.1824157 C24.582253,30.1706024 26.1941747,31.7823072 28.1824157,31.7823072 C30.1706024,31.7823072 31.7823072,30.1706024 31.7823072,28.1824157 C31.7823072,26.1941747 30.1706024,24.582253 28.1824157,24.582253 C26.1941747,24.582253 24.582253,26.1941747 24.582253,28.1824157 Z" id="Fill-11" fill="#F96D00"></path>
                    <path d="M14.4001084,32.4001084 C14.4001084,34.3882952 16.011759,36 18,36 C19.988241,36 21.5998916,34.3882952 21.5998916,32.4001084 C21.5998916,30.4118675 19.988241,28.7999458 18,28.7999458 C16.011759,28.7999458 14.4001084,30.4118675 14.4001084,32.4001084 Z" id="Fill-12" fill="#F96D00"></path>
                    <g id="Group-16" transform="translate(0.000000, 14.367470)">
                        <mask id="mask-4" fill="white">
                            <use xlink:href="#path-3"></use>
                        </mask>
                        <g id="Clip-14"></g>
                        <path d="M4.21769277,13.8149458 C4.21769277,15.8031325 5.82939759,17.4148373 7.81758434,17.4148373 C9.8058253,17.4148373 11.417747,15.8031325 11.417747,13.8149458 C11.417747,11.8267048 9.8058253,10.2147831 7.81758434,10.2147831 C5.82939759,10.2147831 4.21769277,11.8267048 4.21769277,13.8149458 Z" id="Fill-13" fill="#F96D00" mask="url(#mask-4)"></path>
                        <path d="M0,3.63253012 C0,5.62077108 1.61170482,7.23242169 3.59989157,7.23242169 C5.58813253,7.23242169 7.20005422,5.62077108 7.20005422,3.63253012 C7.20005422,1.64428916 5.58813253,0.0326385542 3.59989157,0.0326385542 C1.61170482,0.0326385542 0,1.64428916 0,3.63253012 Z" id="Fill-15" fill="#F96D00" mask="url(#mask-4)"></path>
                    </g>
                    <path d="M4.21769277,7.81758434 C4.21769277,9.8058253 5.82939759,11.417747 7.81758434,11.417747 C9.8058253,11.417747 11.417747,9.8058253 11.417747,7.81758434 C11.417747,5.82939759 9.8058253,4.21769277 7.81758434,4.21769277 C5.82939759,4.21769277 4.21769277,5.82939759 4.21769277,7.81758434 Z" id="Fill-17" fill="#F96D00"></path>
                </g>
            </g>
        </g>
    </g>
</svg>