<?xml version="1.0" encoding="UTF-8"?>
<svg width="50px" height="50px" viewBox="0 0 50 50" version="1.1" xmlns="http://www.w3.org/2000/svg" xmlns:xlink="http://www.w3.org/1999/xlink">
    <!-- Generator: Sketch 52.4 (67378) - http://www.bohemiancoding.com/sketch -->
    <title>更多业务机会</title>
    <desc>Created with Sketch.</desc>
    <defs>
        <polygon id="path-1" points="0.00325301205 0.0534054054 36 0.0534054054 36 35.9459902 0.00325301205 35.9459902"></polygon>
    </defs>
    <g id="Page-1" stroke="none" stroke-width="1" fill="none" fill-rule="evenodd">
        <g id="Group-21-Copy-2">
            <g id="Group-10">
                <polygon id="Path" points="0 0 50 0 50 50 0 50"></polygon>
                <g id="xzbd" transform="translate(7.000000, 7.000000)">
                    <mask id="mask-2" fill="white">
                        <use xlink:href="#path-1"></use>
                    </mask>
                    <g id="Clip-2"></g>
                    <path d="M0,17.9993514 C0,27.9106486 8.0588494,35.9452973 18,35.9452973 C27.9411506,35.9452973 36,27.9106486 36,17.9993514 C36,8.08805405 27.9411506,0.0534054054 18,0.0534054054 C8.0588494,0.0534054054 0,8.08805405 0,17.9993514 Z" id="Fill-1" fill="#FF8F38" mask="url(#mask-2)"></path>
                    <path d="M9.51440964,32.4412973 C14.2008072,37.1133514 21.798759,37.1133514 26.4851566,32.4408649 C31.1713373,27.7685946 31.1713373,20.1934054 26.4847229,15.5210811 C21.7983795,10.849027 14.2003735,10.849027 9.5139759,15.5215135 C4.8278494,20.1938378 4.8278494,27.768973 9.51440964,32.4412973 Z" id="Fill-3" fill="#F96D00" mask="url(#mask-2)"></path>
                    <path d="M12.0158133,30.3863784 C12.167241,32.5183784 13.4478976,34.4077297 15.3753614,35.3429189 C17.3028253,36.2780541 19.5843795,36.116973 21.3603614,34.9201622 C23.1363976,33.7234054 24.1370783,31.6729189 23.9856506,29.5411351 C23.8342229,27.4091892 22.5535663,25.5198378 20.6261566,24.5846486 C18.6984759,23.6494595 16.4171386,23.8105946 14.6411024,25.0073514 C12.8650663,26.2041622 11.8643855,28.2546486 12.0158133,30.3863784 Z" id="Fill-4" fill="#FFECDE" mask="url(#mask-2)"></path>
                </g>
            </g>
        </g>
    </g>
</svg>