<?xml version="1.0" encoding="UTF-8"?>
<svg width="50px" height="50px" viewBox="0 0 50 50" version="1.1" xmlns="http://www.w3.org/2000/svg" xmlns:xlink="http://www.w3.org/1999/xlink">
    <!-- Generator: Sketch 52.4 (67378) - http://www.bohemiancoding.com/sketch -->
    <title>突破数据孤岛</title>
    <desc>Created with Sketch.</desc>
    <defs>
        <polygon id="path-1" points="0 0.00209302326 18 0.00209302326 18 18 0 18"></polygon>
        <polygon id="path-3" points="0.00313953488 0 36 0 36 18 0.00313953488 18"></polygon>
    </defs>
    <g id="Page-1" stroke="none" stroke-width="1" fill="none" fill-rule="evenodd">
        <g id="Group-21-Copy-2">
            <g id="Group-10">
                <polygon id="Path" points="0 0 50 0 50 50 0 50"></polygon>
                <g id="jr" transform="translate(7.000000, 7.000000)">
                    <g id="Group-3" transform="translate(9.000000, 0.000000)">
                        <mask id="mask-2" fill="white">
                            <use xlink:href="#path-1"></use>
                        </mask>
                        <g id="Clip-2"></g>
                        <path d="M0,9 C0,13.9705116 4.02948837,18 9,18 C13.9705116,18 18,13.9705116 18,9 C18,4.02948837 13.9705116,0 9,0 C4.02948837,0 0,4.02948837 0,9 Z" id="Fill-1" fill="#FF8F38" mask="url(#mask-2)"></path>
                    </g>
                    <path d="M9,27 C9,31.9705116 13.0294884,36 18,36 C22.9705116,36 27,31.9705116 27,27 C27,22.0294884 22.9705116,18 18,18 C13.0294884,18 9,22.0294884 9,27 Z" id="Fill-4" fill="#FF8F38"></path>
                    <g id="Group-8" transform="translate(0.000000, 9.000000)">
                        <mask id="mask-4" fill="white">
                            <use xlink:href="#path-3"></use>
                        </mask>
                        <g id="Clip-6"></g>
                        <path d="M18,9 C18,13.9705116 22.0294884,18 27,18 C31.9705116,18 36,13.9705116 36,9 C36,4.02948837 31.9705116,0 27,0 C22.0294884,0 18,4.02948837 18,9 Z" id="Fill-5" fill="#F96D00" mask="url(#mask-4)"></path>
                        <path d="M0,9 C0,13.9705116 4.02948837,18 9,18 C13.9705116,18 18,13.9705116 18,9 C18,4.02948837 13.9705116,0 9,0 C4.02948837,0 0,4.02948837 0,9 Z" id="Fill-7" fill="#FF8F38" mask="url(#mask-4)"></path>
                    </g>
                    <path d="M27,27 C22.0294884,27 18,22.9705116 18,18 C22.9705116,18 27,22.0294884 27,27 Z M18,18 C18,13.0294884 22.0294884,9 27,9 C27,13.9705116 22.9705116,18 18,18 Z M18,18 C18,22.9705116 13.9705116,27 9,27 C9,22.0294884 13.0294884,18 18,18 Z M18,18 C13.0294884,18 9,13.9705116 9,9 C13.9705116,9 18,13.0294884 18,18 Z" id="Fill-10" fill="#FFECDE"></path>
                </g>
            </g>
        </g>
    </g>
</svg>