<?xml version="1.0" encoding="UTF-8"?>
<svg width="74px" height="74px" viewBox="0 0 74 74" version="1.1" xmlns="http://www.w3.org/2000/svg" xmlns:xlink="http://www.w3.org/1999/xlink">
    <!-- Generator: Sketch 52.4 (67378) - http://www.bohemiancoding.com/sketch -->
    <title>银行</title>
    <desc>Created with Sketch.</desc>
    <defs>
        <rect id="path-1" x="0" y="0" width="74" height="74"></rect>
        <linearGradient x1="89.697688%" y1="41.5110424%" x2="3.29131924%" y2="50%" id="linearGradient-3">
            <stop stop-color="#FFB266" offset="0%"></stop>
            <stop stop-color="#F96D00" offset="100%"></stop>
        </linearGradient>
        <linearGradient x1="10.0745128%" y1="32.2954802%" x2="89.7866735%" y2="61.846588%" id="linearGradient-4">
            <stop stop-color="#FFA648" stop-opacity="0.4" offset="0%"></stop>
            <stop stop-color="#FFCC98" stop-opacity="0.167663574" offset="100%"></stop>
        </linearGradient>
        <linearGradient x1="93.2383322%" y1="65.6468028%" x2="6.65171485%" y2="26.970417%" id="linearGradient-5">
            <stop stop-color="#FA7F2F" stop-opacity="0.667821912" offset="0%"></stop>
            <stop stop-color="#FFFFFF" offset="100%"></stop>
        </linearGradient>
        <linearGradient x1="100%" y1="50%" x2="0%" y2="50%" id="linearGradient-6">
            <stop stop-color="#FAD961" offset="0%"></stop>
            <stop stop-color="#F76B1C" offset="100%"></stop>
        </linearGradient>
        <filter x="-46.9%" y="-38.3%" width="193.9%" height="176.5%" filterUnits="objectBoundingBox" id="filter-7">
            <feGaussianBlur stdDeviation="3.6" in="SourceGraphic"></feGaussianBlur>
        </filter>
        <polygon id="path-8" points="0.00199757052 0.0168348597 23.8696693 0.0168348597 23.8696693 17.9032258 0.00199757052 17.9032258"></polygon>
        <polygon id="path-10" points="0.00199757052 0.0168348597 23.8696693 0.0168348597 23.8696693 17.9032258 0.00199757052 17.9032258"></polygon>
    </defs>
    <g id="home" stroke="none" stroke-width="1" fill="none" fill-rule="evenodd">
        <g id="Group-13-Copy-2">
            <mask id="mask-2" fill="white">
                <use xlink:href="#path-1"></use>
            </mask>
            <g id="Mask" fill-rule="nonzero"></g>
            <g id="Group-13-Copy" mask="url(#mask-2)">
                <g transform="translate(2.387097, 7.161290)" id="Group-5">
                    <g>
                        <ellipse id="Oval" fill="url(#linearGradient-3)" fill-rule="nonzero" cx="19.9286413" cy="20.0317204" rx="19.9286413" ry="20.0317204"></ellipse>
                        <ellipse id="Oval-Copy" stroke="url(#linearGradient-5)" stroke-width="1.8" fill="url(#linearGradient-4)" fill-rule="nonzero" cx="41.5933529" cy="35.7666667" rx="27.2707722" ry="27.411828"></ellipse>
                        <path d="M37.1461126,9.34946237 C37.5026967,10.9697417 37.6907084,12.6537004 37.6907084,14.3817988 C37.6907084,27.1687684 27.3967322,37.539015 14.684262,37.5763215 C15.5628147,24.1602065 24.7634965,13.0289928 37.1461126,9.34946237 Z" id="Combined-Shape" fill="url(#linearGradient-6)" fill-rule="nonzero" filter="url(#filter-7)"></path>
                        <g id="Group-10" transform="translate(28.645161, 26.258065)">
                            <g id="yinhangka" transform="translate(0.000000, 1.193548)">
                                <mask id="mask-9" fill="white">
                                    <use xlink:href="#path-8"></use>
                                </mask>
                                <g id="Clip-2"></g>
                                <path d="M23.8696693,3.76459838 L23.8696693,1.77795543 C23.8696693,0.804188298 23.0599874,0.0168348597 22.0584721,0.0168348597 L1.81106402,0.0168348597 C0.809681918,0.0168348597 0,0.804188298 0,1.77795543 L0,3.76459838 C0,3.93543983 0.143825078,4.07529866 0.319677869,4.07529866 L23.5499915,4.07529866 C23.7258442,4.07529866 23.8696693,3.93543983 23.8696693,3.76459838 Z M23.5499915,5.72249256 L0.319677869,5.72249256 C0.143825078,5.72249256 0,5.86238377 0,6.03335472 L0,16.1419757 C0,17.1158724 0.809681918,17.9032258 1.81106402,17.9032258 L22.0584721,17.9032258 C23.0599874,17.9032258 23.8696693,17.1158724 23.8696693,16.1419757 L23.8696693,6.03335472 C23.8696693,5.86238377 23.7258442,5.72249256 23.5499915,5.72249256 Z M11.9294912,12.2156656 L11.442084,14.9040308 C11.4154164,15.0515948 11.282245,15.1605034 11.1277329,15.1605034 L10.073049,15.1605034 C9.87329194,15.1605034 9.72410672,14.9868454 9.75883115,14.7952517 L10.2462717,12.1068865 C10.272806,11.959193 10.4059774,11.8504462 10.5604562,11.8504462 L11.6151734,11.8504462 C11.8149305,11.853101 11.9640824,12.0265972 11.9294912,12.2156656 Z M15.3413749,12.2156656 L14.8539344,14.9040308 C14.8272668,15.0515948 14.6940955,15.1605034 14.5396167,15.1605034 L13.4848994,15.1605034 C13.2851424,15.1605034 13.1359905,14.9868454 13.1707149,14.7952517 L13.6579889,12.1068865 C13.6846565,11.959193 13.8178279,11.8504462 13.9723399,11.8504462 L15.0270239,11.8504462 C15.2267809,11.853101 15.3759662,12.0265972 15.3413749,12.2156656 Z M20.4550556,12.2156656 L19.9677815,14.9040308 C19.941114,15.0515948 19.8079426,15.1605034 19.6534305,15.1605034 L16.8967832,15.1605034 C16.6970261,15.1605034 16.5478409,14.9868454 16.5824322,14.7952517 L17.0698727,12.1068865 C17.0965402,11.959193 17.2297116,11.8504462 17.3841904,11.8504462 L20.140871,11.8504462 C20.3378981,11.853101 20.48978,12.0265972 20.4550556,12.2156656 Z" id="Fill-1" fill="#F96D00" mask="url(#mask-9)"></path>
                            </g>
                            <g id="yinhangka-copy" transform="translate(1.193548, 0.000000)">
                                <mask id="mask-11" fill="white">
                                    <use xlink:href="#path-10"></use>
                                </mask>
                                <g id="Clip-2"></g>
                                <path d="M23.8696693,3.76459838 L23.8696693,1.77795543 C23.8696693,0.804188298 23.0599874,0.0168348597 22.0584721,0.0168348597 L1.81106402,0.0168348597 C0.809681918,0.0168348597 0,0.804188298 0,1.77795543 L0,3.76459838 C0,3.93543983 0.143825078,4.07529866 0.319677869,4.07529866 L23.5499915,4.07529866 C23.7258442,4.07529866 23.8696693,3.93543983 23.8696693,3.76459838 Z M23.5499915,5.72249256 L0.319677869,5.72249256 C0.143825078,5.72249256 0,5.86238377 0,6.03335472 L0,16.1419757 C0,17.1158724 0.809681918,17.9032258 1.81106402,17.9032258 L22.0584721,17.9032258 C23.0599874,17.9032258 23.8696693,17.1158724 23.8696693,16.1419757 L23.8696693,6.03335472 C23.8696693,5.86238377 23.7258442,5.72249256 23.5499915,5.72249256 Z M11.9294912,12.2156656 L11.442084,14.9040308 C11.4154164,15.0515948 11.282245,15.1605034 11.1277329,15.1605034 L10.073049,15.1605034 C9.87329194,15.1605034 9.72410672,14.9868454 9.75883115,14.7952517 L10.2462717,12.1068865 C10.272806,11.959193 10.4059774,11.8504462 10.5604562,11.8504462 L11.6151734,11.8504462 C11.8149305,11.853101 11.9640824,12.0265972 11.9294912,12.2156656 Z M15.3413749,12.2156656 L14.8539344,14.9040308 C14.8272668,15.0515948 14.6940955,15.1605034 14.5396167,15.1605034 L13.4848994,15.1605034 C13.2851424,15.1605034 13.1359905,14.9868454 13.1707149,14.7952517 L13.6579889,12.1068865 C13.6846565,11.959193 13.8178279,11.8504462 13.9723399,11.8504462 L15.0270239,11.8504462 C15.2267809,11.853101 15.3759662,12.0265972 15.3413749,12.2156656 Z M20.4550556,12.2156656 L19.9677815,14.9040308 C19.941114,15.0515948 19.8079426,15.1605034 19.6534305,15.1605034 L16.8967832,15.1605034 C16.6970261,15.1605034 16.5478409,14.9868454 16.5824322,14.7952517 L17.0698727,12.1068865 C17.0965402,11.959193 17.2297116,11.8504462 17.3841904,11.8504462 L20.140871,11.8504462 C20.3378981,11.853101 20.48978,12.0265972 20.4550556,12.2156656 Z" id="Fill-1" fill="#FFFFFF" mask="url(#mask-11)"></path>
                            </g>
                        </g>
                    </g>
                </g>
            </g>
        </g>
    </g>
</svg>