<?xml version="1.0" encoding="UTF-8"?>
<svg width="74px" height="74px" viewBox="0 0 74 74" version="1.1" xmlns="http://www.w3.org/2000/svg" xmlns:xlink="http://www.w3.org/1999/xlink">
    <!-- Generator: Sketch 52.4 (67378) - http://www.bohemiancoding.com/sketch -->
    <title>保险</title>
    <desc>Created with Sketch.</desc>
    <defs>
        <rect id="path-1" x="0" y="0" width="74" height="74"></rect>
        <linearGradient x1="80.7409185%" y1="26.3972879%" x2="9.19546967%" y2="72.6385425%" id="linearGradient-3">
            <stop stop-color="#FFB266" offset="0%"></stop>
            <stop stop-color="#F96D00" offset="100%"></stop>
        </linearGradient>
        <linearGradient x1="10.0745128%" y1="32.2954802%" x2="89.7866735%" y2="61.846588%" id="linearGradient-4">
            <stop stop-color="#FFA648" stop-opacity="0.4" offset="0%"></stop>
            <stop stop-color="#FFCC98" stop-opacity="0.167663574" offset="100%"></stop>
        </linearGradient>
        <linearGradient x1="93.2383322%" y1="65.6468028%" x2="3.88490977%" y2="46.6042113%" id="linearGradient-5">
            <stop stop-color="#FA7F2F" stop-opacity="0.667821912" offset="0%"></stop>
            <stop stop-color="#FFFFFF" offset="100%"></stop>
        </linearGradient>
        <filter x="-53.2%" y="-37.7%" width="206.5%" height="175.4%" filterUnits="objectBoundingBox" id="filter-6">
            <feGaussianBlur stdDeviation="3.6" in="SourceGraphic"></feGaussianBlur>
        </filter>
    </defs>
    <g id="home" stroke="none" stroke-width="1" fill="none" fill-rule="evenodd">
        <g id="Group-11-Copy-3">
            <g id="Group-11-Copy-2">
                <mask id="mask-2" fill="white">
                    <use xlink:href="#path-1"></use>
                </mask>
                <g id="Mask" fill-rule="nonzero"></g>
                <g mask="url(#mask-2)" id="Group-7">
                    <g transform="translate(4.774194, 8.354839)">
                        <g>
                            <path d="M2.025,-3.90798505e-14 L34.2290469,-1.23088922e-06 C35.3474235,-1.23088922e-06 36.2540469,0.906622151 36.2540469,2.02499877 C36.2540469,2.02499918 36.2540469,2.02499959 36.2540469,2.025 L36.2540346,18.8348376 C36.2540325,22.382218 35.0896574,25.8315381 32.9396959,28.6531641 C27.1545965,36.2455733 22.2170366,40.0417779 18.1270161,40.0417779 C14.0369958,40.0417779 9.09943598,36.2455735 3.31433674,28.6531646 L3.3143385,28.6531633 C1.16437514,25.8315348 1.10925702e-14,22.3822112 1.0658141e-14,18.8348277 L7.10542736e-15,2.025 C6.96846572e-15,0.906623382 0.906623382,-3.8874408e-14 2.025,-3.90798505e-14 Z" id="Rectangle" fill="url(#linearGradient-3)" fill-rule="nonzero"></path>
                            <path d="M18.7346774,10.4483871 C18.1133571,10.4483871 17.6096774,10.9520668 17.6096774,11.5733871 L17.6096774,35.6642344 C17.6096774,38.971937 18.6816106,42.1905671 20.6648355,44.8377775 C28.6123877,55.4461655 35.3943872,60.7024974 40.8790393,60.7024974 C46.3636918,60.7024974 53.1456872,55.4461644 61.0932305,44.837774 C63.0764511,42.1905688 64.1483825,38.9719455 64.1483845,35.6642485 L64.1484012,11.5733858 C64.1484012,10.9520655 63.6447215,10.4483858 63.0234012,10.4483858 L18.7346774,10.4483871 Z" id="Rectangle-Copy-8" stroke="url(#linearGradient-5)" stroke-width="1.8" fill="url(#linearGradient-4)" fill-rule="nonzero"></path>
                            <path d="M38.1935441,11.9354834 L38.1935384,20.2713356 C38.193536,24.0518089 36.8713714,27.7132379 34.4560247,30.6215155 C28.9419361,37.2609353 24.220033,40.5806452 20.2903154,40.5806452 C19.5730009,40.5806452 18.8292913,40.4700346 18.0591866,40.2488134 C17.9558078,39.5092468 17.9032258,38.7599952 17.9032258,38.0061047 L17.9032258,13.9604839 C17.9032258,12.8421073 18.8098492,11.9354839 19.9282258,11.9354839 L38.1935441,11.9354834 Z" id="Combined-Shape" fill="url(#linearGradient-3)" fill-rule="nonzero" filter="url(#filter-6)"></path>
                            <g id="Group-12" transform="translate(31.032258, 20.290323)" fill-rule="nonzero">
                                <path d="M1.26,10.9078495 L1.26,20.223871 L16.6432258,20.223871 L16.6432258,10.9078495 L14.9722581,10.9078495 L14.9722581,7.87741935 C14.9722581,4.88189813 12.5439083,2.45354839 9.5483871,2.45354839 L8.35483871,2.45354839 C5.35931749,2.45354839 2.93096774,4.88189813 2.93096774,7.87741935 L2.93096774,10.9078495 L1.26,10.9078495 Z" id="Path" stroke="#F96D00" stroke-width="2.52"></path>
                                <path d="M2.45354839,9.71430108 L2.45354839,19.0303226 L17.8367742,19.0303226 L17.8367742,9.71430108 L16.1658065,9.71430108 L16.1658065,6.68387097 C16.1658065,3.68834975 13.7374567,1.26 10.7419355,1.26 L9.5483871,1.26 C6.55286588,1.26 4.12451613,3.68834975 4.12451613,6.68387097 L4.12451613,9.71430108 L2.45354839,9.71430108 Z" id="Path" stroke="#FFFFFF" stroke-width="2.52"></path>
                                <polygon id="Rectangle" fill="#FFFFFF" points="2.98387097 8.35483871 17.2238948 8.35483871 17.9032258 20.2903226 2.38709677 20.2903226"></polygon>
                            </g>
                        </g>
                    </g>
                </g>
            </g>
        </g>
    </g>
</svg>