<?xml version="1.0" encoding="UTF-8"?>
<svg width="74px" height="74px" viewBox="0 0 74 74" version="1.1" xmlns="http://www.w3.org/2000/svg" xmlns:xlink="http://www.w3.org/1999/xlink">
    <!-- Generator: Sketch 52.4 (67378) - http://www.bohemiancoding.com/sketch -->
    <title>政府 </title>
    <desc>Created with Sketch.</desc>
    <defs>
        <rect id="path-1" x="0" y="0" width="74" height="74"></rect>
        <linearGradient x1="100%" y1="40.7042575%" x2="0%" y2="50%" id="linearGradient-3">
            <stop stop-color="#FFB266" offset="0%"></stop>
            <stop stop-color="#F96D00" offset="100%"></stop>
        </linearGradient>
        <linearGradient x1="10.0745128%" y1="32.2954802%" x2="89.7866735%" y2="61.846588%" id="linearGradient-4">
            <stop stop-color="#FFA648" stop-opacity="0.4" offset="0%"></stop>
            <stop stop-color="#FFCC98" stop-opacity="0.167663574" offset="100%"></stop>
        </linearGradient>
        <linearGradient x1="95.5749643%" y1="88.0734317%" x2="4.42349605%" y2="6.1024623%" id="linearGradient-5">
            <stop stop-color="#FA7F2F" stop-opacity="0.667821912" offset="0%"></stop>
            <stop stop-color="#FFFFFF" stop-opacity="0.978546585" offset="100%"></stop>
        </linearGradient>
        <linearGradient x1="100%" y1="40.7042575%" x2="0%" y2="50%" id="linearGradient-6">
            <stop stop-color="#FFCA95" offset="0%"></stop>
            <stop stop-color="#F96D00" offset="100%"></stop>
        </linearGradient>
        <filter x="-29.2%" y="-64.6%" width="158.4%" height="229.3%" filterUnits="objectBoundingBox" id="filter-7">
            <feGaussianBlur stdDeviation="3.6" in="SourceGraphic"></feGaussianBlur>
        </filter>
        <polygon id="path-8" points="0 0.0232805397 21.4798654 0.0232805397 21.4798654 21.4838908 0 21.4838908"></polygon>
        <polygon id="path-10" points="0 0.0232805397 21.4798654 0.0232805397 21.4798654 21.4838908 0 21.4838908"></polygon>
    </defs>
    <g id="home" stroke="none" stroke-width="1" fill="none" fill-rule="evenodd">
        <g id="Group-14-Copy-2">
            <mask id="mask-2" fill="white">
                <use xlink:href="#path-1"></use>
            </mask>
            <g id="Mask" fill-rule="nonzero"></g>
            <g id="Group-14-Copy" mask="url(#mask-2)">
                <g transform="translate(2.387097, 8.354839)">
                    <g id="Group-8">
                        <rect id="Rectangle" fill="url(#linearGradient-3)" fill-rule="nonzero" x="0" y="0" width="56.0967742" height="37" rx="4.8"></rect>
                        <rect id="Rectangle-Copy-2" stroke="url(#linearGradient-5)" stroke-width="1.8" fill="url(#linearGradient-4)" fill-rule="nonzero" x="14.0290323" y="16.416129" width="54.2967742" height="42.3612903" rx="4.8"></rect>
                        <path d="M53.7096774,19.0967742 L53.7096774,35.8064516 L16.7096774,35.8064516 L16.7096774,19.0967742 L53.7096774,19.0967742 Z" id="Combined-Shape" fill="url(#linearGradient-6)" fill-rule="nonzero" filter="url(#filter-7)"></path>
                        <g id="Group-14" transform="translate(29.838710, 25.064516)">
                            <g id="gejizhengfu" transform="translate(0.000000, 1.193548)">
                                <mask id="mask-9" fill="white">
                                    <use xlink:href="#path-8"></use>
                                </mask>
                                <g id="Clip-2"></g>
                                <path d="M10.1951851,0.228400567 C10.3146139,0.159437079 10.4286653,0.073055654 10.5650969,0.0421283233 C10.7428317,0.00440694789 10.9363914,0.020696916 11.0958176,0.114764268 C14.4103769,2.10366182 17.7259092,4.09124778 21.0405709,6.07985679 C21.2251939,6.19451613 21.3759395,6.37299752 21.4400582,6.58623609 C21.527274,6.87838001 21.470658,7.21805601 21.2753059,7.4524112 C21.1147786,7.64802198 20.8662161,7.75827437 20.6178584,7.75919248 C20.1676446,7.76197306 19.7175332,7.75919248 19.267601,7.76042538 C19.2673961,11.2903382 19.2673961,14.8199624 19.267601,18.3499015 C19.4450542,18.3500851 19.6225074,18.3499015 19.7999349,18.3500851 C20.0176928,18.352341 20.2397525,18.3341099 20.4516977,18.3975385 C20.9182229,18.5218249 21.3006307,18.9224899 21.4115582,19.403162 C21.4677645,19.6217256 21.4455636,19.8494179 21.450352,20.0726771 C21.458162,20.4230294 21.3301294,20.7737753 21.0985696,21.0315817 C20.8506985,21.3131542 20.4854215,21.4823495 20.1151256,21.4835562 C13.8695415,21.483871 7.62423915,21.4835562 1.37865508,21.483871 C1.03537406,21.4858121 0.694372025,21.344816 0.447217886,21.1009649 C0.181550233,20.8436569 0.0262978969,20.4718993 0.0293962859,20.0974924 C0.0345175901,19.8736824 0.0115997539,19.6461212 0.0627103695,19.4263247 C0.13814718,19.0804842 0.350297205,18.769296 0.64016302,18.576151 C0.858330578,18.428492 1.11949148,18.349167 1.38085724,18.3500851 C1.65141574,18.3496916 1.92189742,18.3503999 2.19245592,18.3499015 C2.1919694,14.8199624 2.19296805,11.2901546 2.1919694,7.76021553 C1.75125557,7.75990074 1.31074659,7.76123857 0.870109577,7.75971712 C0.639471644,7.75971712 0.407502172,7.66808933 0.245464109,7.49810705 C-0.0346968357,7.20895356 -0.0808141797,6.71616235 0.136943673,6.37577809 C0.215760544,6.25251471 0.32428098,6.1502368 0.447525164,6.07461042 C3.69673659,4.12608366 6.94597362,2.17724211 10.1951851,0.228400567 Z M10.6635283,4.71291599 C10.5563906,4.77521659 10.48628,4.8834229 10.4363473,4.99572138 C10.1469936,5.59897483 9.85500242,6.20065438 9.56613526,6.80409146 C8.8951676,6.90634314 8.22340613,7.00319107 7.55241286,7.10462956 C7.35877635,7.12983836 7.18593233,7.27390358 7.12580822,7.46450408 C7.05999946,7.65673095 7.11500227,7.88266572 7.25914137,8.02253385 C7.74456419,8.50742928 8.23090884,8.99096065 8.71622923,9.47614463 C8.60220339,10.1590904 8.48766542,10.8420624 8.37384444,11.525218 C8.34373117,11.6823991 8.3866477,11.8517781 8.4883568,11.9735987 C8.59418855,12.1042595 8.76352447,12.175374 8.92868653,12.1615236 C9.03549133,12.1560936 9.13141336,12.1034463 9.22354562,12.0520844 C9.79380284,11.744385 10.3647514,11.4381021 10.934983,11.1300879 C11.5404492,11.4546019 12.1444046,11.7818965 12.7495379,12.1069089 C12.9132916,12.1933952 13.1218311,12.183978 13.2749837,12.0772932 C13.4432186,11.9666473 13.5377579,11.7495002 13.5035475,11.5472265 C13.3895217,10.8571195 13.2725767,10.1677207 13.1577571,9.47758738 C13.6158577,9.02015668 14.073984,8.56275222 14.5321103,8.10553137 C14.6201199,8.02182559 14.7093586,7.93114215 14.7455662,7.81031833 C14.8267645,7.57916342 14.7262589,7.30197164 14.5197935,7.17881319 C14.4195696,7.11404679 14.2994494,7.10289826 14.1849115,7.08660829 C13.5582431,6.99356398 12.9316003,6.90041475 12.3049319,6.80705565 C12.0100472,6.19522439 11.7149833,5.58360298 11.4210204,4.97156186 C11.3772077,4.87421553 11.3130889,4.78382063 11.2242599,4.72479901 C11.0606086,4.60992981 10.8317632,4.60502446 10.6635283,4.71291599 Z M5.26974517,15.3656108 C5.07759383,15.4144807 4.92546549,15.595559 4.91125387,15.7986459 C4.90544119,15.9285721 4.89704225,16.0668926 4.95555315,16.1866934 C5.03419078,16.3605842 5.21812242,16.4754272 5.40507563,16.4679511 C8.91736845,16.4677675 12.4298661,16.4679511 15.9421589,16.4679511 C16.0525999,16.4672428 16.168623,16.4778929 16.2722526,16.4304658 C16.4414861,16.3610826 16.563706,16.1851457 16.5688273,15.9979291 C16.571516,15.8791776 16.5794284,15.7541567 16.5288043,15.6436944 C16.4549807,15.4678625 16.2744548,15.3473797 16.0872967,15.3500291 C12.5672963,15.3493208 9.04729594,15.3500291 5.5275004,15.3498192 C5.4414881,15.3500291 5.35396501,15.3441007 5.26974517,15.3656108 Z M5.27123034,17.7143828 C5.07928386,17.7622297 4.92664339,17.9420752 4.91145873,18.1446374 C4.90474982,18.2805183 4.89673498,18.4264197 4.96256934,18.5502077 C5.04479188,18.7174357 5.22513861,18.8241205 5.40748264,18.8177462 C8.96727556,18.8174576 12.5267868,18.8184807 16.0866053,18.8172478 C16.3195478,18.8226778 16.5369984,18.6314739 16.5649095,18.3941546 C16.5825268,18.209089 16.5784298,17.9977129 16.4414861,17.857425 C16.3296624,17.7262659 16.1529006,17.6851868 15.9894798,17.6975682 C12.5180806,17.6985913 9.04701426,17.6977781 5.57602476,17.6980929 C5.47418763,17.6993258 5.37107017,17.6901971 5.27123034,17.7143828 Z" id="Fill-1" fill="#F96D00" mask="url(#mask-9)"></path>
                            </g>
                            <g id="gejizhengfu-copy" transform="translate(1.193548, 0.000000)">
                                <mask id="mask-11" fill="white">
                                    <use xlink:href="#path-10"></use>
                                </mask>
                                <g id="Clip-2"></g>
                                <path d="M10.1951851,0.228400567 C10.3146139,0.159437079 10.4286653,0.073055654 10.5650969,0.0421283233 C10.7428317,0.00440694789 10.9363914,0.020696916 11.0958176,0.114764268 C14.4103769,2.10366182 17.7259092,4.09124778 21.0405709,6.07985679 C21.2251939,6.19451613 21.3759395,6.37299752 21.4400582,6.58623609 C21.527274,6.87838001 21.470658,7.21805601 21.2753059,7.4524112 C21.1147786,7.64802198 20.8662161,7.75827437 20.6178584,7.75919248 C20.1676446,7.76197306 19.7175332,7.75919248 19.267601,7.76042538 C19.2673961,11.2903382 19.2673961,14.8199624 19.267601,18.3499015 C19.4450542,18.3500851 19.6225074,18.3499015 19.7999349,18.3500851 C20.0176928,18.352341 20.2397525,18.3341099 20.4516977,18.3975385 C20.9182229,18.5218249 21.3006307,18.9224899 21.4115582,19.403162 C21.4677645,19.6217256 21.4455636,19.8494179 21.450352,20.0726771 C21.458162,20.4230294 21.3301294,20.7737753 21.0985696,21.0315817 C20.8506985,21.3131542 20.4854215,21.4823495 20.1151256,21.4835562 C13.8695415,21.483871 7.62423915,21.4835562 1.37865508,21.483871 C1.03537406,21.4858121 0.694372025,21.344816 0.447217886,21.1009649 C0.181550233,20.8436569 0.0262978969,20.4718993 0.0293962859,20.0974924 C0.0345175901,19.8736824 0.0115997539,19.6461212 0.0627103695,19.4263247 C0.13814718,19.0804842 0.350297205,18.769296 0.64016302,18.576151 C0.858330578,18.428492 1.11949148,18.349167 1.38085724,18.3500851 C1.65141574,18.3496916 1.92189742,18.3503999 2.19245592,18.3499015 C2.1919694,14.8199624 2.19296805,11.2901546 2.1919694,7.76021553 C1.75125557,7.75990074 1.31074659,7.76123857 0.870109577,7.75971712 C0.639471644,7.75971712 0.407502172,7.66808933 0.245464109,7.49810705 C-0.0346968357,7.20895356 -0.0808141797,6.71616235 0.136943673,6.37577809 C0.215760544,6.25251471 0.32428098,6.1502368 0.447525164,6.07461042 C3.69673659,4.12608366 6.94597362,2.17724211 10.1951851,0.228400567 Z M10.6635283,4.71291599 C10.5563906,4.77521659 10.48628,4.8834229 10.4363473,4.99572138 C10.1469936,5.59897483 9.85500242,6.20065438 9.56613526,6.80409146 C8.8951676,6.90634314 8.22340613,7.00319107 7.55241286,7.10462956 C7.35877635,7.12983836 7.18593233,7.27390358 7.12580822,7.46450408 C7.05999946,7.65673095 7.11500227,7.88266572 7.25914137,8.02253385 C7.74456419,8.50742928 8.23090884,8.99096065 8.71622923,9.47614463 C8.60220339,10.1590904 8.48766542,10.8420624 8.37384444,11.525218 C8.34373117,11.6823991 8.3866477,11.8517781 8.4883568,11.9735987 C8.59418855,12.1042595 8.76352447,12.175374 8.92868653,12.1615236 C9.03549133,12.1560936 9.13141336,12.1034463 9.22354562,12.0520844 C9.79380284,11.744385 10.3647514,11.4381021 10.934983,11.1300879 C11.5404492,11.4546019 12.1444046,11.7818965 12.7495379,12.1069089 C12.9132916,12.1933952 13.1218311,12.183978 13.2749837,12.0772932 C13.4432186,11.9666473 13.5377579,11.7495002 13.5035475,11.5472265 C13.3895217,10.8571195 13.2725767,10.1677207 13.1577571,9.47758738 C13.6158577,9.02015668 14.073984,8.56275222 14.5321103,8.10553137 C14.6201199,8.02182559 14.7093586,7.93114215 14.7455662,7.81031833 C14.8267645,7.57916342 14.7262589,7.30197164 14.5197935,7.17881319 C14.4195696,7.11404679 14.2994494,7.10289826 14.1849115,7.08660829 C13.5582431,6.99356398 12.9316003,6.90041475 12.3049319,6.80705565 C12.0100472,6.19522439 11.7149833,5.58360298 11.4210204,4.97156186 C11.3772077,4.87421553 11.3130889,4.78382063 11.2242599,4.72479901 C11.0606086,4.60992981 10.8317632,4.60502446 10.6635283,4.71291599 Z M5.26974517,15.3656108 C5.07759383,15.4144807 4.92546549,15.595559 4.91125387,15.7986459 C4.90544119,15.9285721 4.89704225,16.0668926 4.95555315,16.1866934 C5.03419078,16.3605842 5.21812242,16.4754272 5.40507563,16.4679511 C8.91736845,16.4677675 12.4298661,16.4679511 15.9421589,16.4679511 C16.0525999,16.4672428 16.168623,16.4778929 16.2722526,16.4304658 C16.4414861,16.3610826 16.563706,16.1851457 16.5688273,15.9979291 C16.571516,15.8791776 16.5794284,15.7541567 16.5288043,15.6436944 C16.4549807,15.4678625 16.2744548,15.3473797 16.0872967,15.3500291 C12.5672963,15.3493208 9.04729594,15.3500291 5.5275004,15.3498192 C5.4414881,15.3500291 5.35396501,15.3441007 5.26974517,15.3656108 Z M5.27123034,17.7143828 C5.07928386,17.7622297 4.92664339,17.9420752 4.91145873,18.1446374 C4.90474982,18.2805183 4.89673498,18.4264197 4.96256934,18.5502077 C5.04479188,18.7174357 5.22513861,18.8241205 5.40748264,18.8177462 C8.96727556,18.8174576 12.5267868,18.8184807 16.0866053,18.8172478 C16.3195478,18.8226778 16.5369984,18.6314739 16.5649095,18.3941546 C16.5825268,18.209089 16.5784298,17.9977129 16.4414861,17.857425 C16.3296624,17.7262659 16.1529006,17.6851868 15.9894798,17.6975682 C12.5180806,17.6985913 9.04701426,17.6977781 5.57602476,17.6980929 C5.47418763,17.6993258 5.37107017,17.6901971 5.27123034,17.7143828 Z" id="Fill-1" fill="#FFFFFF" mask="url(#mask-11)"></path>
                            </g>
                        </g>
                    </g>
                    <g id="Group-9" transform="translate(33.419355, 27.451613)"></g>
                </g>
            </g>
        </g>
    </g>
</svg>