<?xml version="1.0" encoding="UTF-8"?>
<svg width="74px" height="74px" viewBox="0 0 74 74" version="1.1" xmlns="http://www.w3.org/2000/svg" xmlns:xlink="http://www.w3.org/1999/xlink">
    <!-- Generator: Sketch 52.4 (67378) - http://www.bohemiancoding.com/sketch -->
    <title>监管机构</title>
    <desc>Created with Sketch.</desc>
    <defs>
        <rect id="path-1" x="0" y="0" width="74" height="74"></rect>
        <linearGradient x1="80.7409185%" y1="26.3972879%" x2="9.19546967%" y2="72.6385425%" id="linearGradient-3">
            <stop stop-color="#FFB266" offset="0%"></stop>
            <stop stop-color="#F96D00" offset="100%"></stop>
        </linearGradient>
        <linearGradient x1="10.0745128%" y1="32.2954802%" x2="89.7866735%" y2="61.846588%" id="linearGradient-4">
            <stop stop-color="#FFA648" stop-opacity="0.4" offset="0%"></stop>
            <stop stop-color="#FFCC98" stop-opacity="0.167663574" offset="100%"></stop>
        </linearGradient>
        <linearGradient x1="93.2383322%" y1="65.6468028%" x2="6.19463058%" y2="47.0964484%" id="linearGradient-5">
            <stop stop-color="#FA7F2F" stop-opacity="0.667821912" offset="0%"></stop>
            <stop stop-color="#FFFFFF" offset="100%"></stop>
        </linearGradient>
        <filter x="-49.2%" y="-53.3%" width="198.5%" height="206.6%" filterUnits="objectBoundingBox" id="filter-6">
            <feGaussianBlur stdDeviation="3.6" in="SourceGraphic"></feGaussianBlur>
        </filter>
    </defs>
    <g id="home" stroke="none" stroke-width="1" fill="none" fill-rule="evenodd">
        <g id="Group-12-Copy-2">
            <mask id="mask-2" fill="white">
                <use xlink:href="#path-1"></use>
            </mask>
            <g id="Mask" opacity="0.668915154" fill-rule="nonzero"></g>
            <g id="Group-12-Copy" mask="url(#mask-2)">
                <g transform="translate(-7.161290, -2.387097)">
                    <polygon id="Polygon" stroke="none" fill="url(#linearGradient-3)" fill-rule="nonzero" transform="translate(28.532305, 28.532305) rotate(-330.000000) translate(-28.532305, -28.532305) " points="28.5323048 7.64520803 46.6210612 18.0887564 46.6210612 38.9758532 28.5323048 49.4194016 10.4435484 38.9758532 10.4435484 18.0887564"></polygon>
                    <polygon id="Polygon-Copy" stroke="url(#linearGradient-5)" stroke-width="1.8" fill="url(#linearGradient-4)" fill-rule="nonzero" transform="translate(51.322581, 47.741935) rotate(-330.000000) translate(-51.322581, -47.741935) " points="51.3225806 20.2903226 75.0963748 34.016129 75.0963748 61.4677419 51.3225806 75.1935484 27.5487865 61.4677419 27.5487865 34.016129"></polygon>
                    <path d="M46.63408,25.0645161 L49.3838336,29.827229 L40.4322207,45.3318774 L27.4516129,45.3318774 L39.1529794,25.0645161 L46.63408,25.0645161 Z" id="Combined-Shape" stroke="none" fill="url(#linearGradient-3)" fill-rule="nonzero" filter="url(#filter-6)"></path>
                    <g id="Group-19" stroke="none" stroke-width="1" fill="none" fill-rule="evenodd" transform="translate(40.580645, 35.806452)">
                        <path d="M20.3022686,7.27089053 C20.287377,6.99803522 20.2532005,6.72631668 20.2279395,6.44780912 C20.1425305,6.44780912 20.076794,6.45222988 20.0123173,6.44670394 C19.7958875,6.43855712 19.5802653,6.41771641 19.3664843,6.38427656 C18.8444685,6.28597792 18.3696474,6.02360612 18.0140564,5.63729529 C17.7514657,5.3621033 17.5630749,5.02732585 17.4656814,4.66321354 C17.3781081,4.32202599 17.3203181,3.97332316 17.2483795,3.62190473 C17.2152043,3.61082126 17.1658454,3.59528547 17.1171648,3.57763402 C16.1618049,3.23534129 15.2066065,2.89282752 14.2517634,2.55015586 C13.485828,2.27483756 12.7214108,1.9962037 11.9549909,1.72397993 C11.4503864,1.54512882 10.9441345,1.37073004 10.4363643,1.20100463 C10.2313052,1.11180011 9.99649496,1.1156209 9.79460148,1.21123552 C9.45668026,1.35652047 9.11055408,1.48248041 8.75774119,1.58867325 C8.19660654,1.78874399 7.63611794,1.98928837 7.07611389,2.19059061 C6.20593685,2.50389582 5.33614745,2.81770626 4.46651956,3.13199036 C4.00416735,3.29900016 3.54310725,3.46736777 3.08518054,3.63399865 C3.06599258,3.84148994 3.0355955,4.04784446 2.9940862,4.25220964 C2.92922187,4.53839036 2.83935504,4.81850834 2.72542252,5.08950061 C2.58587374,5.38565961 2.37894101,5.64667361 2.12038814,5.85264921 C1.81980913,6.1083583 1.45727305,6.28474642 1.06737637,6.36491997 C0.767314209,6.4240002 0.457916493,6.43486263 0.131592028,6.46962871 C0.123031745,6.5609173 0.112177951,6.66180524 0.104715968,6.76256687 C0.0692796254,7.21427329 0.0248630604,7.66623232 0.00351080622,8.11901235 C-0.00873201424,8.37794228 0.014009267,8.6389247 0.0263489964,8.89845459 C0.0507054255,9.39518955 0.0746742191,9.89201924 0.106621843,10.3885016 C0.12429156,10.6666302 0.146225267,10.9461482 0.188380625,11.2216876 C0.25628144,11.6621526 0.323762316,12.1037545 0.424612145,12.5378095 C0.578535732,13.2002912 0.734235982,13.8640359 0.939553573,14.5123396 C1.12316358,15.09269 1.36769696,15.6550416 1.59659571,16.2210561 C1.86496867,16.8608656 2.18964568,17.4766136 2.56694421,18.0614164 C2.90890331,18.6126529 3.29288855,19.1379649 3.71583116,19.6326158 C4.07319876,20.0717231 4.46687489,20.4814639 4.89288628,20.8574491 C5.25816811,21.1629548 5.61463123,21.4797335 5.99041153,21.7720401 C6.61641052,22.2549444 7.29047631,22.6752003 8.00240116,23.0263662 C8.51585665,23.2822016 9.0506321,23.4975555 9.57326163,23.7368446 C9.8767479,23.8828874 10.2256521,23.9107698 10.5492955,23.8150604 C10.9447482,23.6850271 11.3305102,23.5286271 11.7038677,23.346934 C12.5115708,22.9760327 13.2839345,22.5355676 14.011914,22.0308437 C14.5914613,21.6228081 15.1411284,21.175554 15.6568451,20.692397 C15.8324763,20.5263661 16.0009362,20.3533252 16.1619341,20.1733689 C16.3865366,19.9265328 16.6153061,19.6816862 16.8210113,19.4207038 C17.2835897,18.854784 17.6939341,18.2499931 18.0473608,17.6132781 C18.3242294,17.0941236 18.6193492,16.5810003 18.8455991,16.0406262 C19.1199481,15.3857545 19.3488146,14.7103263 19.5639846,14.0337613 C19.8101654,13.2502457 19.9870564,12.4476261 20.0928163,11.6346492 C20.1685021,11.0699925 20.2465137,10.5049253 20.299749,9.93840559 C20.3372204,9.52260202 20.3550194,9.10578799 20.3529843,8.68790035 C20.3521121,8.21585846 20.3270127,7.74293242 20.3021394,7.27089053 L20.3022686,7.27089053 Z" id="zhifajianguan" fill="#F96D00"></path>
                        <path d="M21.4329987,6.13417778 C21.418107,5.86132247 21.3839305,5.58960393 21.3586696,5.31109637 C21.2732606,5.31109637 21.2075241,5.31551713 21.1430474,5.30999119 C20.9266176,5.30184437 20.7109953,5.28100366 20.4972144,5.24756381 C19.9751986,5.14926517 19.5003774,4.88689337 19.1447865,4.50058255 C18.8821957,4.22539055 18.6938049,3.8906131 18.5964115,3.52650079 C18.5088382,3.18531324 18.4510482,2.83661041 18.3791095,2.48519198 C18.3459344,2.47410851 18.2965755,2.45857272 18.2478949,2.44092127 C17.292535,2.09862854 16.3373365,1.75611477 15.3824935,1.41344311 C14.6165581,1.13812481 13.8521409,0.859490949 13.085721,0.587267179 C12.5811165,0.408416067 12.0748645,0.234017288 11.5670944,0.0642918775 C11.3620352,-0.0249126404 11.127225,-0.0210918452 10.9253315,0.0745227674 C10.5874103,0.219807719 10.2412841,0.345767656 9.88847124,0.451960503 C9.32733659,0.652031238 8.76684799,0.852575625 8.20684394,1.05387786 C7.3366669,1.36718307 6.4668775,1.68099351 5.59724961,1.99527761 C5.1348974,2.16228741 4.6738373,2.33065502 4.21591059,2.4972859 C4.19672263,2.70477719 4.16632555,2.91113171 4.12481625,3.11549689 C4.05995192,3.40167761 3.97008509,3.68179559 3.85615257,3.95278786 C3.71660379,4.24894686 3.50967106,4.50996086 3.25111819,4.71593646 C2.95053918,4.97164555 2.58800311,5.14803367 2.19810642,5.22820722 C1.89804426,5.28728745 1.58864654,5.29814988 1.26232208,5.33291596 C1.2537618,5.42420455 1.242908,5.52509249 1.23544602,5.62585412 C1.20000968,6.07756054 1.15559311,6.52951957 1.13424086,6.9822996 C1.12199804,7.24122953 1.14473932,7.50221195 1.15707905,7.76174184 C1.18143548,8.2584768 1.20540427,8.7553065 1.23735189,9.25178884 C1.25502161,9.52991748 1.27695532,9.80943549 1.31911068,10.0849748 C1.38701149,10.5254399 1.45449237,10.9670417 1.5553422,11.4010967 C1.70926578,12.0635784 1.86496603,12.7273232 2.07028362,13.3756269 C2.25389363,13.9559773 2.49842701,14.5183289 2.72732576,15.0843434 C2.99569872,15.7241529 3.32037573,16.3399009 3.69767426,16.9247036 C4.03963336,17.4759402 4.4236186,18.0012522 4.84656121,18.495903 C5.20392881,18.9350103 5.59760494,19.3447511 6.02361633,19.7207363 C6.38889816,20.0262421 6.74536129,20.3430207 7.12114158,20.6353274 C7.74714057,21.1182317 8.42120636,21.5384876 9.13313121,21.8896534 C9.64658671,22.1454888 10.1813621,22.3608427 10.7039917,22.6001319 C11.007478,22.7461747 11.3563822,22.774057 11.6800255,22.6783477 C12.0754783,22.5483143 12.4612402,22.3919143 12.8345978,22.2102213 C13.6423009,21.83932 14.4146646,21.3988549 15.142644,20.894131 C15.7221913,20.4860953 16.2718584,20.0388412 16.7875751,19.5556843 C16.9632063,19.3896534 17.1316662,19.2166124 17.2926642,19.0366561 C17.5172666,18.7898201 17.7460362,18.5449734 17.9517414,18.283991 C18.4143197,17.7180712 18.8246642,17.1132804 19.1780908,16.4765654 C19.4549595,15.9574109 19.7500793,15.4442875 19.9763292,14.9039134 C20.2506782,14.2490417 20.4795446,13.5736135 20.6947146,12.8970486 C20.9408955,12.1135329 21.1177864,11.3109133 21.2235463,10.4979365 C21.2992322,9.93327978 21.3772438,9.36821258 21.4304791,8.80169284 C21.4679505,8.38588927 21.4857494,7.96907524 21.4837143,7.5511876 C21.4828422,7.07914571 21.4577428,6.60621967 21.4328695,6.13417778 L21.4329987,6.13417778 Z M16.4525289,8.19222863 L10.3658443,15.1499916 C10.3658443,15.1499916 9.89932504,15.7732549 9.34539394,15.1433289 L6.71887286,11.6823199 C6.71887286,11.6823199 6.40721394,11.2133725 6.79698141,10.9327493 C6.9291005,10.8389977 7.22803206,10.6917234 7.5944768,11.0121966 L9.93553665,12.8324108 L15.7649605,7.59163751 C15.7649605,7.59163751 16.15602,7.24318729 16.4975915,7.51553737 C16.599152,7.5968161 16.7165086,7.82884258 16.4523028,8.19222863 L16.4525289,8.19222863 Z" id="zhifajianguan" fill="#FFFFFF"></path>
                    </g>
                </g>
            </g>
        </g>
    </g>
</svg>