<?xml version="1.0" encoding="UTF-8"?>
<svg width="50px" height="50px" viewBox="0 0 50 50" version="1.1" xmlns="http://www.w3.org/2000/svg" xmlns:xlink="http://www.w3.org/1999/xlink">
    <!-- Generator: Sketch 52.4 (67378) - http://www.bohemiancoding.com/sketch -->
    <title>自主可控</title>
    <desc>Created with Sketch.</desc>
    <g id="home" stroke="none" stroke-width="1" fill="none" fill-rule="evenodd">
        <g id="Icon_Workflow">
            <polygon id="path" points="0 0 50 0 50 50 0 50"></polygon>
            <path d="M24.0569709,39.6935976 L25.4743696,41.1109962 C26.0512264,41.687853 26.0512264,42.6231226 25.4743696,43.1999794 C24.8975129,43.7768361 23.9622432,43.7768361 23.3853865,43.1999794 L19.4463621,39.260955 C18.8695053,38.6840982 18.8695053,37.7488286 19.4463621,37.1719718 L23.3853865,33.2329475 C23.9622432,32.6560907 24.8975129,32.6560907 25.4743696,33.2329475 C26.0512264,33.8098042 26.0512264,34.7450738 25.4743696,35.3219306 L24.0569709,36.7393293 L33.785061,36.7393293 L33.785061,39.6935976 L24.0569709,39.6935976 Z M39.6935976,24.8027851 L41.1109962,23.3853865 C41.687853,22.8085297 42.6231226,22.8085297 43.1999794,23.3853865 C43.7768361,23.9622432 43.7768361,24.8975129 43.1999794,25.4743696 L39.260955,29.413394 C38.9725266,29.7018224 38.594495,29.8460366 38.2164634,29.8460366 C37.8384318,29.8460366 37.4604002,29.7018224 37.1719718,29.413394 L33.2329475,25.4743696 C32.6560907,24.8975129 32.6560907,23.9622432 33.2329475,23.3853865 C33.8098042,22.8085297 34.7450738,22.8085297 35.3219306,23.3853865 L36.7393293,24.8027851 L36.7393293,15.0746951 L39.6935976,15.0746951 L39.6935976,24.8027851 Z M24.8027851,12.1204268 L15.0746951,12.1204268 L15.0746951,9.16615854 L24.8027851,9.16615854 L23.3853865,7.74875986 C22.8085297,7.1719031 22.8085297,6.23663349 23.3853865,5.65977672 C23.9622432,5.08291995 24.8975129,5.08291995 25.4743696,5.65977672 L29.413394,9.59880111 C29.9902508,10.1756579 29.9902508,11.1109275 29.413394,11.6877843 L25.4743696,15.6268086 C24.8975129,16.2036654 23.9622432,16.2036654 23.3853865,15.6268086 C22.8085297,15.0499519 22.8085297,14.1146823 23.3853865,13.5378255 L24.8027851,12.1204268 Z M9.16615854,24.0569709 L7.74875986,25.4743696 C7.1719031,26.0512264 6.23663349,26.0512264 5.65977672,25.4743696 C5.08291995,24.8975129 5.08291995,23.9622432 5.65977672,23.3853865 L9.59880111,19.4463621 C10.1756579,18.8695053 11.1109275,18.8695053 11.6877843,19.4463621 L15.6268086,23.3853865 C16.2036654,23.9622432 16.2036654,24.8975129 15.6268086,25.4743696 C15.0499519,26.0512264 14.1146823,26.0512264 13.5378255,25.4743696 L12.1204268,24.0569709 L12.1204268,33.785061 L9.16615854,33.785061 L9.16615854,24.0569709 Z" id="path" fill="#FF7000" opacity="0.3"></path>
            <path d="M6.70426829,31.3231707 L14.5823171,31.3231707 C16.2139144,31.3231707 17.5365854,32.6458417 17.5365854,34.277439 L17.5365854,42.1554878 C17.5365854,43.7870851 16.2139144,45.1097561 14.5823171,45.1097561 L6.70426829,45.1097561 C5.07267097,45.1097561 3.75,43.7870851 3.75,42.1554878 L3.75,34.277439 C3.75,32.6458417 5.07267097,31.3231707 6.70426829,31.3231707 Z M17.5365854,6.70426829 L17.5365854,14.5823171 C17.5365854,16.2139144 16.2139144,17.5365854 14.5823171,17.5365854 L6.70426829,17.5365854 C5.07267097,17.5365854 3.75,16.2139144 3.75,14.5823171 L3.75,6.70426829 C3.75,5.07267097 5.07267097,3.75 6.70426829,3.75 L14.5823171,3.75 C16.2139144,3.75 17.5365854,5.07267097 17.5365854,6.70426829 Z M42.1554878,17.5365854 L34.277439,17.5365854 C32.6458417,17.5365854 31.3231707,16.2139144 31.3231707,14.5823171 L31.3231707,6.70426829 C31.3231707,5.07267097 32.6458417,3.75 34.277439,3.75 L42.1554878,3.75 C43.7870851,3.75 45.1097561,5.07267097 45.1097561,6.70426829 L45.1097561,14.5823171 C45.1097561,16.2139144 43.7870851,17.5365854 42.1554878,17.5365854 Z M31.3231707,42.1554878 L31.3231707,34.277439 C31.3231707,32.6458417 32.6458417,31.3231707 34.277439,31.3231707 L42.1554878,31.3231707 C43.7870851,31.3231707 45.1097561,32.6458417 45.1097561,34.277439 L45.1097561,42.1554878 C45.1097561,43.7870851 43.7870851,45.1097561 42.1554878,45.1097561 L34.277439,45.1097561 C32.6458417,45.1097561 31.3231707,43.7870851 31.3231707,42.1554878 Z" id="path" fill="#F96D00"></path>
        </g>
    </g>
</svg>