<?xml version="1.0" encoding="UTF-8"?>
<svg width="50px" height="50px" viewBox="0 0 50 50" version="1.1" xmlns="http://www.w3.org/2000/svg" xmlns:xlink="http://www.w3.org/1999/xlink">
    <!-- Generator: Sketch 52.4 (67378) - http://www.bohemiancoding.com/sketch -->
    <title>技术积累</title>
    <desc>Created with Sketch.</desc>
    <g id="home" stroke="none" stroke-width="1" fill="none" fill-rule="evenodd">
        <g id="Icon_Like">
            <polygon id="Path" points="0 0 50 0 50 50 0 50"></polygon>
            <path d="M14.3657034,19.6276719 C16.9941011,15.8925021 18.6347573,11.6064723 19.2929518,6.75425812 C19.355652,6.29203204 19.6828393,5.90768703 20.1319407,5.76870295 C24.6583648,4.36790371 27.2317593,6.59387458 27.1892357,11.6695656 C27.1809813,12.654821 27.135533,13.5305449 27.0387363,14.8699342 C26.8225273,17.8616473 26.8397018,18.6780597 27.174672,19.2274344 C27.4966695,19.755533 28.5419192,19.935821 31.0140774,19.4664567 C31.7941441,19.3183531 32.5766899,19.1504642 33.4434388,18.9488431 C33.8260398,18.8598433 36.5819235,18.1873875 37.2863731,18.0352808 C38.6301685,17.7451247 39.5943699,17.6223276 40.4421987,17.6743266 C42.7390508,17.815197 43.9579054,19.2940422 44.1685125,22.1273232 C44.539408,27.1169513 43.3933502,37.1392341 42.2500403,40.8308272 C41.0817275,44.6031511 39.0442414,46.0270819 34.1534315,46.1130838 C31.0089607,46.1683773 26.1726787,46.1683773 19.6220333,46.1129424 C17.9498209,46.074052 16.4343883,45.7502402 15.0864054,45.1448332 C15.4647912,44.361345 15.6766917,43.4837747 15.6766917,42.5571429 L15.6766917,23.3571429 C15.6766917,21.9476585 15.1864186,20.6516878 14.3657034,19.6276719 Z" id="Path" fill="#F96D00"></path>
            <path d="M7.20300752,19.7571429 C5.19734185,19.7571429 3.57142857,21.3689178 3.57142857,23.3571429 L3.57142857,42.5571429 C3.57142857,44.545368 5.19734185,46.1571429 7.20300752,46.1571429 L9.62406015,46.1571429 C11.6297258,46.1571429 13.2556391,44.545368 13.2556391,42.5571429 L13.2556391,23.3571429 C13.2556391,21.3689178 11.6297258,19.7571429 9.62406015,19.7571429 L7.20300752,19.7571429 Z" id="Path" fill="#FF7000" opacity="0.3"></path>
        </g>
    </g>
</svg>