<?xml version="1.0" encoding="UTF-8"?>
<svg width="50px" height="50px" viewBox="0 0 50 50" version="1.1" xmlns="http://www.w3.org/2000/svg" xmlns:xlink="http://www.w3.org/1999/xlink">
    <!-- Generator: Sketch 52.4 (67378) - http://www.bohemiancoding.com/sketch -->
    <title>权威认证</title>
    <desc>Created with Sketch.</desc>
    <g id="home" stroke="none" stroke-width="1" fill="none" fill-rule="evenodd">
        <g id="Icon_Rocket">
            <polygon id="Path" points="0 0 50 0 50 50 0 50"></polygon>
            <path d="M43.6808216,7.11917596 C45.0386094,14.4068467 41.9955421,22.13624 35.8830517,26.9717961 L19.6870853,39.7843324 C19.2890972,40.0991785 18.7183848,40.0660082 18.3595516,39.707175 L10.2929008,31.6405243 C9.93406762,31.281691 9.9008973,30.7109786 10.2157434,30.3129905 L23.0282797,14.1170241 C27.8638358,8.00453373 35.5932291,4.96146638 42.8808998,6.31925418 C43.2872306,6.39495888 43.6051169,6.71284522 43.6808216,7.11917596 Z M29.4644661,13.4644661 C27.5118446,15.4170876 27.5118446,18.5829124 29.4644661,20.5355339 C31.4170876,22.4881554 34.5829124,22.4881554 36.5355339,20.5355339 C38.4881554,18.5829124 38.4881554,15.4170876 36.5355339,13.4644661 C34.5829124,11.5118446 31.4170876,11.5118446 29.4644661,13.4644661 Z M35.1213203,19.1213203 C33.9497475,20.2928932 32.0502525,20.2928932 30.8786797,19.1213203 C29.7071068,17.9497475 29.7071068,16.0502525 30.8786797,14.8786797 C32.0502525,13.7071068 33.9497475,13.7071068 35.1213203,14.8786797 C36.2928932,16.0502525 36.2928932,17.9497475 35.1213203,19.1213203 Z" id="Path" fill="#F96D00"></path>
            <path d="M16,40.3135278 L15.1117122,41.2018156 C14.0474663,42.2660615 12.3219828,42.2660615 11.2577369,41.2018156 L8.79818443,38.7422631 C7.73393852,37.6780172 7.73393852,35.9525337 8.79818443,34.8882878 L9.68647221,34 L16,40.3135278 Z M10.7451618,26 L6.45927046,23.1507599 C5.87848291,22.7646551 5.84201976,21.9267789 6.38708162,21.4919534 L14.1248658,15.3445092 C15.7921971,14.0198631 18.0112148,13.6534786 19.9977319,14.3369188 L10.7451618,26 Z M35.634002,30 C36.3621056,32.0258762 35.9920952,34.3033236 34.6290166,35.9968983 L28.4994032,43.6127162 C28.0654195,44.1580628 27.2291653,44.1215806 26.843808,43.5404896 L24,39.2522333 L35.634002,30 Z" id="Path" fill="#FF7000" opacity="0.3"></path>
        </g>
    </g>
</svg>