<?xml version="1.0" encoding="UTF-8"?>
<svg width="50px" height="50px" viewBox="0 0 50 50" version="1.1" xmlns="http://www.w3.org/2000/svg" xmlns:xlink="http://www.w3.org/1999/xlink">
    <!-- Generator: Sketch 52.4 (67378) - http://www.bohemiancoding.com/sketch -->
    <title>灵活部署</title>
    <desc>Created with Sketch.</desc>
    <g id="home" stroke="none" stroke-width="1" fill="none" fill-rule="evenodd">
        <g id="Icon_Opened_File">
            <polygon id="Path" points="0 0 50 0 50 50 0 50"></polygon>
            <path d="M42,34.971377 L42,12 C44.2822403,12.4647147 46,14.488759 46,16.9152585 L46,42.9963185 C46,43.6572913 45.3738314,44.137593 44.7379409,43.9643791 C42.1666503,43.2639701 36.1509726,41.3617494 35.2220776,41.1129782 C33.2674709,40.5895069 31.4068647,40.2681043 29.0908066,40.109031 C32.0388906,38.6901357 35.3306444,37.98073 39,37.98073 C40.6568542,37.98073 42,36.6333968 42,34.971377 Z M8,12 L8,34.971377 C8,36.6333968 9.34314575,37.98073 11,37.98073 C14.7007878,37.98073 17.9984605,38.6902119 20.9274378,40.107782 C18.6029007,40.2664187 16.7376588,40.5881331 14.7779224,41.1129782 C13.8490274,41.3617494 7.83334965,43.2639701 5.26205913,43.9643791 C4.62616865,44.137593 4,43.6572913 4,42.9963185 L4,16.9152585 C4,14.488759 5.71775968,12.4647147 8,12 Z" id="Path" fill="#FF7000" opacity="0.3"></path>
            <path d="M24,39.9971522 C20.2677242,37.6039021 15.9419424,36.4063154 11,36.4063154 C10.4477153,36.4063154 10,35.9525364 10,35.3927716 L10,7.01354385 C10,6.45377904 10.4477153,6 11,6 C15.8754018,6 20.2145696,7.08311958 24,9.25157075 L24,39.9971522 Z M26,9.26177352 C29.8259361,7.08693424 34.164965,6 39,6 C39.5522847,6 40,6.45377904 40,7.01354385 L40,35.3927716 C40,35.9525364 39.5522847,36.4063154 39,36.4063154 C34.0955517,36.4063154 29.7696014,37.6044657 26,40 L26,9.26177352 Z" id="Path" fill="#F96D00"></path>
        </g>
    </g>
</svg>