<?xml version="1.0" encoding="UTF-8"?>
<svg width="90px" height="31px" viewBox="0 0 90 31" version="1.1" xmlns="http://www.w3.org/2000/svg" xmlns:xlink="http://www.w3.org/1999/xlink">
    <!-- Generator: Sketch 52.4 (67378) - http://www.bohemiancoding.com/sketch -->
    <title>logo 底</title>
    <desc>Created with Sketch.</desc>
    <defs>
        <polygon id="path-1" points="5.50458716e-05 0.0838909091 17.9721265 0.0838909091 17.9721265 13.0909091 5.50458716e-05 13.0909091"></polygon>
        <polygon id="path-3" points="0.180990826 0.2514 5.64908257 0.2514 5.64908257 16.3687636 0.180990826 16.3687636"></polygon>
        <polygon id="path-5" points="0 30 89.8692661 30 89.8692661 0 0 0"></polygon>
    </defs>
    <g id="home" stroke="none" stroke-width="1" fill="none" fill-rule="evenodd">
        <g id="Item" transform="translate(0.000000, 0.100505)">
            <g id="Group-64">
                <path d="M5.50458716e-05,16.9929818 L17.2819817,0.115254545 C17.4410642,-0.0399272727 17.6973028,-0.0380181818 17.8541835,0.119618182 C18.0113394,0.277527273 18.0094128,0.531709091 17.8503303,0.686890909 C17.8473028,0.689890909 17.8434495,0.693436364 17.8401468,0.696163636 L5.50458716e-05,16.9929818 Z" id="Fill-1" fill="#FFFFFF"></path>
                <path d="M5.50458716e-05,16.9929818 L22.593633,0.220254545 C22.7728073,0.0871636364 23.0262936,0.123436364 23.1603303,0.300709091 C23.2946422,0.477981818 23.2580367,0.729436364 23.0791376,0.862254545 C23.0766606,0.864163636 23.0725321,0.867163636 23.0697798,0.869072727 L5.50458716e-05,16.9929818 Z" id="Fill-3" fill="#FFFFFF"></path>
                <path d="M5.50458716e-05,16.9929818 L28.4232661,0.197618182 C28.6151009,0.0841636364 28.8639083,0.146345455 28.9784037,0.336709091 C29.0928991,0.527072727 29.0301468,0.773072727 28.8380367,0.886527273 C28.8358349,0.887890909 28.8317064,0.890345455 28.8295046,0.891436364 L5.50458716e-05,16.9929818 Z" id="Fill-5" fill="#FFFFFF"></path>
                <path d="M5.50458716e-05,16.9929818 L31.2523486,2.74516364 C31.4554679,2.65270909 31.6960183,2.74052727 31.7895963,2.9418 C31.8828991,3.14334545 31.794,3.38143636 31.5908807,3.47416364 C31.5886789,3.47498182 31.5845505,3.47689091 31.5823486,3.47770909 L5.50458716e-05,16.9929818 Z" id="Fill-7" fill="#FFFFFF"></path>
                <path d="M5.50458716e-05,16.9929818 L31.397945,15.1048909 C31.6214312,15.0915273 31.8129908,15.2600727 31.8267523,15.4809818 C31.8402385,15.7024364 31.6701468,15.8928 31.447211,15.9061636 C31.4444587,15.9061636 31.4392294,15.9064364 31.4367523,15.9064364 L5.50458716e-05,16.9929818 Z" id="Fill-9" fill="#FFFFFF"></path>
                <path d="M5.50458716e-05,16.9929818 L33.2730826,5.8368 C33.4850092,5.76589091 33.7145505,5.87852727 33.7863853,6.08852727 C33.857945,6.29825455 33.7442752,6.52570909 33.5323486,6.59689091 C33.5301468,6.59770909 33.5260183,6.59907273 33.5235413,6.59961818 L5.50458716e-05,16.9929818 Z" id="Fill-11" fill="#FFFFFF"></path>
                <path d="M5.50458716e-05,16.9929818 L33.511156,9.05061818 C33.7285872,8.99907273 33.9471193,9.13216364 33.9991376,9.34761818 C34.0508807,9.56307273 33.916844,9.77961818 33.6994128,9.83089091 C33.6969358,9.83143636 33.6928073,9.83252727 33.6903303,9.83307273 L5.50458716e-05,16.9929818 Z" id="Fill-13" fill="#FFFFFF"></path>
                <path d="M5.50458716e-05,16.9929818 L32.9084037,12.0683455 C33.1296881,12.0353455 33.3358349,12.1861636 33.3694128,12.4054364 C33.4027156,12.6241636 33.2505138,12.8287091 33.0295046,12.8619818 C33.0267523,12.8622545 33.0223486,12.8628 33.0195963,12.8630727 L5.50458716e-05,16.9929818 Z" id="Fill-15" fill="#FFFFFF"></path>
                <path d="M5.50458716e-05,16.9929818 L28.1271193,18.1387091 C28.3506055,18.1477091 28.5242752,18.3348 28.5151927,18.5557091 C28.5061101,18.7771636 28.317578,18.9492545 28.0940917,18.9402545 C28.090789,18.9402545 28.0855596,18.9397091 28.0825321,18.9397091 L5.50458716e-05,16.9929818 Z" id="Fill-17" fill="#FFFFFF"></path>
                <path d="M5.50458716e-05,16.9929818 L17.7017064,23.0688 C17.9130826,23.1413455 18.0251009,23.3696182 17.9521651,23.5793455 C17.8786789,23.7888 17.6480367,23.8998 17.4369358,23.8269818 C17.4317064,23.8253455 17.4253761,23.8231636 17.420422,23.8209818 L5.50458716e-05,16.9929818 Z" id="Fill-19" fill="#FFFFFF"></path>
                <path d="M5.50458716e-05,16.9929818 L17.5709725,19.9485273 C17.7914312,19.9858909 17.9395046,20.1928909 17.9020734,20.4113455 C17.8649174,20.6298 17.6557431,20.7770727 17.4352844,20.7399818 C17.4297798,20.7388909 17.4226239,20.7375273 17.4173945,20.7361636 L5.50458716e-05,16.9929818 Z" id="Fill-21" fill="#FFFFFF"></path>
                <g id="Group-25" transform="translate(0.000000, 16.909091)">
                    <mask id="mask-2" fill="white">
                        <use xlink:href="#path-1"></use>
                    </mask>
                    <g id="Clip-24"></g>
                    <path d="M5.50458716e-05,0.0838909091 L17.7985872,12.3604364 C17.9818899,12.4872545 18.0273028,12.7370727 17.8995963,12.9189818 C17.7718899,13.1008909 17.5195046,13.1456182 17.3359266,13.0190727 C17.3323486,13.0163455 17.3271193,13.0125273 17.3235413,13.0100727 L5.50458716e-05,0.0838909091 Z" id="Fill-23" fill="#FFFFFF" mask="url(#mask-2)"></path>
                </g>
                <path d="M5.50458716e-05,16.9929818 L17.7526239,25.9888909 C17.9518899,26.0898 18.0306055,26.3317091 17.9290459,26.5291636 C17.8269358,26.7260727 17.5830826,26.8043455 17.3840917,26.7034364 C17.3810642,26.7020727 11.5863853,23.4648 5.50458716e-05,16.9929818" id="Fill-26" fill="#FFFFFF"></path>
                <path d="M59.7982018,15.6296182 C67.7625138,11.3655273 70.1110459,6.82898182 70.2134312,6.62498182 L70.3083853,6.43543636 L70.3083853,3.8208 L64.2673761,3.8208 L62.0559083,1.39407273 L60.7050826,2.60252727 L61.8150826,3.8208 L55.3262752,3.8208 L55.3262752,5.62407273 L68.4882936,5.62407273 L68.4882936,5.98816364 C67.9703119,6.85107273 65.2744404,10.8585273 58.0177431,14.5182545 L57.622789,14.1776182 L54.379211,16.4079818 L55.4168257,17.8897091 L57.5250826,16.4398909 C58.9105872,17.4247091 60.6337982,17.9603455 62.4522385,17.9603455 L70.7710459,17.9603455 L70.7710459,16.1568 L62.4522385,16.1568 C61.5260917,16.1568 60.6181101,15.9683455 59.7982018,15.6296182" id="Fill-28" fill="#FFFFFF"></path>
                <path d="M77.0793303,6.36354545 L77.0793303,5.62418182 L79.0395138,5.62418182 L79.0395138,3.82090909 L77.0793303,3.82090909 L77.0793303,1.88781818 L75.7141927,1.88781818 L75.7141927,3.82090909 L73.6802477,3.82090909 L73.6802477,5.62418182 L74.609422,5.62418182 C74.2816239,11.9770909 73.780156,16.3036364 73.4716239,16.8512727 C73.4735505,16.8474545 73.4760275,16.8444545 73.4782294,16.8411818 L74.6061193,17.6034545 C74.7888716,17.3375455 75.169789,16.7841818 75.639055,10.7972727 C75.6652018,10.461 75.6902477,10.1266364 75.7141927,9.79745455 L75.7141927,18.0051818 L77.0793303,18.0051818 L77.0793303,8.13190909 L77.9963945,17.2058182 L79.3549266,17.0710909 L78.2606147,6.24627273 L77.0793303,6.36354545 Z" id="Fill-30" fill="#FFFFFF"></path>
                <polygon id="Fill-32" fill="#FFFFFF" points="85.6337615 7.50905455 84.2755046 7.64378182 84.8223853 13.0560545 86.1806422 12.9213273"></polygon>
                <path d="M79.4838165,5.71448182 L81.984,5.71448182 C81.8791376,6.66875455 81.6859266,8.21811818 81.3886789,9.88257273 L81.0209725,6.2463 L79.6627156,6.38102727 L80.2098716,11.7933 L81.0226239,11.7128455 C80.7608807,12.8869364 80.4462936,14.0340273 80.0703303,14.9915727 L81.7665688,15.6455727 C83.310055,11.7139364 83.8726239,5.16411818 83.8957431,4.8873 L83.9774862,3.91093636 L79.4838165,3.91093636 L79.4838165,5.71448182 Z" id="Fill-34" fill="#FFFFFF"></path>
                <g id="Group-38" transform="translate(84.220183, 1.636364)">
                    <mask id="mask-4" fill="white">
                        <use xlink:href="#path-3"></use>
                    </mask>
                    <g id="Clip-37"></g>
                    <path d="M5.64924771,2.18449091 L4.60970642,2.18449091 L4.60970642,0.2514 L2.78933945,0.2514 L2.78933945,2.18449091 L0.180990826,2.18449091 L0.180990826,3.98776364 L2.78933945,3.98776364 L2.78933945,14.1198545 C2.78933945,14.3301273 2.50034862,14.5652182 2.11310092,14.5652182 L1.44016514,14.5652182 L1.44016514,16.3687636 L2.11310092,16.3687636 C3.48979817,16.3687636 4.60970642,15.3599455 4.60970642,14.1198545 L4.60970642,3.98776364 L5.64924771,3.98776364 L5.64924771,2.18449091 Z" id="Fill-36" fill="#FFFFFF" mask="url(#mask-4)"></path>
                </g>
                <path d="M44.484,1.58443636 L42.6639083,1.58443636 L42.6639083,8.19425455 L35.4570275,8.19425455 L35.4570275,9.99807273 L39.640789,9.99807273 C39.7310642,10.5631636 40.0902385,14.0753455 35.5866606,16.2478909 L36.3831743,17.8692545 C39.5516147,16.3406182 40.7557431,14.1855273 41.207945,12.6465273 C41.5409725,11.5133455 41.5230826,10.5386182 41.4716147,9.99807273 L45.7665688,9.99807273 L45.7665688,17.9603455 L48.4214312,17.9603455 C50.0717064,17.9603455 51.4142752,16.7619818 51.4142752,15.2895273 L51.4142752,14.3968909 L49.5939083,14.3968909 L49.5939083,15.2895273 C49.5939083,15.7597091 49.0569358,16.1568 48.4214312,16.1568 L47.5863853,16.1568 L47.5863853,9.99807273 L51.691156,9.99807273 L51.691156,8.19425455 L44.484,8.19425455 L44.484,1.58443636 Z" id="Fill-39" fill="#FFFFFF"></path>
                <polygon id="Fill-41" fill="#FFFFFF" points="41.0288532 6.27512727 38.321422 2.76758182 36.8756422 3.86312727 39.5830734 7.37094545"></polygon>
                <polygon id="Fill-43" fill="#FFFFFF" points="49.9837706 3.86318182 48.5379908 2.76736364 45.8305596 6.27518182 47.2763394 7.37072727"></polygon>
                <path d="M24.2521101,25.6930909 C24.2521101,24.9591818 23.6507339,24.3542727 22.9098165,24.3542727 C22.1686239,24.3542727 21.5672477,24.9591818 21.5672477,25.6930909 C21.5672477,26.4272727 22.1686239,27.0321818 22.9098165,27.0321818 C23.6507339,27.0321818 24.2521101,26.4272727 24.2521101,25.6930909 M25.0018349,25.6930909 C25.0018349,26.2459091 24.7838532,26.7643636 24.3831193,27.1617273 C23.9906422,27.5506364 23.4674312,27.7576364 22.9098165,27.7576364 C22.4124771,27.7576364 21.9421101,27.5244545 21.5672477,27.2135455 L21.5672477,29.9345455 L20.8175229,29.9345455 L20.8175229,23.715 L21.5672477,23.715 L21.5672477,24.1729091 C21.9421101,23.8617273 22.4124771,23.6288182 22.9098165,23.6288182 C23.4674312,23.6288182 23.9906422,23.8358182 24.3831193,24.2247273 C24.7838532,24.6220909 25.0018349,25.1405455 25.0018349,25.6930909" id="Fill-45" fill="#FFFFFF"></path>
                <path d="M29.1351468,25.6930909 C29.1351468,24.9591818 28.5334954,24.3714545 27.7923028,24.3714545 C27.0513853,24.3714545 26.4502844,24.9591818 26.4502844,25.6930909 C26.4502844,26.4272727 27.0513853,27.0234545 27.7923028,27.0234545 C28.5334954,27.0234545 29.1351468,26.4272727 29.1351468,25.6930909 M29.8843211,25.6930909 C29.8843211,26.2459091 29.6666147,26.7643636 29.2656055,27.1617273 C28.8731284,27.5506364 28.3501927,27.7663636 27.7923028,27.7663636 C27.2344128,27.7663636 26.7112018,27.5506364 26.3107431,27.1617273 C25.9182661,26.7643636 25.7000092,26.2459091 25.7000092,25.6930909 C25.7000092,25.1405455 25.9182661,24.6220909 26.3107431,24.2247273 C26.7112018,23.8358182 27.2344128,23.6288182 27.7923028,23.6288182 C28.3501927,23.6288182 28.8731284,23.8358182 29.2656055,24.2247273 C29.6666147,24.6220909 29.8843211,25.1405455 29.8843211,25.6930909" id="Fill-47" fill="#FFFFFF"></path>
                <mask id="mask-6" fill="white">
                    <use xlink:href="#path-5"></use>
                </mask>
                <g id="Clip-50"></g>
                <path d="M31.0119511,27.6714545 L31.7724987,27.6714545 L31.7724987,23.715 L31.0119511,23.715 L31.0119511,27.6714545 Z M30.8876147,22.5834545 C30.8876147,22.3156364 31.1089055,22.0996364 31.3922249,22.0996364 C31.6663238,22.0996364 31.8876147,22.3156364 31.8876147,22.5834545 C31.8876147,22.8512727 31.6663238,23.0757273 31.3922249,23.0757273 C31.1089055,23.0757273 30.8876147,22.8512727 30.8876147,22.5834545 Z" id="Fill-49" fill="#FFFFFF" mask="url(#mask-6)"></path>
                <path d="M37.0603486,25.5463364 L37.0603486,27.6714273 L36.3106239,27.6714273 L36.3106239,25.5463364 C36.3106239,24.8983364 35.7874128,24.3629727 35.1334679,24.3629727 C34.4888807,24.3629727 33.9568624,24.8983364 33.9568624,25.5463364 L33.9568624,27.6714273 L33.2071376,27.6714273 L33.2071376,23.7149727 L33.9568624,23.7149727 L33.9568624,24.0951545 C34.2964954,23.8360636 34.7065872,23.6372455 35.1334679,23.6372455 C35.6481468,23.6372455 36.1364037,23.8273364 36.5024587,24.1900636 C36.8599817,24.5527909 37.0603486,25.0281545 37.0603486,25.5463364" id="Fill-51" fill="#FFFFFF" mask="url(#mask-6)"></path>
                <path d="M38.333422,26.3584091 L38.333422,24.4234091 L37.740578,24.4234091 L37.740578,23.7151364 L38.333422,23.7151364 L38.333422,22.1859545 L39.0836972,22.1859545 L39.0836972,23.7151364 L40.3125963,23.7151364 L40.3125963,24.4234091 L39.0836972,24.4234091 L39.0836972,26.3412273 C39.0836972,26.6605909 39.3625046,26.9630455 39.6762661,26.9630455 L40.3475505,26.9630455 L40.5391101,27.6713182 L39.6583761,27.6713182 C38.9262661,27.6713182 38.333422,27.0925909 38.333422,26.3584091" id="Fill-52" fill="#FFFFFF" mask="url(#mask-6)"></path>
                <path d="M44.1225138,26.5051364 C44.1225138,26.7295909 44.0616881,26.9455909 43.9312294,27.1269545 C43.8087523,27.3083182 43.6345321,27.4465909 43.399211,27.5589545 C43.1900367,27.6541364 42.9371009,27.7056818 42.6844404,27.7056818 C42.5451743,27.7056818 42.4141651,27.6887727 42.2746239,27.6625909 C41.8389358,27.5764091 41.4291193,27.3860455 41.0804037,27.0925909 L41.5510459,26.5828636 C42.0134312,26.9717727 42.405633,27.0492273 42.6494862,27.0492273 C42.8154495,27.0492273 42.9717798,27.0148636 43.1113211,26.9543182 C43.2249908,26.9025 43.4253578,26.7729545 43.4253578,26.5051364 C43.4253578,26.2375909 43.1900367,26.0731364 42.6494862,25.9782273 C42.6233394,25.9695 41.9608624,25.8486818 41.7167339,25.7104091 C41.3509541,25.5031364 41.1585688,25.1835 41.1585688,24.7861364 C41.1585688,24.5701364 41.2284771,24.3631364 41.3509541,24.1812273 C41.4640734,24.0260455 41.6209541,23.9052273 41.8474679,23.8013182 C42.0566422,23.7064091 42.2834312,23.6545909 42.536367,23.6545909 C42.6321468,23.6545909 42.7367339,23.6630455 42.8325138,23.6717727 C43.2159083,23.7323182 43.5910459,23.8965 43.9048073,24.1471364 L43.4691193,24.6478636 C43.076367,24.3456818 42.7367339,24.3025909 42.5713211,24.3025909 C42.4141651,24.3025909 42.2660917,24.3285 42.1441651,24.3887727 C41.9696697,24.4752273 41.8562752,24.6306818 41.8562752,24.7861364 C41.8562752,25.0452273 42.0651743,25.1835 42.5971927,25.2955909 C42.6062752,25.2955909 43.3207706,25.4513182 43.5211376,25.5636818 C43.7570092,25.6845 43.8437064,25.7796818 43.9397615,25.9005 C44.0616881,26.0731364 44.1225138,26.2806818 44.1225138,26.5051364" id="Fill-53" fill="#FFFFFF" mask="url(#mask-6)"></path>
                <path d="M47.4279358,26.3584091 L47.4279358,24.4234091 L46.835367,24.4234091 L46.835367,23.7151364 L47.4279358,23.7151364 L47.4279358,22.1859545 L48.1773853,22.1859545 L48.1773853,23.7151364 L49.4065596,23.7151364 L49.4065596,24.4234091 L48.1773853,24.4234091 L48.1773853,26.3412273 C48.1773853,26.6605909 48.4561927,26.9630455 48.7699541,26.9630455 L49.4412385,26.9630455 L49.6333486,27.6713182 L48.7528899,27.6713182 C48.0207798,27.6713182 47.4279358,27.0925909 47.4279358,26.3584091" id="Fill-54" fill="#FFFFFF" mask="url(#mask-6)"></path>
                <path d="M53.0682661,25.2525818 L53.0600092,25.2354 C52.8855138,24.7256727 52.4407431,24.3801273 51.9524862,24.3801273 C51.4727615,24.3801273 51.0285413,24.7256727 50.8452385,25.2354 L50.8367064,25.2525818 L53.0682661,25.2525818 Z M53.852945,25.8744 L50.7756055,25.8744 L50.7756055,25.8918545 C50.8628532,26.5483091 51.3596422,27.0408545 51.9351468,27.0493091 C52.292945,27.0321273 52.6584495,26.8851273 52.9116606,26.6347636 L53.5391835,27.0062182 C53.3823028,27.1788545 53.2078073,27.3258545 53.0071651,27.4466727 C52.702211,27.6280364 52.3276239,27.7232182 51.9524862,27.7404 C51.4295505,27.7404 50.9498257,27.5244 50.6011101,27.1357636 C50.2873486,26.7989455 50.095789,26.3669455 50.0611101,25.8918545 C50.0520275,25.8313091 50.0520275,25.7707636 50.0520275,25.7104909 C50.0520275,25.5547636 50.069367,25.3995818 50.1043211,25.2441273 C50.1827615,24.8814 50.3569817,24.5530364 50.6011101,24.2852182 C50.9498257,23.9053091 51.4380826,23.6893091 51.9524862,23.6893091 C52.4756972,23.6893091 52.9551468,23.9053091 53.3123945,24.2852182 C53.5565229,24.5530364 53.7392752,24.8814 53.8089083,25.2441273 C53.8702844,25.5984 53.8620275,25.7969455 53.852945,25.8744 Z" id="Fill-55" fill="#FFFFFF" mask="url(#mask-6)"></path>
                <path d="M58.3169725,26.9110364 C58.2473394,26.9974909 58.1774312,27.0839455 58.0989908,27.1616727 C57.706789,27.5505818 57.1838532,27.7575818 56.6256881,27.7575818 C56.0677982,27.7575818 55.5363303,27.5505818 55.1441284,27.1616727 C54.7513761,26.7643091 54.5336697,26.2461273 54.5336697,25.6930364 C54.5336697,25.1404909 54.7513761,24.6220364 55.1441284,24.2246727 C55.5363303,23.8360364 56.0677982,23.6287636 56.6256881,23.6287636 C57.1838532,23.6287636 57.706789,23.8360364 58.0989908,24.2246727 C58.1774312,24.3026727 58.2473394,24.3801273 58.3081651,24.4665818 L57.706789,24.9070364 C57.4626606,24.5786727 57.0707339,24.3542182 56.6256881,24.3542182 C55.8850459,24.3542182 55.2833945,24.9591273 55.2833945,25.6930364 C55.2833945,26.4274909 55.8850459,27.0321273 56.6256881,27.0321273 C57.0707339,27.0321273 57.4626606,26.8074 57.706789,26.4705818 L58.3169725,26.9110364 Z" id="Fill-56" fill="#FFFFFF" mask="url(#mask-6)"></path>
                <path d="M62.9816147,25.5463364 L62.9816147,27.6714273 L62.2316147,27.6714273 L62.2316147,25.5463364 C62.2316147,24.8983364 61.7086789,24.3629727 61.0547339,24.3629727 C60.4098716,24.3629727 59.8781284,24.8983364 59.8781284,25.5463364 L59.8781284,27.6714273 L59.1284037,27.6714273 L59.1284037,21.3307909 L59.8781284,21.3307909 L59.8781284,24.0951545 C60.2177615,23.8360636 60.627578,23.6372455 61.0547339,23.6372455 C61.5691376,23.6372455 62.0576697,23.8273364 62.4237248,24.1900636 C62.7809725,24.5527909 62.9816147,25.0281545 62.9816147,25.5463364" id="Fill-57" fill="#FFFFFF" mask="url(#mask-6)"></path>
                <path d="M67.8207248,25.5463364 L67.8207248,27.6714273 L67.071,27.6714273 L67.071,25.5463364 C67.071,24.8983364 66.5480642,24.3629727 65.8943945,24.3629727 C65.2487064,24.3629727 64.7175138,24.8983364 64.7175138,25.5463364 L64.7175138,27.6714273 L63.9675138,27.6714273 L63.9675138,23.7149727 L64.7175138,23.7149727 L64.7175138,24.0951545 C65.057422,23.8360636 65.4669633,23.6372455 65.8943945,23.6372455 C66.4085229,23.6372455 66.8967798,23.8273364 67.2628349,24.1900636 C67.6200826,24.5527909 67.8207248,25.0281545 67.8207248,25.5463364" id="Fill-58" fill="#FFFFFF" mask="url(#mask-6)"></path>
                <path d="M72.0144771,25.6930909 C72.0144771,24.9591818 71.4131009,24.3714545 70.6721835,24.3714545 C69.9312661,24.3714545 69.3293394,24.9591818 69.3293394,25.6930909 C69.3293394,26.4272727 69.9312661,27.0234545 70.6721835,27.0234545 C71.4131009,27.0234545 72.0144771,26.4272727 72.0144771,25.6930909 M72.7647523,25.6930909 C72.7647523,26.2459091 72.5464954,26.7643636 72.1454862,27.1617273 C71.7532844,27.5506364 71.2300734,27.7663636 70.6721835,27.7663636 C70.1145688,27.7663636 69.5913578,27.5506364 69.1897982,27.1617273 C68.7978716,26.7643636 68.5798899,26.2459091 68.5798899,25.6930909 C68.5798899,25.1405455 68.7978716,24.6220909 69.1897982,24.2247273 C69.5913578,23.8358182 70.1145688,23.6288182 70.6721835,23.6288182 C71.2300734,23.6288182 71.7532844,23.8358182 72.1454862,24.2247273 C72.5464954,24.6220909 72.7647523,25.1405455 72.7647523,25.6930909" id="Fill-59" fill="#FFFFFF" mask="url(#mask-6)"></path>
                <polygon id="Fill-60" fill="#FFFFFF" mask="url(#mask-6)" points="73.6808257 27.6714545 74.4302752 27.6714545 74.4302752 21.3308182 73.6808257 21.3308182"></polygon>
                <path d="M78.8505688,25.6930909 C78.8505688,24.9591818 78.2486422,24.3714545 77.5074495,24.3714545 C76.7668073,24.3714545 76.1654312,24.9591818 76.1654312,25.6930909 C76.1654312,26.4272727 76.7668073,27.0234545 77.5074495,27.0234545 C78.2486422,27.0234545 78.8505688,26.4272727 78.8505688,25.6930909 M79.5997431,25.6930909 C79.5997431,26.2459091 79.3820367,26.7643636 78.9810275,27.1617273 C78.5885505,27.5506364 78.0653394,27.7663636 77.5074495,27.7663636 C76.9498349,27.7663636 76.4266239,27.5506364 76.0258899,27.1617273 C75.6336881,26.7643636 75.4154312,26.2459091 75.4154312,25.6930909 C75.4154312,25.1405455 75.6336881,24.6220909 76.0258899,24.2247273 C76.4266239,23.8358182 76.9498349,23.6288182 77.5074495,23.6288182 C78.0653394,23.6288182 78.5885505,23.8358182 78.9810275,24.2247273 C79.3820367,24.6220909 79.5997431,25.1405455 79.5997431,25.6930909" id="Fill-61" fill="#FFFFFF" mask="url(#mask-6)"></path>
                <path d="M83.750422,25.6930909 C83.750422,24.9591818 83.1490459,24.3542727 82.4081284,24.3542727 C81.6669358,24.3542727 81.0655596,24.9591818 81.0655596,25.6930909 C81.0655596,26.4272727 81.6669358,27.0321818 82.4081284,27.0321818 C83.1490459,27.0321818 83.750422,26.4272727 83.750422,25.6930909 Z M84.500422,23.715 L84.500422,27.8612727 C84.500422,28.4143636 84.2821651,28.941 83.8817064,29.3299091 C83.4889541,29.7185455 82.9657431,29.9345455 82.4081284,29.9345455 C81.9897798,29.9345455 81.6061101,29.8224545 81.2832661,29.6320909 C81.1528073,29.5543636 81.0220734,29.4507273 80.9086789,29.3470909 L81.4753761,28.8548182 C81.7280367,29.0533636 82.0852844,29.1916364 82.4081284,29.2090909 C83.1490459,29.2090909 83.750422,28.5957273 83.750422,27.8612727 L83.750422,27.2135455 C83.3755596,27.5244545 82.9051927,27.7576364 82.4081284,27.7576364 C81.8502385,27.7576364 81.3270275,27.5506364 80.9260183,27.1617273 C80.5338165,26.7643636 80.3158349,26.2459091 80.3158349,25.6930909 C80.3158349,25.1405455 80.5338165,24.6220909 80.9260183,24.2247273 C81.3270275,23.8358182 81.8502385,23.6288182 82.4081284,23.6288182 C82.9051927,23.6288182 83.3755596,23.8617273 83.750422,24.1729091 L83.750422,23.715 L84.500422,23.715 Z" id="Fill-62" fill="#FFFFFF" mask="url(#mask-6)"></path>
                <polygon id="Fill-63" fill="#FFFFFF" mask="url(#mask-6)" points="86.7497064 29.9344909 85.939156 29.9344909 86.8721835 27.6714 85.2502569 23.7149455 86.0610826 23.7149455 87.2726422 26.6865818 88.4847523 23.7149455 89.2953028 23.7149455"></polygon>
            </g>
        </g>
    </g>
</svg>