<?xml version="1.0" encoding="UTF-8"?>
<svg width="16px" height="20px" viewBox="0 0 16 20" version="1.1" xmlns="http://www.w3.org/2000/svg" xmlns:xlink="http://www.w3.org/1999/xlink">
    <!-- Generator: Sketch 52.4 (67378) - http://www.bohemiancoding.com/sketch -->
    <title>ditu copy</title>
    <desc>Created with Sketch.</desc>
    <g id="Page-1" stroke="none" stroke-width="1" fill="none" fill-rule="evenodd">
        <path d="M7.99992894,0 C3.58881161,0 0,3.32135329 0,7.40325716 C0,8.75671742 0.399285848,10.0817536 1.16609375,11.2519943 L7.44726019,19.7176377 C7.57136639,19.8944686 7.77871932,20 7.99992894,20 C8.22199128,20 8.42920209,19.8937853 8.55273981,19.7176377 L14.8494329,11.2297196 C15.6019577,10.0785422 16,8.75524839 16,7.40376961 C16,3.32135329 12.4113305,0 7.99992894,0 Z M7.99992894,11.5385246 C5.79081728,11.5385246 4.00003553,9.81643885 4.00003553,7.69231558 C4.00003553,5.56815814 5.79081728,3.84620903 7.99992894,3.84620903 C10.2091827,3.84620903 11.9999645,5.56815814 11.9999645,7.69231558 C11.9999645,9.81643885 10.2091827,11.5385246 7.99992894,11.5385246 Z" id="ditu-copy" fill="#ADB3BE"></path>
    </g>
</svg>