<?xml version="1.0" encoding="UTF-8"?>
<svg width="68px" height="68px" viewBox="0 0 68 68" version="1.1" xmlns="http://www.w3.org/2000/svg" xmlns:xlink="http://www.w3.org/1999/xlink">
    <!-- Generator: Sketch 52.4 (67378) - http://www.bohemiancoding.com/sketch -->
    <title>150+</title>
    <desc>Created with Sketch.</desc>
    <g id="home" stroke="none" stroke-width="1" fill="none" fill-rule="evenodd">
        <g id="Group-5">
            <circle id="Oval-Copy-6" fill="#F96D00" fill-rule="nonzero" cx="34" cy="34" r="34"></circle>
            <path d="M35.5119912,49.4661772 L35.5119912,52.278172 C35.5119912,53.1216139 34.9488128,53.6842105 34.104375,53.6842105 C33.2595249,53.6842105 32.6963465,53.1216139 32.6963465,52.278172 L32.6963465,49.4661772 C24.2504848,48.9036629 17.2122392,43.5610129 14.3969245,35.9684705 L13.5521568,38.4992081 C13.5521568,39.34265 12.7077191,39.6239895 11.862869,39.6239895 C11.0184313,39.34265 10.7368421,38.7804653 10.7368421,37.9366938 L12.1444582,32.5940438 C12.4260474,31.75019 12.9893083,31.4692624 13.833746,31.4692624 L19.1827038,32.875301 C20.0275539,33.1562286 20.3091431,33.7187429 20.3091431,34.5625143 C20.0275539,35.4059562 19.464293,35.6872133 18.6198553,35.6872133 L16.93065,35.124699 C19.464293,41.59246 25.3765117,46.0916681 32.6963465,46.6541824 L32.6963465,36.8119948 L24.2504848,36.8119948 C23.4060471,36.8119948 22.8427862,36.2494805 22.8427862,35.4059562 C22.8427862,34.5625143 23.4060471,34 24.2504848,34 L32.6963465,34 L32.6963465,31.1880052 C28.7550049,30.3442338 25.6581009,26.9700543 25.6581009,22.7517738 C25.6581009,17.9715557 29.3181833,14.3157895 34.104375,14.3157895 C38.8901544,14.3157895 42.5502368,17.9715557 42.5502368,22.7517738 C42.5502368,26.9700543 39.4533328,30.3442338 35.5119912,31.1880052 L35.5119912,34 L43.9578529,34 C44.8023731,34 45.3655515,34.5625143 45.3655515,35.4059562 C45.3655515,36.2494805 44.8023731,36.8119948 43.9578529,36.8119948 L35.5119912,36.8119948 L35.5119912,46.6541824 C42.831826,46.0916681 48.7440447,41.3112029 51.2777702,34.8434419 L49.3068932,35.4059562 C48.4624554,35.6872133 47.899277,35.124699 47.6179353,34.2812571 C47.336346,33.4374857 47.899277,32.875301 48.7440447,32.5940438 L54.0930024,31.1880052 C54.9378525,30.9067481 55.500701,31.4692624 55.7822902,32.3127043 L57.1899064,37.6557662 C57.4714956,38.4992081 56.9083172,39.0617224 56.0638795,39.34265 C55.2194418,39.6239895 54.6561809,39.0617224 54.3745916,38.217951 L53.8114132,35.9684705 C50.9960985,43.5610129 43.9578529,48.9036629 35.5119912,49.4661772 Z M34.104375,28.3760105 C37.2009491,28.3760105 39.734922,25.8450257 39.734922,22.7517738 C39.734922,19.6585219 37.2009491,17.1277842 34.104375,17.1277842 C31.0074711,17.1277842 28.4734157,19.6585219 28.4734157,22.7517738 C28.4734157,25.8450257 31.0074711,28.3760105 34.104375,28.3760105 Z" id="haiguan" fill="#FFFFFF"></path>
        </g>
    </g>
</svg>