<?xml version="1.0" encoding="UTF-8"?>
<svg width="68px" height="68px" viewBox="0 0 68 68" version="1.1" xmlns="http://www.w3.org/2000/svg" xmlns:xlink="http://www.w3.org/1999/xlink">
    <!-- Generator: Sketch 52.4 (67378) - http://www.bohemiancoding.com/sketch -->
    <title>1142</title>
    <desc>Created with Sketch.</desc>
    <g id="home" stroke="none" stroke-width="1" fill="none" fill-rule="evenodd">
        <g id="Group-6-Copy">
            <circle id="Oval-Copy-5" fill="#F96D00" fill-rule="nonzero" cx="34" cy="34" r="34"></circle>
            <path d="M21.9209273,34.2384803 C19.505215,32.2551013 17.8946877,29.4218095 17.8946877,26.0217431 C17.8946877,20.6385467 22.1894009,16.1052632 27.2895351,16.1052632 C32.3894334,16.1052632 36.6841466,20.6385467 36.6841466,26.0217431 C36.6841466,29.4218095 35.0736193,32.2551013 32.657907,34.2384803 C38.0262789,36.5053296 42.0525185,42.1718302 42.0525185,48.6885757 C42.0525185,49.5384056 41.5158858,50.1052632 40.7103862,50.1052632 C39.9052799,50.1052632 39.3683326,49.5384056 39.3683326,48.6885757 C39.3683326,41.6050556 33.9999607,35.938555 27.2895351,35.938555 C20.578795,35.938555 15.2105017,41.6050556 15.2105017,48.6885757 C15.2105017,49.5384056 14.673869,50.1052632 13.8683694,50.1052632 C13.0632631,50.1052632 12.5263158,49.5384056 12.5263158,48.6885757 C12.5263158,42.1718302 16.5525554,36.5053296 21.9209273,34.2384803 Z M40.7103862,18.938555 C39.9052799,18.938555 39.3683326,18.3721124 39.3683326,17.5218676 C39.3683326,16.6720377 39.9052799,16.1052632 40.7103862,16.1052632 C45.8105991,16.1052632 50.1053123,20.6385467 50.1053123,26.0217431 C50.1053123,29.4218095 48.494785,32.2551013 46.0790727,34.2384803 C51.4474446,36.5053296 55.4736842,42.1718302 55.4736842,48.6885757 C55.4736842,49.5384056 54.9370515,50.1052632 54.1315519,50.1052632 C53.3264455,50.1052632 52.7894983,49.5384056 52.7894983,48.6885757 C52.7894983,41.6050556 47.4211264,35.938555 40.7103862,35.938555 C39.9052799,35.938555 39.3683326,35.3716974 39.3683326,34.5218676 C39.3683326,33.6717057 39.9052799,33.1052632 40.7103862,33.1052632 C44.4685454,33.1052632 47.4211264,29.988584 47.4211264,26.0217431 C47.4211264,22.0552341 44.4685454,18.938555 40.7103862,18.938555 Z M27.2895351,33.1052632 C31.0473797,33.1052632 33.9999607,29.988584 33.9999607,26.0217431 C33.9999607,22.0552341 31.0473797,18.938555 27.2895351,18.938555 C23.5314546,18.938555 20.578795,22.0552341 20.578795,26.0217431 C20.578795,29.988584 23.5314546,33.1052632 27.2895351,33.1052632 Z" id="qunzu" fill="#FFFFFF"></path>
        </g>
    </g>
</svg>