<?xml version="1.0" encoding="UTF-8"?>
<svg width="68px" height="68px" viewBox="0 0 68 68" version="1.1" xmlns="http://www.w3.org/2000/svg" xmlns:xlink="http://www.w3.org/1999/xlink">
    <!-- Generator: Sketch 52.4 (67378) - http://www.bohemiancoding.com/sketch -->
    <title>1683</title>
    <desc>Created with Sketch.</desc>
    <g id="home" stroke="none" stroke-width="1" fill="none" fill-rule="evenodd">
        <g id="Group-8">
            <circle id="Oval" fill="#F96D00" fill-rule="nonzero" cx="34" cy="34" r="34"></circle>
            <g id="gongsi" transform="translate(12.526316, 16.105263)" fill="#FFFFFF">
                <path d="M30.819644,26.0996989 L28.1393984,26.0996989 C27.3355682,26.0996989 26.799472,25.5782382 26.799472,24.7957034 C26.799472,24.0134742 27.3355682,23.4917843 28.1393984,23.4917843 L30.819644,23.4917843 C31.6234743,23.4917843 32.159649,24.0134742 32.159649,24.7957034 C32.159649,25.5782382 31.6234743,26.0996989 30.819644,26.0996989 Z M17.419751,10.4522876 L12.0599665,10.4522876 C11.2557437,10.4522876 10.7199615,9.93059775 10.7199615,9.14806292 C10.7199615,8.3657573 11.2557437,7.84406742 12.0599665,7.84406742 L17.419751,7.84406742 C18.2235813,7.84406742 18.759756,8.3657573 18.759756,9.14806292 C18.759756,9.93059775 18.2235813,10.4522876 17.419751,10.4522876 Z M17.419751,18.2759551 L12.0599665,18.2759551 C11.2557437,18.2759551 10.7199615,17.7542652 10.7199615,16.972036 C10.7199615,16.1895011 11.2557437,15.6680404 12.0599665,15.6680404 L17.419751,15.6680404 C18.2235813,15.6680404 18.759756,16.1895011 18.759756,16.972036 C18.759756,17.7542652 18.2235813,18.2759551 17.419751,18.2759551 Z M17.419751,26.0996989 L12.0599665,26.0996989 C11.2557437,26.0996989 10.7199615,25.5782382 10.7199615,24.7957034 C10.7199615,24.0134742 11.2557437,23.4917843 12.0599665,23.4917843 L17.419751,23.4917843 C18.2235813,23.4917843 18.759756,24.0134742 18.759756,24.7957034 C18.759756,25.5782382 18.2235813,26.0996989 17.419751,26.0996989 Z M30.819644,18.2759551 L28.1393984,18.2759551 C27.3355682,18.2759551 26.799472,17.7542652 26.799472,16.972036 C26.799472,16.1895011 27.3355682,15.6680404 28.1393984,15.6680404 L30.819644,15.6680404 C31.6234743,15.6680404 32.159649,16.1895011 32.159649,16.972036 C32.159649,17.7542652 31.6234743,18.2759551 30.819644,18.2759551 Z" id="Fill-1"></path>
                <path d="M24.1195405,31.3157573 L41.5392914,31.3157573 C42.3435143,31.3157573 42.8792964,31.8371416 42.8792964,32.6197528 C42.8792964,33.401982 42.3435143,33.9236719 41.5392914,33.9236719 L1.33992649,33.9236719 C0.536096219,33.9236719 0,33.401982 0,32.6197528 C0,31.8371416 0.536096219,31.3157573 1.33992649,31.3157573 L5.35986298,31.3157573 L5.35986298,6.80099326 C5.35986298,4.4539236 5.62791109,3.41084944 6.16400731,2.6282382 C6.43205542,1.84600899 7.23588569,1.06347416 8.03971596,0.802629213 C8.8439388,0.281244944 9.91581718,0.0204 12.3277006,0.0204 L17.419751,0.0204 C19.8316344,0.0204 20.6357787,0.281244944 21.439609,0.802629213 C22.2438318,1.3243191 23.0476621,1.84600899 23.5837583,2.88915955 C24.1195405,3.93223371 24.1195405,4.4539236 24.1195405,6.80099326 L24.1195405,8.62660225 C24.9236848,8.10491236 25.9956417,7.84406742 28.1393984,7.84406742 L30.819644,7.84406742 C32.9634793,7.84406742 34.0353576,8.10491236 34.839502,8.62660225 C35.6434108,9.14806292 36.4475551,9.66975281 36.9833372,10.712827 C37.5194335,11.4953618 37.7874816,12.5385124 37.7874816,14.6249663 L37.7874816,27.6644629 C37.7874816,28.4469978 37.2513854,28.9684584 36.4475551,28.9684584 C35.6434108,28.9684584 35.1075501,28.4469978 35.1075501,27.6644629 L35.1075501,14.6249663 C35.1075501,13.0602022 35.1075501,12.5385124 34.839502,12.0167461 C34.5714539,11.4953618 34.3034058,11.2345169 34.0353576,11.2345169 C33.4995755,10.9736719 32.9634793,10.9736719 31.3554262,10.9736719 L28.6755732,10.9736719 C27.0675201,10.9736719 26.5317379,10.9736719 25.9956417,11.2345169 C25.4595455,11.4953618 25.1914974,11.7562067 25.1914974,12.0167461 C24.9236848,12.5385124 24.9236848,13.0602022 24.9236848,14.6249663 L24.9236848,31.3157573 L24.1195405,31.3157573 Z M21.439609,31.3157573 L21.439609,6.80099326 C21.439609,4.97530787 21.439609,4.4539236 21.1715609,3.93223371 C20.9035127,3.41084944 20.6357787,3.15000449 20.3677306,3.15000449 C19.5635863,2.6282382 19.0278041,2.6282382 17.1517029,2.6282382 L12.3277006,2.6282382 C10.4519134,2.6282382 9.91581718,2.6282382 9.37972097,2.88915955 C8.8439388,3.15000449 8.5758907,3.41084944 8.30776407,3.93223371 C8.03971596,4.4539236 8.03971596,4.97530787 8.03971596,6.80099326 L8.03971596,31.3157573 L21.439609,31.3157573 Z" id="Fill-2"></path>
            </g>
        </g>
    </g>
</svg>