<?xml version="1.0" encoding="UTF-8"?>
<svg width="50px" height="50px" viewBox="0 0 50 50" version="1.1" xmlns="http://www.w3.org/2000/svg" xmlns:xlink="http://www.w3.org/1999/xlink">
    <!-- Generator: Sketch 52.4 (67378) - http://www.bohemiancoding.com/sketch -->
    <title>四则运算</title>
    <desc>Created with Sketch.</desc>
    <g id="Page-2" stroke="none" stroke-width="1" fill="none" fill-rule="evenodd">
        <g id="v" transform="translate(-50.000000, -57.000000)">
            <g id="Icon_Rocket" transform="translate(50.000000, 57.000000)">
                <polygon id="Path" points="0 0 50 0 50 50 0 50"></polygon>
                <g id="operation" transform="translate(5.000000, 5.000000)">
                    <path d="M15.3996796,18.0409783 L3.2812283,18.0409783 C1.83743658,18.0409783 0.656288385,16.8389674 0.656288385,15.3696739 L0.656288385,3.39336957 C0.656288385,1.92407609 1.83743658,0.722065217 3.2812283,0.722065217 L15.3996796,0.722065217 C16.8433111,0.722065217 18.0246729,1.92407609 18.0246729,3.39336957 L18.0246729,15.3696739 C18.0246729,16.8389674 16.8871028,18.0409783 15.3996796,18.0409783 Z" id="Fill-1" fill="#F96D00"></path>
                    <path d="M14.5683845,8.78038043 L4.11236315,8.78038043 C3.80614152,8.78038043 3.54365821,9.04744565 3.54365821,9.35913043 C3.54365821,9.67076087 3.80614152,9.93804348 4.11236315,9.93804348 L14.5245928,9.93804348 C14.8308144,9.93804348 15.0934579,9.67076087 15.0934579,9.35913043 C15.137036,9.04744565 14.8746061,8.78038043 14.5683845,8.78038043 Z" id="Fill-3" fill="#FFFFFF"></path>
                    <path d="M9.3622964,3.48233696 C9.05602136,3.48233696 8.79359146,3.74940217 8.79359146,4.06103261 L8.79359146,14.6573913 C8.79359146,14.9690217 9.05602136,15.236087 9.3622964,15.236087 C9.66851802,15.236087 9.93094793,14.9690217 9.93094793,14.6573913 L9.93094793,4.06103261 C9.93094793,3.74940217 9.66851802,3.48233696 9.3622964,3.48233696 Z" id="Fill-4" fill="#FFFFFF"></path>
                    <path d="M36.6615754,18.0409783 L24.5431242,18.0409783 C23.0995461,18.0409783 21.9181842,16.8389674 21.9181842,15.3696739 L21.9181842,3.39336957 C21.9181842,1.92407609 23.0995461,0.722065217 24.5431242,0.722065217 L36.6615754,0.722065217 C38.1053672,0.722065217 39.2865688,1.92407609 39.2865688,3.39336957 L39.2865688,15.3696739 C39.2865688,16.8389674 38.1053672,18.0409783 36.6615754,18.0409783 Z" id="Fill-5" fill="#FFD3B2"></path>
                    <path d="M35.830494,8.78038043 L25.3744726,8.78038043 C25.0681976,8.78038043 24.8057677,9.04744565 24.8057677,9.35913043 C24.8057677,9.67076087 25.0681976,9.93804348 25.3744726,9.93804348 L35.7866489,9.93804348 C36.0929239,9.93804348 36.3553538,9.67076087 36.3553538,9.35913043 C36.3991455,9.04744565 36.1367156,8.78038043 35.830494,8.78038043 Z" id="Fill-7" fill="#F96D00"></path>
                    <path d="M15.3996796,39.2778261 L3.2812283,39.2778261 C1.83743658,39.2778261 0.656288385,38.0757609 0.656288385,36.6064674 L0.656288385,24.6302174 C0.656288385,23.1609239 1.83743658,21.958913 3.2812283,21.958913 L15.3996796,21.958913 C16.8433111,21.958913 18.0246729,23.1609239 18.0246729,24.6302174 L18.0246729,36.6064674 C18.0246729,38.0757609 16.8871028,39.2778261 15.3996796,39.2778261 Z" id="Fill-8" fill="#FFD3B2"></path>
                    <path d="M5.6435781,26.2774457 C5.51236315,26.2774457 5.33730307,26.3220109 5.24993324,26.4555435 C5.03108144,26.6782609 5.03108144,27.0788587 5.24993324,27.3015217 L12.6435247,34.8257609 C12.7747397,34.9592935 12.9059546,35.0036413 13.0371696,35.0036413 C13.1683845,35.0036413 13.3433912,34.9592935 13.431028,34.8257609 C13.6496662,34.6030435 13.6496662,34.2024457 13.431028,33.9797283 L6.08101469,26.4555435 C5.94979973,26.3220109 5.81858478,26.2774457 5.6435781,26.2774457 Z" id="Fill-10" fill="#F96D00"></path>
                    <path d="M13.0371696,26.2774457 C12.9059546,26.2774457 12.7309479,26.3220109 12.6435247,26.4555435 L5.24993324,33.9797283 C5.03108144,34.2024457 5.03108144,34.6030435 5.24993324,34.8257609 C5.3811482,34.9592935 5.51236315,35.0036413 5.6435781,35.0036413 C5.77479306,35.0036413 5.94979973,34.9592935 6.03743658,34.8257609 L13.431028,27.3015217 C13.6496662,27.0788587 13.6496662,26.6782609 13.431028,26.4555435 C13.3433912,26.3220109 13.1683845,26.2774457 13.0371696,26.2774457 Z" id="Fill-11" fill="#F96D00"></path>
                    <path d="M36.6615754,39.2778261 L24.5431242,39.2778261 C23.0995461,39.2778261 21.9181842,38.0757609 21.9181842,36.6064674 L21.9181842,24.6302174 C21.9181842,23.1609239 23.0995461,21.958913 24.5431242,21.958913 L36.6615754,21.958913 C38.1053672,21.958913 39.2865688,23.1609239 39.2865688,24.6302174 L39.2865688,36.6064674 C39.2865688,38.0757609 38.1053672,39.2778261 36.6615754,39.2778261 Z" id="Fill-12" fill="#F96D00"></path>
                    <path d="M36.1367156,30.0172283 L25.724486,30.0172283 C25.4182644,30.0172283 25.1556208,30.2845109 25.1556208,30.5961413 C25.1556208,30.9078261 25.4182644,31.1748913 25.724486,31.1748913 L36.1367156,31.1748913 C36.4429907,31.1748913 36.7054206,30.9078261 36.7054206,30.5961413 C36.7054206,30.2845109 36.4865688,30.0172283 36.1367156,30.0172283 Z" id="Fill-14" fill="#FFFFFF"></path>
                    <path d="M29.9680641,27.924837 C29.9680641,28.4657609 30.3990921,28.9041848 30.9306275,28.9041848 C31.4621629,28.9041848 31.8929239,28.4657609 31.8929239,27.924837 C31.8929239,27.383913 31.4621629,26.9453261 30.9306275,26.9453261 C30.3990921,26.9453261 29.9680641,27.383913 29.9680641,27.924837 Z" id="Fill-15" fill="#FFFFFF"></path>
                    <path d="M29.8804806,33.0447826 C29.8804806,33.5857065 30.3114553,34.0243478 30.8429907,34.0243478 C31.374526,34.0243478 31.8055541,33.5857065 31.8055541,33.0447826 C31.8055541,32.5038587 31.374526,32.0652717 30.8429907,32.0652717 C30.3114553,32.0652717 29.8804806,32.5038587 29.8804806,33.0447826 Z" id="Fill-16" fill="#FFFFFF"></path>
                </g>
            </g>
        </g>
    </g>
</svg>