<?xml version="1.0" encoding="UTF-8"?>
<svg width="50px" height="50px" viewBox="0 0 50 50" version="1.1" xmlns="http://www.w3.org/2000/svg" xmlns:xlink="http://www.w3.org/1999/xlink">
    <!-- Generator: Sketch 52.4 (67378) - http://www.bohemiancoding.com/sketch -->
    <title>联合查询</title>
    <desc>Created with Sketch.</desc>
    <defs>
        <polygon id="path-1" points="0.00346820809 0.0462427746 39.9536994 0.0462427746 39.9536994 39.9999422 0.00346820809 39.9999422"></polygon>
    </defs>
    <g id="Page-2" stroke="none" stroke-width="1" fill="none" fill-rule="evenodd">
        <g id="v" transform="translate(-126.000000, -57.000000)">
            <g id="Group-19" transform="translate(126.000000, 57.000000)">
                <polygon id="path" points="0 0 50 0 50 50 0 50"></polygon>
                <g id="kechengchaxun" transform="translate(5.000000, 5.000000)">
                    <mask id="mask-2" fill="white">
                        <use xlink:href="#path-1"></use>
                    </mask>
                    <g id="Clip-2"></g>
                    <path d="M1.53653179,35.3898844 L15.3667052,35.3898844 C16.2161272,35.3898844 16.9034682,36.0772254 16.9034682,36.9264162 C16.9034682,37.7761272 16.2161272,38.4631792 15.3667052,38.4631792 L1.53653179,38.4631792 C0.68734104,38.4631792 0,37.7761272 0,36.9264162 C0,36.0772254 0.68734104,35.3898844 1.53653179,35.3898844 Z M24.5868208,12.3396532 L38.4169364,12.3396532 C39.2664162,12.3396532 39.9536994,13.0269364 39.9536994,13.8764162 C39.9536994,14.7258382 39.2664162,15.412948 38.4169364,15.412948 L24.5868208,15.412948 C23.7375723,15.412948 23.050289,14.7256069 23.050289,13.8764162 C23.050289,13.0269364 23.737341,12.3396532 24.5868208,12.3396532 Z M1.53653179,24.633237 L15.3667052,24.633237 C16.2161272,24.633237 16.9034682,25.3203468 16.9034682,26.1697688 C16.9034682,27.0192486 16.2161272,27.7065318 15.3667052,27.7065318 L1.53653179,27.7065318 C0.68734104,27.7065318 0,27.0192486 0,26.1697688 C0,25.320578 0.68734104,24.633237 1.53653179,24.633237 Z M24.5868208,3.11953757 L38.4169364,3.11953757 C39.2664162,3.11953757 39.9536994,3.80687861 39.9536994,4.65630058 C39.9536994,5.50572254 39.2664162,6.19283237 38.4169364,6.19283237 L24.5868208,6.19283237 C23.7375723,6.19283237 23.050289,5.50549133 23.050289,4.65630058 C23.050289,3.80687861 23.737341,3.11953757 24.5868208,3.11953757 Z" id="Fill-1" fill="#FFD3B2" mask="url(#mask-2)"></path>
                    <path d="M29.1968208,23.0965318 L33.8071098,23.0965318 C37.2015029,23.0965318 39.9536994,25.8487283 39.9536994,29.2432948 L39.9536994,33.8533526 C39.9536994,37.2477457 37.2015029,39.9999422 33.8071098,39.9999422 L29.1968208,39.9999422 C25.8024855,39.9999422 23.050289,37.2477457 23.050289,33.8533526 L23.050289,29.2432948 C23.050289,25.8487283 25.8024855,23.0965318 29.1968208,23.0965318 Z" id="Path" fill="#F96D00" mask="url(#mask-2)"></path>
                    <path d="M6.1465896,0.0462427746 L10.7568786,0.0462427746 C14.1512139,0.0462427746 16.9034682,2.79843931 16.9034682,6.19283237 L16.9034682,10.8028902 C16.9034682,14.1974566 14.1512139,16.949711 10.7568786,16.949711 L6.1465896,16.949711 C2.75219653,16.949711 0,14.1974566 0,10.8028902 L0,6.19283237 C0,2.79843931 2.75219653,0.0462427746 6.1465896,0.0462427746 Z" id="Path" fill="#F96D00" mask="url(#mask-2)"></path>
                    <path d="M7.27266012,4 L9.72733988,4 C11.5346032,4 13,5.46536607 13,7.27266012 L13,9.72721677 C13,11.5346032 11.5346032,13 9.72733988,13 L7.27266012,13 C5.46536607,13 4,11.5346032 4,9.72721677 L4,7.27266012 C4,5.46536607 5.46536607,4 7.27266012,4 Z" id="Path" stroke="#FFFFFF" fill="#F96D00" mask="url(#mask-2)"></path>
                    <rect id="Rectangle" fill="#F96D00" fill-rule="nonzero" mask="url(#mask-2)" transform="translate(17.121320, 16.414214) rotate(-315.000000) translate(-17.121320, -16.414214) " x="13.6213203" y="14.9142136" width="7" height="3" rx="1"></rect>
                </g>
            </g>
        </g>
    </g>
</svg>