<?xml version="1.0" encoding="UTF-8"?>
<svg width="50px" height="50px" viewBox="0 0 50 50" version="1.1" xmlns="http://www.w3.org/2000/svg" xmlns:xlink="http://www.w3.org/1999/xlink">
    <!-- Generator: Sketch 52.4 (67378) - http://www.bohemiancoding.com/sketch -->
    <title>隐私集合求交</title>
    <desc>Created with Sketch.</desc>
    <defs>
        <polygon id="path-1" points="0.00251046025 0.0331707317 39.9638275 0.0331707317 39.9638275 33.9999585 0.00251046025 33.9999585"></polygon>
    </defs>
    <g id="Page-2" stroke="none" stroke-width="1" fill="none" fill-rule="evenodd">
        <g id="v" transform="translate(-202.000000, -57.000000)">
            <g id="Icon_Opened_File" transform="translate(202.000000, 57.000000)">
                <g id="Group-16">
                    <polygon id="Path" points="0 0 50 0 50 50 0 50"></polygon>
                    <g id="jihe" transform="translate(5.000000, 8.000000)">
                        <g id="Group-3">
                            <mask id="mask-2" fill="white">
                                <use xlink:href="#path-1"></use>
                            </mask>
                            <g id="Clip-2"></g>
                            <path d="M38.9964854,6.36620976 C38.3507113,5.69728049 37.4578243,5.31780732 36.5237657,5.31540244 L27.3692469,5.31540244 C26.6871967,2.27331463 23.9914226,0.0900170732 20.8472803,0.0331707317 L3.4392887,0.0331707317 C1.53535565,0.0485536585 0,1.58236829 0,3.46945122 L0,30.5591585 C0.009958159,32.4426756 1.53878661,33.9720951 3.4392887,33.9999585 L36.5237657,33.9999585 C38.4284937,33.9821707 39.9630544,32.4468634 39.9630544,30.5591585 L39.9630544,8.78875122 C39.9825105,7.88530488 39.6340586,7.01212683 38.9964854,6.36620976 Z" id="Path" fill="#FFD3B2" mask="url(#mask-2)"></path>
                            <path d="M35.9964854,6.36620976 C35.3507113,5.69728049 34.4578243,5.31780732 33.5237657,5.31540244 L26.3692469,5.31540244 L-6.75015599e-14,5.31540244 L3.70946361e-16,30.5591585 C0.009958159,32.4426756 1.53878661,33.9720951 3.4392887,33.9999585 L33.5237657,33.9999585 C35.4284937,33.9821707 36.9630544,32.4468634 36.9630544,30.5591585 L36.9630544,8.78875122 C36.9825105,7.88530488 36.6340586,7.01212683 35.9964854,6.36620976 Z" id="Path" fill="#F96D00" mask="url(#mask-2)"></path>
                        </g>
                        <path d="M11.5456485,23.3519878 C11.8202092,23.6310366 11.9048954,24.0433902 11.7625105,24.4066927 C11.6201674,24.7699951 11.2767782,25.0174488 10.8840167,25.039839 C10.6514644,25.0391756 10.427364,24.9530146 10.255272,24.7980244 L4.85941423,20.1482756 C4.64970711,19.970439 4.52958159,19.7102976 4.53087866,19.4367634 C4.53221757,19.1599537 4.65150628,18.8964122 4.85941423,18.7114854 L10.0207113,14.3173171 C10.4183682,14.1414293 10.8848536,14.236961 11.1797071,14.5544463 C11.4712552,14.8743366 11.5206276,15.3444902 11.3016318,15.717039 L6.98953975,19.385722 L11.5456485,23.3519878 Z M29.5635983,18.7485537 L29.5869456,18.7301024 C29.8128452,18.924939 29.9384937,19.21 29.9295397,19.5065463 C29.9297071,19.7807854 29.8077406,20.0410512 29.5964435,20.2179341 L24.2051464,24.8678073 C24.0291213,25.0158317 23.8071548,25.099422 23.5764017,25.1049366 C23.2987029,25.1076732 23.0341004,24.9884659 22.8538075,24.7793659 C22.5295397,24.377378 22.5681172,23.7967244 22.942887,23.440222 L27.4989958,19.4739976 L23.1540586,15.8053146 C22.7510042,15.4636976 22.7037657,14.8631415 23.0484937,14.4638902 C23.3931799,14.0644732 23.999205,14.017661 24.4020921,14.359278 L29.5635983,18.7485537 Z M11.8975314,19.385722 C11.8975314,19.0384659 12.0843515,18.7174561 12.3878661,18.5438488 C12.6913389,18.3702 13.0651464,18.3702 13.3686611,18.5438488 C13.6720084,18.7174561 13.8589958,19.0384659 13.8588285,19.385722 C13.8589958,19.7328122 13.6720084,20.0538634 13.3686611,20.2274707 C13.0651464,20.4011195 12.6913389,20.4011195 12.3878661,20.2274707 C12.0843515,20.0538634 11.8975314,19.7328122 11.8975314,19.385722 Z M16.1533891,19.385722 C16.1532218,19.0384659 16.3401674,18.7174561 16.643682,18.5438488 C16.9470293,18.3702 17.3210042,18.3702 17.6243515,18.5438488 C17.9278661,18.7174561 18.1146862,19.0384659 18.1146862,19.385722 C18.1146862,19.7328122 17.9278661,20.0538634 17.6243515,20.2274707 C17.3210042,20.4011195 16.9470293,20.4011195 16.643682,20.2274707 C16.3401674,20.0538634 16.1532218,19.7328122 16.1533891,19.385722 Z M20.4090795,19.385722 C20.4090795,19.0384659 20.5960251,18.7174561 20.8993724,18.5438488 C21.202887,18.3702 21.5766946,18.3702 21.8802092,18.5438488 C22.1835565,18.7174561 22.3705021,19.0384659 22.3705021,19.385722 C22.3705021,19.7328122 22.1835565,20.0538634 21.8802092,20.2274707 C21.5766946,20.4011195 21.202887,20.4011195 20.8993724,20.2274707 C20.5960251,20.0538634 20.4090795,19.7328122 20.4090795,19.385722 Z" id="Combined-Shape" fill="#FFFFFF"></path>
                    </g>
                </g>
            </g>
        </g>
    </g>
</svg>