<?xml version="1.0" encoding="UTF-8"?>
<svg width="50px" height="50px" viewBox="0 0 50 50" version="1.1" xmlns="http://www.w3.org/2000/svg" xmlns:xlink="http://www.w3.org/1999/xlink">
    <!-- Generator: Sketch 52.4 (67378) - http://www.bohemiancoding.com/sketch -->
    <title>匿踪查询</title>
    <desc>Created with Sketch.</desc>
    <g id="Page-2" stroke="none" stroke-width="1" fill="none" fill-rule="evenodd">
        <g id="v" transform="translate(-278.000000, -57.000000)">
            <g id="Group-21" transform="translate(278.000000, 57.000000)">
                <polygon id="Path" points="0 0 50 0 50 50 0 50"></polygon>
                <g id="xtrace" transform="translate(6.000000, 2.000000)">
                    <path d="M29.3848283,23.895924 C30.1882761,25.2729649 31.6804991,26.1913509 33.4024035,26.1913509 C35.9276885,26.1913509 37.9936779,24.1252515 37.9936779,21.6001608 C37.9936779,19.0753392 35.9276885,17.0091725 33.4024035,17.0091725 C30.8771186,17.0091725 28.8110619,19.0753392 28.8110619,21.6001608 C28.8110619,21.9445556 28.8110619,22.2889503 28.9256,22.633345 L25.8265487,24.1252515 C25.0231681,22.7481433 23.4160708,21.8297573 21.6942336,21.6001608 L21.6942336,23.7811257 L20.4315575,23.7811257 L20.4315575,21.6001608 C18.7099894,21.8297573 17.2176991,22.7481433 16.4143186,24.0104532 L13.0853841,22.4037485 L12.5115504,23.5515292 L15.8402832,25.1584357 C15.6106018,25.8469561 15.4957947,26.4209474 15.4957947,27.1095351 C15.4957947,27.7980556 15.6106018,28.3720468 15.8402832,29.0605673 L13.4298053,30.208348 L12.5115504,30.6675409 L13.0853841,31.8152544 L16.4143186,30.208348 C16.7584708,30.7823392 17.2176991,31.2415322 17.7917345,31.7004561 C18.595115,32.2745146 19.5133699,32.6186404 20.4315575,32.7334386 L20.4315575,31.0119357 L21.6942336,31.0119357 L21.6942336,32.8482368 C22.8420354,32.7334386 23.9898372,32.1597164 24.9083611,31.3563304 C25.2525133,31.0119357 25.5969345,30.6675409 25.8265487,30.208348 L28.5814478,31.5856579 L29.0404071,31.8152544 C28.9256,32.1597164 28.9256,32.3893129 28.9256,32.7334386 C28.9256,34.2255468 30.1882761,35.4881257 31.6804991,35.4881257 C33.1727894,35.4881257 34.4353982,34.2255468 34.4353982,32.7334386 C34.4353982,31.2415322 33.0579823,29.8642222 31.450885,29.8642222 C30.6475044,29.8642222 29.9588637,30.208348 29.4996354,30.6675409 L26.1709699,29.0605673 C26.285777,28.945769 26.285777,28.7164415 26.285777,28.486845 C26.4005841,28.027652 26.5151221,27.6835263 26.5151221,27.2243333 C26.5151221,26.7651404 26.4005841,26.3061491 26.285777,25.8469561 C26.285777,25.7321579 26.1709699,25.5025614 26.1709699,25.3877632 L29.3848283,23.895924 Z" id="Fill-1" fill="#FFD3B2"></path>
                    <path d="M20.3167504,12.647848 L20.3167504,20.3375819 L21.5794265,20.3375819 L21.5794265,12.647848 C24.6787469,12.3034532 27.0891575,9.66356433 27.0891575,6.33515497 C27.0891575,2.89188012 24.2194513,0.0223947368 20.7759788,0.0223947368 C17.3325062,0.0223947368 14.4628,2.89188012 14.4628,6.33515497 C14.5776071,9.66356433 17.102892,12.3034532 20.3167504,12.647848 Z M8.60884956,21.9445556 L11.2489416,23.3218655 L11.822708,22.174152 L9.06807788,20.6820439 C9.18288496,20.3375819 9.18288496,19.9934561 9.18288496,19.6490614 C9.18288496,17.1239708 7.11655929,15.0581404 4.59134159,15.0581404 C2.06605664,15.0581404 0,17.1239708 0,19.6490614 C0,22.174152 2.06605664,24.2400497 4.59134159,24.2400497 C6.31317876,24.2400497 7.80546903,23.3218655 8.60884956,21.9445556 Z M11.3637487,31.3563304 L7.57585487,33.1926316 C7.11655929,32.6186404 6.31317876,32.2745146 5.50979823,32.2745146 C4.01750796,32.2745146 2.75489912,33.5370263 2.75489912,35.0291345 C2.75489912,36.5210409 4.01750796,37.7836199 5.50979823,37.7836199 C7.00175221,37.7836199 8.26442832,36.5210409 8.26442832,35.0291345 L8.26442832,34.4551433 L12.0523221,32.5041111 L11.3637487,31.3563304 Z M21.5794265,38.7020058 L21.5794265,34.5699415 L20.3167504,34.5699415 L20.3167504,38.7020058 C18.595115,38.9313333 17.2176991,40.4234415 17.2176991,42.2600117 C17.2176991,44.2111111 18.8247965,45.9328158 20.8907858,45.9328158 C22.8420354,45.9328158 24.5639398,44.3259094 24.5639398,42.2600117 C24.4491327,40.5382398 23.1864566,39.0461316 21.5794265,38.7020058 Z" id="Fill-2" fill="#F96D00"></path>
                </g>
            </g>
        </g>
    </g>
</svg>