<?xml version="1.0" encoding="UTF-8"?>
<svg width="46px" height="47px" viewBox="0 0 46 47" version="1.1" xmlns="http://www.w3.org/2000/svg" xmlns:xlink="http://www.w3.org/1999/xlink">
    <!-- Generator: Sketch 52.4 (67378) - http://www.bohemiancoding.com/sketch -->
    <title>采用多种密码学协议</title>
    <desc>Created with Sketch.</desc>
    <defs>
        <path d="M36.710517,6.06087215 C25.8157802,-4.47148445 16.5358141,0.318496873 14.9210434,8.34264932 C13.3062726,16.3668018 -1.69398829,17.9689504 0.158087172,27.4466616 C2.01016264,36.9243727 22.1842013,31.2969817 22.1842013,39.8861574 C22.1842013,48.4753331 45.5094882,48.1791546 45.5094882,36.9243727 C45.5094882,25.6695907 47.6052539,16.5932288 36.710517,6.06087215 Z" id="path-1"></path>
    </defs>
    <g id="Page-2" stroke="none" stroke-width="1" fill="none" fill-rule="evenodd">
        <g id="v" transform="translate(-52.000000, -130.000000)">
            <g id="Group-Copy-4" transform="translate(52.000000, 130.000000)">
                <g id="Group-Copy">
                    <g id="Icon" transform="translate(0.000000, 0.894737)">
                        <g id="bgicon">
                            <mask id="mask-2" fill="white">
                                <use xlink:href="#path-1"></use>
                            </mask>
                            <use fill-opacity="0.2" fill="#FFFFFF" xlink:href="#path-1"></use>
                            <g id="Color/Blue" opacity="0.2" mask="url(#mask-2)" fill="#F96D00">
                                <rect id="Rectangle" x="0" y="0" width="46" height="46"></rect>
                            </g>
                        </g>
                    </g>
                </g>
                <g id="jiankongfangyu-copy" transform="translate(6.000000, 4.000000)">
                    <path d="M31.4418251,17.3389767 C31.4418251,13.5467256 29.9917912,9.98164186 27.3534805,7.30176744 C24.7152292,4.62195349 21.2162394,3.14176744 17.4893039,3.14176744 C13.7624278,3.14176744 10.2588031,4.61723721 7.62512733,7.30176744 C4.99151104,9.98635814 3.53684211,13.5467256 3.53684211,17.3389767 C3.53684211,21.1312884 4.98687606,24.6963721 7.62512733,27.376186 C8.8563073,28.6289628 10.2778183,29.6207116 11.8228098,30.3172698 L8.68035654,37.4424791 C8.52835314,37.7858605 8.55687606,38.1824512 8.76134975,38.4968093 C8.96101019,38.8114093 9.30316638,38.9999395 9.67408319,38.9999395 L9.67871817,38.9999395 L24.8433447,38.9614233 C25.0192954,38.9614233 25.1857385,38.9080326 25.3282343,38.8258605 C25.7941087,38.6033488 26.0035144,38.0374558 25.7894737,37.5537349 L22.685348,30.5203721 C24.4155603,29.8142 26.0035144,28.7548512 27.3629881,27.3712279 C29.9917912,24.6963721 31.4418251,21.1312884 31.4418251,17.3389767 Z M23.4647963,37.0359721 L10.9242784,37.0650558 L13.6054924,30.9847442 C14.8510526,31.3475349 16.1534805,31.5409628 17.4844312,31.5409628 C18.6350934,31.5409628 19.7664431,31.4006837 20.8550679,31.1250233 L23.4647963,37.0359721 Z M17.4893039,29.6060791 C10.8434635,29.6060791 5.43837012,24.1013953 5.43837012,17.3389767 C5.43837012,10.5765581 10.8434635,5.07665116 17.4893039,5.07665116 C24.1351443,5.07665116 29.5402971,10.5765581 29.5402971,17.3389767 C29.5402971,24.1013953 24.1351443,29.6060791 17.4893039,29.6060791 Z" id="Fill-3" fill="#212B34"></path>
                    <path d="M6.61725806,5.14443256 C6.72659593,5.14443256 6.84080645,5.10567442 6.93112903,5.02350233 C7.16394737,4.82033953 7.40163837,4.61723721 7.64420204,4.42356744 C7.8533107,4.25916279 7.88652801,3.95447907 7.72959253,3.7464186 C7.56802207,3.5335814 7.26859083,3.4997814 7.06411715,3.65922791 C6.80741087,3.86257209 6.55551783,4.0754093 6.30831919,4.29296279 C6.10871817,4.46722326 6.08964346,4.77668372 6.26072156,4.97506977 C6.35104414,5.09128372 6.48426995,5.14443256 6.61725806,5.14443256 Z" id="Path" fill="#212B34"></path>
                    <path d="M4.34017827,7.12273023 C4.43050085,7.19528837 4.53514431,7.22926977 4.63960951,7.22926977 C4.77747029,7.22926977 4.91539049,7.16620465 5.01052632,7.05023256 C5.20555178,6.80837209 5.4051528,6.56651163 5.61426146,6.33904186 C5.79021222,6.14089767 5.77583192,5.83597209 5.58110357,5.65717674 C5.38613752,5.47813953 5.08670628,5.49253023 4.91075552,5.69097674 C4.6920798,5.93779535 4.47803905,6.18933023 4.27380306,6.4455814 C4.10735993,6.65370233 4.13594228,6.95838605 4.34017827,7.12273023 Z" id="Path" fill="#212B34"></path>
                    <path d="M11.4662733,2.1502 C11.5233786,2.1502 11.5802462,2.14052558 11.6373514,2.1162186 C11.9226401,2.00496279 12.2125637,1.89866512 12.5073005,1.8018 C12.7591935,1.71962791 12.8924194,1.44396744 12.8116638,1.19243256 C12.7306112,0.940897674 12.4597623,0.800618605 12.2125637,0.882790698 C11.9035654,0.984372093 11.5946265,1.09562791 11.2949576,1.21655814 C11.0526316,1.31336279 10.9291511,1.5939814 11.0241087,1.84527442 C11.0953565,2.03398605 11.27618,2.1502 11.4662733,2.1502 Z" id="Path" fill="#212B34"></path>
                    <path d="M17.0425042,1.00372093 C17.1898727,0.998762791 17.3419355,0.998762791 17.4893039,0.998762791 C17.6462394,0.998762791 17.8078098,0.998762791 17.9646859,1.00372093 L17.9788879,1.00372093 C18.2355942,1.00372093 18.4447029,0.795660465 18.4542699,0.534390698 C18.4637776,0.268465116 18.2546095,0.0459534884 17.9932683,0.0362790698 C17.8268251,0.0313209302 17.655747,0.0266046512 17.4893039,0.0266046512 C17.3324278,0.0266046512 17.1708574,0.0266046512 17.0139219,0.0313209302 C16.7525806,0.0409953488 16.5431749,0.263748837 16.5527419,0.529674419 C16.5576146,0.800618605 16.7762309,1.01339535 17.0425042,1.00372093 Z" id="Path" fill="#212B34"></path>
                    <path d="M19.8044737,1.16812558 C20.1085399,1.21184186 20.4129032,1.26493023 20.7123345,1.32781395 C20.7457301,1.33277209 20.7743124,1.33748837 20.8074703,1.33748837 C21.0310187,1.33748837 21.225747,1.1778 21.2733447,0.950572093 C21.3255772,0.689362791 21.1591341,0.432869767 20.9026655,0.37972093 C20.5839219,0.311939535 20.2608404,0.258790698 19.9375212,0.21035814 C19.6761205,0.1716 19.4384295,0.355595349 19.4003396,0.621581395 C19.362309,0.887506977 19.5428947,1.12936744 19.8044737,1.16812558 Z" id="Path" fill="#212B34"></path>
                    <path d="M14.1948472,1.33277209 C14.2282428,1.33277209 14.2568251,1.32781395 14.289983,1.32303721 C14.5894737,1.25997209 14.8984126,1.20688372 15.1980815,1.1634093 C15.4594228,1.12465116 15.6400085,0.882790698 15.6019779,0.616865116 C15.5641256,0.350637209 15.3264346,0.166883721 15.0648557,0.20564186 C14.7414771,0.254074419 14.4183956,0.307223256 14.0998896,0.375004651 C13.8431834,0.428153488 13.6767402,0.684404651 13.7289728,0.945613953 C13.7765705,1.17308372 13.9761715,1.33277209 14.1948472,1.33277209 Z" id="Path" fill="#212B34"></path>
                    <path d="M8.91341256,3.43671628 C8.99904075,3.43671628 9.08449066,3.41265116 9.16061121,3.3642186 C9.42201188,3.2045907 9.69309847,3.04514419 9.96400679,2.89990698 C10.1970628,2.7742 10.2824533,2.48396744 10.1589728,2.24682326 C10.0352547,2.00992093 9.74996604,1.92273023 9.51714771,2.0486186 C9.23185908,2.20334884 8.94662988,2.36775349 8.66621392,2.54207442 C8.44266553,2.68235349 8.37141766,2.97736279 8.50464346,3.2045907 C8.59960102,3.34982791 8.75647708,3.43671628 8.91341256,3.43671628 Z" id="Path" fill="#212B34"></path>
                    <path d="M27.3629881,4.44787442 C27.6053735,4.64130233 27.8430645,4.83974884 28.0760611,5.04756744 C28.1663837,5.12973953 28.2757216,5.16849767 28.3899321,5.16849767 C28.5229202,5.16849767 28.6512733,5.1103907 28.7464686,5.00409302 C28.9175467,4.8009907 28.898472,4.49630698 28.7035059,4.32198605 C28.46118,4.10443256 28.2044737,3.89165581 27.952343,3.68831163 C27.7432343,3.52390698 27.4486757,3.56260465 27.2868676,3.77072558 C27.1157895,3.98350233 27.1538795,4.28322791 27.3629881,4.44787442 Z" id="Path" fill="#212B34"></path>
                    <path d="M25.0431834,2.91453953 C25.3140917,3.05953488 25.585,3.21922326 25.8465789,3.37885116 C25.9224618,3.42704186 26.0081494,3.4514093 26.0937776,3.4514093 C26.255348,3.4514093 26.4122241,3.36917674 26.4979117,3.21922326 C26.6355348,2.99175349 26.5642869,2.69178605 26.3409762,2.55646512 C26.0652547,2.38238605 25.779966,2.21773953 25.4900424,2.06306977 C25.2569864,1.93742326 24.9716978,2.02431163 24.8482173,2.26145581 C24.7244992,2.49364186 24.8101868,2.78865116 25.0431834,2.91453953 Z" id="Path" fill="#212B34"></path>
                    <path d="M3.78404075,7.91113488 C3.56073005,7.76613953 3.27056876,7.83392093 3.12807301,8.06114884 C2.95212224,8.34176744 2.78567912,8.62704186 2.62874363,8.91733488 C2.50039049,9.14952093 2.5813837,9.44477209 2.81420204,9.57537674 C2.88550934,9.61885116 2.96650255,9.6382 3.04725806,9.6382 C3.2134635,9.6382 3.37527165,9.55106977 3.46066214,9.3913814 C3.60808998,9.12043721 3.76983871,8.84979535 3.93604414,8.58362791 C4.06926995,8.35144186 4.00752971,8.05147442 3.78404075,7.91113488 Z" id="Path" fill="#212B34"></path>
                    <path d="M22.495017,1.80675814 C22.7851188,1.9033814 23.0796774,2.00992093 23.364966,2.12589302 C23.4220713,2.1502 23.4791766,2.15987442 23.5409168,2.15987442 C23.7310102,2.15987442 23.9115959,2.04366047 23.9831409,1.85494884 C24.078039,1.60837209 23.9591935,1.32781395 23.7168676,1.22623256 C23.4125637,1.10530233 23.1036248,0.994046512 22.7946859,0.887506977 C22.5474278,0.805334884 22.2763413,0.940897674 22.1955857,1.19714884 C22.1098981,1.45370233 22.2477589,1.72434419 22.495017,1.80675814 Z" id="Path" fill="#212B34"></path>
                    <path d="M29.9917912,7.07931628 C30.086927,7.19528837 30.2248472,7.25835349 30.362708,7.25835349 C30.4671732,7.25835349 30.5718166,7.22431163 30.6621392,7.15181395 C30.8666129,6.98245116 30.8998302,6.67776744 30.7333871,6.46970698 C30.5291511,6.21339535 30.3151104,5.95690233 30.0964346,5.71504186 C29.9205433,5.51689767 29.6210526,5.50226512 29.4260866,5.68130233 C29.2313582,5.86027907 29.2169779,6.16502326 29.3929287,6.3634093 C29.5971647,6.59559535 29.7970034,6.83745581 29.9917912,7.07931628 Z" id="Path" fill="#212B34"></path>
                    <path d="M32.3687012,8.94164186 C32.2117657,8.6514093 32.0455603,8.36607442 31.8696095,8.08545581 C31.7271138,7.85804651 31.4369525,7.79020465 31.2136418,7.93550233 C30.9901528,8.08049767 30.9234805,8.37550698 31.0662733,8.60297674 C31.2327165,8.86890233 31.3893548,9.13984651 31.5367827,9.41073023 C31.6224109,9.5704186 31.7839813,9.65754884 31.9504244,9.65754884 C32.026545,9.65754884 32.1073005,9.6382 32.1786078,9.59448372 C32.4116044,9.46883721 32.4970543,9.17382791 32.3687012,8.94164186 Z" id="Path" fill="#212B34"></path>
                    <path d="M2.60996604,11.1812093 C2.62410866,11.1474698 2.63825127,11.1087116 2.652691,11.0747302 C2.7524618,10.8281535 2.63825127,10.5428186 2.3959253,10.4409953 C2.15336163,10.3394744 1.87300509,10.4556279 1.77317487,10.7022651 C1.75415959,10.7459209 1.73508489,10.7941116 1.72094228,10.8378279 C1.38805603,10.8959349 1.09325976,11.1281209 0.974414261,11.4715023 C0.328013582,13.3529953 0,15.3266372 0,17.3389767 C0,19.0658 0.242325976,20.7781721 0.722580645,22.4180465 C0.846061121,22.8389442 1.22167233,23.1098884 1.63531409,23.1098884 C1.72557725,23.1098884 1.81589983,23.0952558 1.90616299,23.0711302 C2.41012733,22.9211767 2.69535654,22.3793488 2.54798812,21.8665442 C2.12020374,20.405707 1.90152801,18.8820465 1.90152801,17.3389767 C1.90152801,15.5444326 2.19145161,13.788586 2.76666384,12.1099535 C2.88550934,11.7809023 2.80956706,11.4328047 2.60996604,11.1812093 Z" id="Path" fill="#212B34"></path>
                    <path d="M34.0039559,11.4762186 C33.8851104,11.1281209 33.5905518,10.8959349 33.257725,10.8425442 C33.2435229,10.8087442 33.2291426,10.7700465 33.215,10.7362465 C33.1151698,10.4894279 32.8345756,10.3734558 32.5921902,10.4750372 C32.3496265,10.5765581 32.2356537,10.861893 32.3354839,11.1087116 C32.3449915,11.1377953 32.3544992,11.1618605 32.3687012,11.1909442 C32.1690407,11.4424791 32.0929202,11.7906372 32.2071307,12.1196279 C32.782343,13.7933023 33.0722666,15.554107 33.0722666,17.3486512 C33.0722666,18.8917209 32.8535908,20.4153814 32.4258065,21.8762186 C32.2783786,22.3890233 32.5636672,22.925893 33.0675722,23.0808047 C33.1578947,23.1098884 33.2482173,23.1195628 33.3384805,23.1195628 C33.7474873,23.1195628 34.127674,22.8486186 34.2511545,22.4277209 C34.7314092,20.7831302 34.9737946,19.0754744 34.9737946,17.3486512 C34.9786672,15.3315953 34.6506537,13.3579535 34.0039559,11.4762186 Z" id="Path" fill="#212B34"></path>
                    <path d="M17.4893039,7.30176744 C12.0461205,7.30176744 7.62025467,11.8052698 7.62025467,17.343693 C7.62025467,22.8824186 12.0461205,27.3858605 17.4893039,27.3858605 C22.9325467,27.3858605 27.3581154,22.8824186 27.3581154,17.343693 C27.3581154,11.8052698 22.9325467,7.30176744 17.4893039,7.30176744 Z M17.4893039,26.4134605 C12.5739728,26.4134605 8.57101868,22.3455488 8.57101868,17.3389767 C8.57101868,12.3374233 12.5691002,8.26425116 17.4893039,8.26425116 C22.4046944,8.26425116 26.4073514,12.3324651 26.4073514,17.3389767 C26.4073514,22.3455488 22.4046944,26.4134605 17.4893039,26.4134605 Z" id="Fill-4" fill="#F96D00"></path>
                    <path d="M21.4539304,18.0839674 L21.1544992,18.7126837 L20.0182767,15.3363116 C19.9706791,15.1863581 19.8281834,15.0897349 19.6761205,15.0897349 L19.6712479,15.0897349 C19.5143124,15.0944512 19.3813243,15.1960326 19.3337267,15.3509442 L17.4036757,21.7650233 L16.5385399,10.4556279 C16.5241596,10.2718744 16.3816638,10.1266372 16.2010781,10.1169628 C16.034635,10.0878791 15.8586842,10.2331767 15.8254669,10.412214 L14.2092275,18.7851814 L13.4817742,17.4405581 C13.4341766,17.3534279 13.3487861,17.2858279 13.2535908,17.2615209 C13.1586333,17.2374558 13.0539898,17.2568047 12.9683022,17.3099535 L11.2332173,18.4804977 L10.9242784,18.3983256 C10.7293124,18.3402186 10.5345246,18.4611488 10.4820543,18.6595349 C10.4298812,18.8529628 10.5440323,19.0561256 10.73882,19.1095163 L11.2,19.2351628 C11.3044652,19.264186 11.4045331,19.2448372 11.4899236,19.1867302 L13.0397878,18.1420744 L14.0569864,20.0188512 C14.128472,20.1541721 14.2756027,20.2266698 14.4279032,20.2026047 C14.5752716,20.1784791 14.6941171,20.0622651 14.7273345,19.9123116 L16.03,13.1742 L16.8379711,23.7433209 C16.8524109,23.9176419 16.985399,24.0579209 17.1564771,24.0820465 C17.1708574,24.0870047 17.185,24.0870047 17.1945076,24.0870047 C17.3514431,24.0870047 17.4939389,23.9804651 17.5369015,23.8257953 L19.6951358,16.6471953 L20.7647453,19.8010558 C20.8121053,19.9413349 20.9358234,20.0382 21.0832513,20.0478744 C21.225747,20.0525907 21.3636672,19.9704186 21.4254075,19.839814 L21.9959253,18.6208372 L24.4536503,18.7467256 C24.6627589,18.775507 24.8196944,18.6014279 24.829202,18.3983256 C24.8387097,18.1951628 24.6866469,18.0258605 24.4868081,18.016186 L21.7914516,17.8758465 C21.6535314,17.8711302 21.5156706,17.9533023 21.4539304,18.0839674 Z" id="Fill-5" fill="#F96D00"></path>
                </g>
            </g>
        </g>
    </g>
</svg>