<?xml version="1.0" encoding="UTF-8"?>
<svg width="46px" height="47px" viewBox="0 0 46 47" version="1.1" xmlns="http://www.w3.org/2000/svg" xmlns:xlink="http://www.w3.org/1999/xlink">
    <!-- Generator: Sketch 52.4 (67378) - http://www.bohemiancoding.com/sketch -->
    <title>可证明安全性</title>
    <desc>Created with Sketch.</desc>
    <defs>
        <path d="M36.710517,6.06087215 C25.8157802,-4.47148445 16.5358141,0.318496873 14.9210434,8.34264932 C13.3062726,16.3668018 -1.69398829,17.9689504 0.158087172,27.4466616 C2.01016264,36.9243727 22.1842013,31.2969817 22.1842013,39.8861574 C22.1842013,48.4753331 45.5094882,48.1791546 45.5094882,36.9243727 C45.5094882,25.6695907 47.6052539,16.5932288 36.710517,6.06087215 Z" id="path-1"></path>
    </defs>
    <g id="Page-2" stroke="none" stroke-width="1" fill="none" fill-rule="evenodd">
        <g id="v" transform="translate(-125.000000, -130.000000)">
            <g id="Group-Copy-3" transform="translate(125.000000, 130.000000)">
                <g id="Icon" transform="translate(0.000000, 0.894737)">
                    <g id="bgicon">
                        <mask id="mask-2" fill="white">
                            <use xlink:href="#path-1"></use>
                        </mask>
                        <use fill-opacity="0.2" fill="#FFFFFF" xlink:href="#path-1"></use>
                        <g id="Color/Blue" opacity="0.2" mask="url(#mask-2)" fill="#F96D00">
                            <rect id="Rectangle" x="0" y="0" width="46" height="46"></rect>
                        </g>
                    </g>
                </g>
                <g id="anquanwending" transform="translate(1.815789, 5.217949)">
                    <g id="Group-7">
                        <path d="M26.6299142,17.6499284 L28.8846236,12.9811272 L25.6774797,12.9811272 L23.4228338,17.6499284 L26.6299142,17.6499284 Z M16.6691555,12.9811272 L14.4146995,17.6499284 L17.6218433,17.6499284 L19.8762993,12.9811272 L16.6691555,12.9811272 Z M24.3804614,12.9811272 L21.1733176,12.9811272 L18.9188616,17.6499284 L22.1257521,17.6499284 L24.3804614,12.9811272 Z M10.4427075,12.9811272 L10.4427075,17.6499284 L13.1176811,17.6499284 L15.3723271,12.9811272 L10.4427075,12.9811272 Z M32.7148808,17.6499284 L32.7148808,12.9811272 L30.1816419,12.9811272 L27.9269959,17.6499284 L32.7148808,17.6499284 Z" id="Fill-2" fill="#F96D00"></path>
                        <path d="M21.5787625,34.1229298 C17.5053143,32.4198451 14.5564975,29.6643837 12.6009004,26.9043954 C11.5420699,26.5617597 10.5235812,26.1947156 9.55088073,25.8178836 C9.96126544,26.5617597 10.4223783,27.3056358 10.9339659,28.0201484 C12.7426351,30.5600325 15.9853709,34.0202187 21.1582448,36.0707107 C21.2950397,36.1244826 21.4367744,36.1538462 21.5787625,36.1538462 C21.7205605,36.1538462 21.8622953,36.1292542 21.9990902,36.0754822 C25.7636099,34.5779422 28.5046377,32.3414812 30.4146999,30.2517766 C29.5686614,30.2125641 28.6971005,30.1490043 27.8104669,30.0658688 C26.1333994,31.6513771 24.0662765,33.0853573 21.5787625,34.1229298 Z M40.4360664,20.2192373 C40.0612737,19.8961773 39.6306231,19.5682845 39.1442412,19.2452245 C38.1561514,18.5749408 36.9553328,17.9044123 35.5823806,17.258537 L35.5823806,7.11820903 C35.5823806,6.52102824 35.0858658,6.03665235 34.4780151,6.03665235 C31.2100736,6.02209293 28.2817127,5.17519979 25.768803,3.52111545 C23.8181457,2.2388468 22.7691948,0.883475205 22.4906652,0.496855395 C22.2828762,0.207930496 21.9434222,0.0318104907 21.5787625,0.0318104907 C21.2188526,0.0318104907 20.8744587,0.203158922 20.6666698,0.491839125 C20.3881402,0.878458935 19.3342495,2.23407523 17.3835922,3.51634388 C14.8656793,5.17042822 11.9321887,6.01707666 8.66944025,6.03163608 C8.06133624,6.03665235 7.56482141,6.52102824 7.56482141,7.11343746 L7.56482141,11.6450866 C6.9364515,11.6842379 6.34373692,11.7380099 5.78636103,11.8114187 C4.53506766,11.9729181 3.47110731,12.2176142 2.6047396,12.5406742 C1.13552435,13.0936874 0.279289592,13.866927 0.0564278971,14.840695 C-0.156617497,15.7707237 0.238757769,16.7691449 1.22159114,17.8162606 L1.22653096,17.8212768 C1.2468602,17.8408525 1.2621863,17.8604282 1.28245221,17.8800651 C2.1994847,18.8294247 3.58757297,19.7984212 5.41156833,20.7624014 C5.53303713,20.8262059 5.65969908,20.8945373 5.78636103,20.9580971 C6.46545905,21.3058102 7.19496853,21.6482012 7.95994336,21.976094 C8.18280505,22.7885461 8.49699001,23.6351946 8.8871088,24.4916309 C9.78906852,24.8684628 10.741503,25.2307354 11.7394725,25.5782038 C11.2026792,24.6775387 10.7667721,23.7916777 10.4325112,22.9598946 C13.2342101,23.9924509 16.4056986,24.9026591 19.7446975,25.6171105 C23.4938278,26.4197748 27.1620844,26.909167 30.4399056,27.0609397 C29.928318,27.7706195 29.355616,28.4753443 28.7121733,29.1604321 C29.578541,29.2290082 30.4248328,29.2777639 31.2404724,29.3023559 C31.6051322,28.8569478 31.9294501,28.4263439 32.218366,28.0201484 C32.4311581,27.7216803 32.6337538,27.418196 32.8314098,27.1099401 C33.5354602,27.1049239 34.2093651,27.085287 34.8629408,27.0413641 C36.5602742,26.9338201 37.9990906,26.7036835 39.149181,26.356215 C39.4025049,26.2778511 39.640756,26.1997319 39.8636177,26.1115189 C40.3044646,25.9402317 40.6893903,25.7444748 41.0137082,25.533975 C40.8465144,25.2598542 40.6337224,24.9955825 40.4007277,24.7461148 C40.0662135,24.9614474 39.6456959,25.1523715 39.149181,25.3186425 C38.0498187,25.6907029 36.5704071,25.9500195 34.7971399,26.0625797 C34.356293,26.0919433 33.9003733,26.1115189 33.4291275,26.1213068 C34.7870069,23.7331342 35.5875738,21.2713693 35.5875738,19.362801 L35.5875738,18.3498204 C37.0060609,19.0447573 38.2118193,19.7592086 39.149181,20.4591618 C39.372106,20.6254939 39.5749552,20.7869934 39.767418,20.9533255 C40.5931905,21.6630665 41.5305523,22.7054106 41.3177602,23.6449824 C41.2821682,23.7916777 41.2215605,23.9288911 41.135177,24.0657985 C41.393694,24.3350866 41.6114259,24.6041911 41.7838762,24.8684628 C42.047333,24.560207 42.2194666,24.2225264 42.3055967,23.8554822 C42.5589206,22.7297579 41.930804,21.5062775 40.4360664,20.2192373 Z M5.8979502,19.8961773 C5.86254819,19.8765404 5.82201636,19.8569647 5.78636103,19.8376337 C4.06901503,18.9224092 2.76680356,17.9926253 1.96129691,17.1311727 C1.95635709,17.1311727 1.95635709,17.136189 1.95116395,17.136189 C1.63203918,16.8228557 1.42418692,16.48022 1.34825309,16.3480841 C1.06453033,15.873496 0.952941153,15.4378758 1.04420109,15.0464233 C1.28739202,13.9747156 3.02012745,13.1720513 5.78636103,12.7952193 C6.3387971,12.7218105 6.93151168,12.6630223 7.56482141,12.6238709 L7.56482141,19.3675726 C7.56482141,19.808209 7.61035638,20.2827971 7.69148336,20.7772055 C7.06311345,20.4882806 6.46026591,20.19489 5.8979502,19.8961773 Z M33.5609826,19.3675726 C33.5609826,20.9191292 32.7754886,23.473634 31.0886048,26.1065027 C27.7244001,25.9939425 23.8940795,25.4997787 19.9675592,24.657963 C16.3552238,23.8849069 12.9454842,22.8865469 10.0068004,21.746202 C9.72820746,20.8262059 9.59141256,20.0087375 9.59141256,19.3675726 L9.59141256,7.96987375 C12.9098922,7.80831316 15.9091838,6.85895353 18.5287428,5.13623194 C19.9321572,4.21599115 20.9402596,3.24222309 21.5837656,2.53254328 C22.2222685,3.24222309 23.2303709,4.21121958 24.6288455,5.13623194 C27.2429581,6.85895353 30.2422496,7.80831316 33.5609826,7.96987375 L33.5609826,19.3675726 Z" id="Fill-4" fill="#212B34"></path>
                        <path d="M7.54949532,14.8359235 C5.51796436,14.9582715 3.85109315,15.2617558 2.6047396,15.7315723 C2.11835772,15.9127086 1.69784006,16.1229637 1.34825309,16.3531004 C1.50018409,16.6075843 1.70797302,16.8668398 1.96129691,17.1409606 C3.03545354,16.4558115 4.97591456,15.9908278 7.54949532,15.8244956 L7.54949532,14.8359235 Z" id="Fill-5" fill="#F96D00"></path>
                        <path d="M1.34305995,16.3480841 C1.41924711,16.48022 1.63203918,16.8228557 1.94616081,17.136189 C1.95116395,17.136189 1.95116395,17.1311727 1.95635709,17.1311727 C1.70797302,16.8620682 1.50018409,16.602568 1.34305995,16.3480841 C1.34825309,16.3480841 1.34825309,16.3480841 1.34305995,16.3480841 Z M41.778683,24.8684628 C41.6015463,24.6041911 41.3835611,24.3350866 41.1302372,24.0657985 C40.9224483,23.850466 40.6945834,23.630423 40.4360664,23.4100742 C39.2810361,22.4167304 37.5938357,21.3937173 35.5217729,20.4199492 C35.5014436,20.5520851 35.4101837,21.1392334 35.3493226,21.4329298 C37.2138498,22.3285175 38.7236602,23.253591 39.7622248,24.1441624 C39.9749536,24.3252987 40.1928755,24.5307822 40.3955346,24.7461148 C40.6285292,24.9908109 40.8415746,25.2598542 41.0085151,25.533975 C41.2670321,25.9598074 41.4088301,26.409987 41.3125671,26.8358193 C41.0187114,28.1130717 38.5816722,29.0185084 34.7971399,29.2584329 C33.6925844,29.3267643 32.4969589,29.3415684 31.2404724,29.3023559 C30.4248328,29.2777639 29.578541,29.2290082 28.7121733,29.1604321 C25.9662056,28.9401445 22.997313,28.4996915 19.9675592,27.8487999 C17.0442015,27.2224392 14.2576387,26.4491995 11.7446656,25.5731876 C10.7465062,25.2257191 9.79400834,24.8636913 8.89230194,24.4868593 C7.81814531,24.0363738 6.81498269,23.5666185 5.90289002,23.0870142 C2.5742774,21.3301575 0.760478326,19.5145126 1.04939423,18.2373214 C1.08479624,18.0903202 1.1456573,17.9483965 1.2317241,17.8162606 L1.22653096,17.811489 C1.18099599,17.7675049 0.892333412,17.4835963 0.578148454,17.0138409 C0.314691606,17.3220968 0.14249469,17.6597163 0.0564278971,18.0267604 C-0.161557313,18.9761812 0.25383054,19.9988885 1.28739202,21.0658857 C2.20448785,22.0152453 3.59276611,22.9842418 5.41650814,23.9484667 C6.65272874,24.5994195 8.04601015,25.2307354 9.56101369,25.8178836 C10.5287743,26.1947156 11.5470097,26.5569882 12.6110334,26.9043954 C14.8402203,27.6286958 17.2467973,28.2746323 19.7496373,28.8079474 C22.5260672,29.4001119 25.2569621,29.8259443 27.8154067,30.0658688 C28.7072335,30.1490043 29.578541,30.2125641 30.4196397,30.2517766 C31.1645386,30.2859729 31.8839151,30.3055486 32.5830257,30.3055486 C33.3734596,30.3055486 34.1383711,30.2811402 34.8629408,30.2372172 C36.9350669,30.1050813 38.6173275,29.791748 39.8636177,29.3071886 C41.2670321,28.7592529 42.0878648,28.0005115 42.3055967,27.0511519 C42.4626575,26.356215 42.2853308,25.6268983 41.778683,24.8684628 Z" id="Fill-6" fill="#F96D00"></path>
                    </g>
                    <path d="M1.25438056,17.8450756 C1.25438056,17.8450756 1.24541056,17.8450756 1.24541056,17.8361341 C1.24541056,17.8361341 1.25438056,17.8361341 1.25438056,17.8450756 Z" id="Fill-8" fill="#06F3FF"></path>
                </g>
            </g>
        </g>
    </g>
</svg>