<?xml version="1.0" encoding="UTF-8"?>
<svg width="46px" height="48px" viewBox="0 0 46 48" version="1.1" xmlns="http://www.w3.org/2000/svg" xmlns:xlink="http://www.w3.org/1999/xlink">
    <!-- Generator: Sketch 52.4 (67378) - http://www.bohemiancoding.com/sketch -->
    <title>自主可控，兼容性强</title>
    <desc>Created with Sketch.</desc>
    <defs>
        <path d="M36.710517,6.19292581 C25.8157802,-4.5689087 16.5358141,0.32543625 14.9210434,8.52441811 C13.3062726,16.7234 -1.69398829,18.3604561 0.158087172,28.0446666 C2.01016264,37.7288771 22.1842013,31.9788771 22.1842013,40.7551929 C22.1842013,49.5315087 45.5094882,49.2288771 45.5094882,37.7288771 C45.5094882,26.2288771 47.6052539,16.9547603 36.710517,6.19292581 Z" id="path-1"></path>
    </defs>
    <g id="Page-2" stroke="none" stroke-width="1" fill="none" fill-rule="evenodd">
        <g id="v" transform="translate(-280.000000, -130.000000)">
            <g id="Group-2-Copy" transform="translate(280.000000, 130.000000)">
                <g id="Group-11-Copy">
                    <g id="Icon" transform="translate(0.000000, 0.894737)">
                        <g id="bgicon">
                            <mask id="mask-2" fill="white">
                                <use xlink:href="#path-1"></use>
                            </mask>
                            <use fill-opacity="0.2" fill="#FFFFFF" xlink:href="#path-1"></use>
                            <g id="Color/Blue" opacity="0.2" mask="url(#mask-2)" fill="#F96D00">
                                <rect id="Rectangle" x="0" y="0" width="46" height="47.2105263"></rect>
                            </g>
                        </g>
                    </g>
                </g>
                <g id="jiemiancaokong-copy" transform="translate(3.000000, 8.000000)">
                    <path d="M21.7578246,31 L6.89486717,31 C6.40126065,31 6,31.3948847 6,31.880421 C6,32.3659573 6.40126065,32.7608421 6.89486717,32.7608421 L21.7578246,32.7608421 C22.2511429,32.7608421 22.6524035,32.3659573 22.6524035,31.880421 C22.6524035,31.390233 22.2511429,31 21.7578246,31 Z" id="Fill-1" fill="#212B34"></path>
                    <path d="M33.6596642,3.7031575 L5.16030075,3.7031575 C4.4223985,3.7031575 3.81823058,4.29766861 3.81823058,5.02384577 L3.81823058,21.2073117 C3.81823058,21.933262 4.4223985,22.5278298 5.16030075,22.5278298 L33.6596642,22.5278298 C34.3973358,22.5278298 35.0014461,21.933262 35.0014461,21.2073117 L35.0014461,5.02384577 C35.0014461,4.29766861 34.3973358,3.7031575 33.6596642,3.7031575 Z" id="Path" stroke="#F96D00" stroke-width="0.958333333" opacity="0.528761202"></path>
                    <path d="M9.52747619,5.1645316 C9.52747619,5.09186283 9.58736842,5.03734707 9.65654135,5.03734707 L12.4833509,5.03734707 C12.557193,5.03734707 12.612589,5.09651454 12.612589,5.1645316 L12.612589,5.95872583 C12.612589,6.03145133 12.5526967,6.08574018 12.4833509,6.08574018 L9.65654135,6.08574018 C9.5826416,6.08574018 9.52747619,6.02679962 9.52747619,5.95872583 L9.52747619,5.1645316 Z M8.13006767,5.00569276 C8.43448622,5.00569276 8.6788396,5.24633361 8.6788396,5.54568811 C8.6788396,5.84526951 8.43448622,6.08574018 8.13006767,6.08574018 C7.8258797,6.08574018 7.58135338,5.84526951 7.58135338,5.54568811 C7.58135338,5.24633361 7.83037594,5.00569276 8.13006767,5.00569276 Z M6.33162907,5.00569276 C6.63604762,5.00569276 6.88034336,5.24633361 6.88034336,5.54568811 C6.88034336,5.84526951 6.63604762,6.08574018 6.33162907,6.08574018 C6.02721053,6.08574018 5.78285714,5.84526951 5.78285714,5.54568811 C5.78285714,5.24633361 6.02721053,5.00569276 6.33162907,5.00569276 Z M17.274787,13.2516412 C17.274787,16.32869 14.7292231,18.8338056 11.6026642,18.8338056 C8.47593233,18.8338056 5.93036842,16.32869 5.93036842,13.2516412 C5.93036842,10.1748193 8.47593233,7.66970384 11.6026642,7.66970384 L12.0498672,7.66970384 L12.0498672,12.8115442 L17.274787,12.8115442 L17.274787,13.2516412 Z M13.1199148,11.4952807 L13.1199148,7.19766883 C15.5316867,7.19766883 17.4868596,9.12177453 17.4868596,11.4952807 L13.1199148,11.4952807 Z M30.3484712,18.2527957 L23.8601654,18.2527957 C23.6111429,18.2527957 23.4127318,18.0578211 23.4127318,17.8126987 C23.4127318,17.567633 23.6111429,17.3724314 23.8601654,17.3724314 L30.3484712,17.3724314 C30.5975514,17.3724314 30.7956742,17.567633 30.7956742,17.8126987 C30.7956742,18.0531694 30.5975514,18.2527957 30.3484712,18.2527957 Z M30.3484712,14.9262565 L23.6340852,14.9262565 C23.3850627,14.9262565 23.1866516,14.7312251 23.1866516,14.4861594 C23.1866516,14.2410371 23.3850627,14.0458355 23.6340852,14.0458355 L30.3484712,14.0458355 C30.5975514,14.0458355 30.7956742,14.2410371 30.7956742,14.4861594 C30.7956742,14.7312251 30.5975514,14.9262565 30.3484712,14.9262565 Z M30.3484712,11.5952357 L20.6827644,11.5952357 C20.4336842,11.5952357 20.2353308,11.3999774 20.2353308,11.1549118 C20.2353308,10.910073 20.4336842,10.7148147 20.6827644,10.7148147 L30.3530251,10.7148147 C30.6020476,10.7148147 30.800401,10.910073 30.800401,11.1549118 C30.800401,11.3999774 30.5975514,11.5952357 30.3484712,11.5952357 Z M30.3484712,8.26863974 L20.6827644,8.26863974 C20.4336842,8.26863974 20.2353308,8.07366506 20.2353308,7.82854268 C20.2353308,7.58347704 20.4336842,7.38827544 20.6827644,7.38827544 L30.3530251,7.38827544 C30.6020476,7.38827544 30.800401,7.58347704 30.800401,7.82854268 C30.800401,8.07366506 30.5975514,8.26863974 30.3484712,8.26863974 Z" id="Fill-4"></path>
                    <path d="M11.1552882,8.57270268 C8.7296817,8.79513379 6.82494737,10.810118 6.82494737,13.2516412 C6.82494737,15.8429835 8.96953885,17.9534412 11.6026642,17.9534412 C14.083609,17.9534412 16.1311278,16.0789727 16.357208,13.6919652 L11.1552882,13.6919652 L11.1552882,8.57270268 Z" id="Fill-5" fill="#FFC699"></path>
                    <path d="M12.0498672,7.66970384 L11.6026642,7.66970384 C8.47593233,7.66970384 5.93036842,10.1748193 5.93036842,13.2516412 C5.93036842,16.32869 8.47593233,18.8338056 11.6026642,18.8338056 C14.7292231,18.8338056 17.274787,16.32869 17.274787,13.2516412 L17.274787,12.8115442 L12.0498672,12.8115442 L12.0498672,7.66970384 Z M16.357208,13.69639 C16.1311278,16.0836244 14.083609,17.957866 11.6026642,17.957866 C8.96953885,17.957866 6.82494737,15.8476353 6.82494737,13.2562929 C6.82494737,10.8145428 8.7296817,8.79961531 11.1552882,8.57735438 L11.1552882,13.69639 L16.357208,13.69639 Z" id="Fill-6" fill="#F96D00"></path>
                    <path d="M13.1199148,7.19766883 L13.1199148,11.4952807 L17.4868596,11.4952807 C17.4868596,9.12177453 15.5316867,7.19766883 13.1199148,7.19766883 Z" id="Fill-7" fill="#F96D00"></path>
                    <path d="M5.78285714,5.54568811 C5.78285714,5.84396477 6.02853634,6.08574018 6.33162907,6.08574018 C6.6347218,6.08574018 6.88034336,5.84396477 6.88034336,5.54568811 C6.88034336,5.24741145 6.6347218,5.00569276 6.33162907,5.00569276 C6.02853634,5.00569276 5.78285714,5.24741145 5.78285714,5.54568811 Z" id="Fill-8" fill="#F96D00"></path>
                    <path d="M7.58135338,5.54568811 C7.58135338,5.84396477 7.82697494,6.08574018 8.13006767,6.08574018 C8.4331604,6.08574018 8.6788396,5.84396477 8.6788396,5.54568811 C8.6788396,5.24741145 8.4331604,5.00569276 8.13006767,5.00569276 C7.82697494,5.00569276 7.58135338,5.24741145 7.58135338,5.54568811 Z" id="Fill-9" fill="#F96D00"></path>
                    <path d="M9.65654135,6.08574018 L12.4833509,6.08574018 C12.557193,6.08574018 12.612589,6.02679962 12.612589,5.95872583 L12.612589,5.1645316 C12.612589,5.09186283 12.5526967,5.03734707 12.4833509,5.03734707 L9.65654135,5.03734707 C9.5826416,5.03734707 9.52747619,5.09651454 9.52747619,5.1645316 L9.52747619,5.95872583 C9.52747619,6.03145133 9.58736842,6.08574018 9.65654135,6.08574018 Z" id="Fill-10" fill="#F96D00"></path>
                    <path d="M36.5129825,27.6502044 C34.3455063,27.6502044 32.5332907,29.1705758 32.1183108,31.1808516 L28.782599,31.1808516 C28.2431078,31.1808516 27.8510702,31.0765285 27.7128396,30.8949984 C27.6204937,30.7724656 27.6204937,30.5774909 27.6204937,30.4866124 L27.6204937,26.167622 L35.6886792,26.167622 C37.4180025,26.167622 38.8199073,24.7833414 38.8199073,23.0861484 L38.8199073,3.0814736 C38.8199073,1.37962883 37.4132757,0 35.6886792,0 L3.13122807,0 C1.40190476,0 0,1.38405363 0,3.0814736 L0,23.0814966 C0,24.7833414 1.406401,26.1629703 3.13122807,26.1629703 L25.8265514,26.1629703 L25.8265514,30.4866124 C25.8265514,30.7044485 25.8265514,31.3626086 26.283208,31.9568928 C26.785807,32.6106281 27.6252206,32.9418638 28.782599,32.9418638 L40.9955038,32.9418638 L40.9955038,32.0614995 C40.9955038,29.6288259 38.9847043,27.6502044 36.5129825,27.6502044 Z M3.13122807,24.4066097 C2.38882957,24.4066097 1.78921554,23.8123255 1.78921554,23.0861484 L1.78921554,3.0814736 C1.78921554,2.35087164 2.39338346,1.76078533 3.13122807,1.76078533 L35.6839524,1.76078533 C36.4265815,1.76078533 37.0259649,2.35535317 37.0259649,3.0814736 L37.0259649,23.0814966 C37.0259649,23.8123255 36.4218546,24.4021849 35.6839524,24.4021849 L3.13122807,24.4021849 L3.13122807,24.4066097 Z M36.5129825,31.1808516 L33.9719148,31.1808516 C34.3409524,30.1506682 35.3416541,29.4109898 36.5129825,29.4109898 C37.6843108,29.4109898 38.6850125,30.1506682 39.0538195,31.1808516 L36.5129825,31.1808516 Z" id="Fill-11" fill="#212B34"></path>
                    <path d="M30.3484712,7.38827544 L20.6827644,7.38827544 C20.4336842,7.38827544 20.2353308,7.58347704 20.2353308,7.82854268 C20.2353308,8.07366506 20.4336842,8.26863974 20.6827644,8.26863974 L30.3530251,8.26863974 C30.6020476,8.26863974 30.800401,8.07366506 30.800401,7.82854268 C30.800401,7.58347704 30.5975514,7.38827544 30.3484712,7.38827544 Z" id="Fill-12" fill="#F96D00"></path>
                    <path d="M30.3484712,10.7148147 L20.6827644,10.7148147 C20.4336842,10.7148147 20.2353308,10.910073 20.2353308,11.1549118 C20.2353308,11.3999774 20.4336842,11.5952357 20.6827644,11.5952357 L30.3530251,11.5952357 C30.6020476,11.5952357 30.800401,11.3999774 30.800401,11.1549118 C30.800401,10.910073 30.5975514,10.7148147 30.3484712,10.7148147 Z M30.3484712,14.0458355 L23.6340852,14.0458355 C23.3850627,14.0458355 23.1866516,14.2410371 23.1866516,14.4861594 C23.1866516,14.7312251 23.3850627,14.9262565 23.6340852,14.9262565 L30.3484712,14.9262565 C30.5975514,14.9262565 30.7956742,14.7312251 30.7956742,14.4861594 C30.7956742,14.2410371 30.5975514,14.0458355 30.3484712,14.0458355 Z" id="Fill-13" fill="#F96D00" opacity="0.459988224"></path>
                    <path d="M30.3484712,17.3724314 L23.8601654,17.3724314 C23.6111429,17.3724314 23.4127318,17.567633 23.4127318,17.8126987 C23.4127318,18.0578211 23.6111429,18.2527957 23.8601654,18.2527957 L30.3484712,18.2527957 C30.5975514,18.2527957 30.7956742,18.0578211 30.7956742,17.8126987 C30.7956742,17.567633 30.5975514,17.3724314 30.3484712,17.3724314 Z" id="Fill-14" fill="#F96D00"></path>
                </g>
            </g>
        </g>
    </g>
</svg>