<?xml version="1.0" encoding="UTF-8"?>
<svg width="50px" height="50px" viewBox="0 0 50 50" version="1.1" xmlns="http://www.w3.org/2000/svg" xmlns:xlink="http://www.w3.org/1999/xlink">
    <!-- Generator: Sketch 52.4 (67378) - http://www.bohemiancoding.com/sketch -->
    <title>SQL编译与生成</title>
    <desc>Created with Sketch.</desc>
    <g id="密态数据库" stroke="none" stroke-width="1" fill="none" fill-rule="evenodd">
        <g id="Icon_Opened_File">
            <g id="Group-16">
                <polygon id="Path" points="0 0 50 0 50 50 0 50"></polygon>
                <g id="jihe" transform="translate(6.000000, 7.000000)">
                    <g id="Group-3">
                        <path d="M37.9964854,4.14361627 C37.3507113,3.41560612 36.4578243,3.00261728 35.5237657,3 L7,3 L7,30.4733242 C7.00995816,32.5231965 8.53878661,34.1876967 10.4392887,34.2180211 L35.5237657,34.2180211 C37.4284937,34.1986623 38.9630544,32.5277542 38.9630544,30.4733242 L38.9630544,6.7801204 C38.9825105,5.79688026 38.6340586,4.84658175 37.9964854,4.14361627 Z" id="Path" fill="#FFD3B2"></path>
                        <path d="M5,23 L26,23 C27.6568542,23 29,21.6568542 29,20 L29,10 C29,8.34314575 27.6568542,7 26,7 L5,7 L5,5.48962332 C5,4.44443073 5,5.76098586 5,3.4392887 C5.02786341,1.53878661 6.55728293,0.009958159 8.4408,-1.72404315e-13 L29.6845561,-5.84962869e-14 C31.8936951,-4.85504682e-14 33.6845561,1.790861 33.6845561,4 L33.6845561,26.3692469 L33.6845561,30.5237657 C33.6821512,31.4578243 33.302678,32.3507113 32.6337488,32.9964854 C31.9878317,33.6340586 31.1146537,33.9825105 30.2112073,33.9630544 L8.4408,33.9630544 C6.55309512,33.9630544 5.0177878,32.4284937 5,30.5237657 C5,25.2920221 5,26.586287 5,24.4065605 L5,23 Z" id="Combined-Shape" stroke="#F96D00" stroke-width="2" fill="#F96D00" stroke-linecap="round"></path>
                        <rect id="Rectangle" fill="#F96D00" fill-rule="nonzero" x="0" y="8" width="2" height="13" rx="1"></rect>
                        <path d="M5,16.337 L7.07,16.058 C7.20200066,16.3040012 7.37899889,16.5049992 7.601,16.661 C7.84700123,16.8110008 8.11699853,16.8800001 8.411,16.868 C8.63900114,16.8800001 8.85199901,16.8320005 9.05,16.724 C9.20000075,16.6339996 9.28099994,16.5050008 9.293,16.337 C9.28699997,16.2649996 9.26000024,16.1990003 9.212,16.139 C9.15799973,16.0789997 9.09200039,16.0250002 9.014,15.977 C8.8939994,15.9049996 8.77100063,15.8450002 8.645,15.797 C8.47099913,15.7309997 8.30000084,15.6710003 8.132,15.617 C7.6519976,15.4729993 7.18400228,15.299001 6.728,15.095 C6.39199832,14.9389992 6.08300141,14.7470011 5.801,14.519 C5.63899919,14.3749993 5.50400054,14.2100009 5.396,14.024 C5.26399934,13.7839988 5.20099997,13.5260014 5.207,13.25 C5.21300003,12.9799986 5.26699949,12.7160013 5.369,12.458 C5.52500078,12.1399984 5.74399859,11.8730011 6.026,11.657 C6.33200153,11.4409989 6.66199823,11.2790005 7.016,11.171 C7.38800186,11.0629995 7.76899805,11.006 8.159,11 C8.52500183,11.006 8.8879982,11.0509996 9.248,11.135 C9.57800165,11.2190004 9.88699856,11.3479991 10.175,11.522 C10.6910026,11.8640017 11.0599989,12.3259971 11.282,12.908 L9.257,13.16 C9.13099937,12.9859991 8.97200096,12.8510005 8.78,12.755 C8.55199886,12.6589995 8.31500123,12.614 8.069,12.62 C7.85299892,12.614 7.65200093,12.6649995 7.466,12.773 C7.3459994,12.8570004 7.28300003,12.9709993 7.277,13.115 C7.277,13.2770008 7.34599931,13.3999996 7.484,13.484 C7.6040006,13.5560004 7.72699937,13.6159998 7.853,13.664 C8.05100099,13.7360004 8.25199898,13.8019997 8.456,13.862 C8.88800216,13.9940007 9.3139979,14.1529991 9.734,14.339 C10.0700017,14.4890008 10.3819986,14.6749989 10.67,14.897 C10.9100012,15.089001 11.0959993,15.3199987 11.228,15.59 C11.3060004,15.788001 11.3509999,15.9919989 11.363,16.202 C11.357,16.5200016 11.2850007,16.8199986 11.147,17.102 C10.9909992,17.4020015 10.7810013,17.653999 10.517,17.858 C10.1869983,18.0920012 9.82700195,18.2569995 9.437,18.353 C9.07099817,18.4370004 8.70500183,18.482 8.339,18.488 C7.94299802,18.482 7.55600189,18.4280005 7.178,18.326 C6.82399823,18.2239995 6.49400153,18.071001 6.188,17.867 C5.64199727,17.4769981 5.24600123,16.9670032 5,16.337 Z M12.164,14.744 C12.164,14.2519975 12.2329993,13.7660024 12.371,13.286 C12.5210007,12.8239977 12.7519984,12.4100018 13.064,12.044 C13.2260008,11.8639991 13.405999,11.7020007 13.604,11.558 C13.814001,11.4199993 14.0389988,11.3060004 14.279,11.216 C14.6990021,11.0779993 15.1339977,11.006 15.584,11 C16.0280022,11.006 16.4599979,11.0779993 16.88,11.216 C17.1200012,11.3060004 17.3449989,11.4199993 17.555,11.558 C17.753001,11.7020007 17.9329992,11.8609991 18.095,12.035 C18.4070016,12.4070019 18.6379993,12.8239977 18.788,13.286 C18.9260007,13.7600024 18.998,14.2459975 19.004,14.744 C19.004,15.1880022 18.9470006,15.6259978 18.833,16.058 C18.7309995,16.4180018 18.584001,16.7569984 18.392,17.075 L19.166,17.795 L17.879,19.019 L17.114,18.191 C16.6219975,18.395001 16.1120026,18.494 15.584,18.488 C15.1339977,18.482 14.6960021,18.4100007 14.27,18.272 C14.0299988,18.1819996 13.8020011,18.0680007 13.586,17.93 C13.393999,17.7919993 13.2170008,17.6330009 13.055,17.453 C12.7429984,17.0869982 12.5150007,16.6730023 12.371,16.211 C12.2329993,15.7309976 12.164,15.2420025 12.164,14.744 Z M15.548,16.49 L16.664,15.455 L17.006,15.779 C17.1080005,15.4429983 17.159,15.0980018 17.159,14.744 C17.153,14.4499985 17.1140004,14.1590014 17.042,13.871 C16.9759997,13.6189987 16.8650008,13.3850011 16.709,13.169 C16.4209986,12.8089982 16.0460023,12.626 15.584,12.62 C15.1159977,12.626 14.7380014,12.8089982 14.45,13.169 C14.2939992,13.3850011 14.1830003,13.6189987 14.117,13.871 C14.0389996,14.1590014 14.003,14.4499985 14.009,14.744 C14.003,15.0440015 14.0359996,15.3379986 14.108,15.626 C14.1740003,15.8780013 14.2849992,16.1119989 14.441,16.328 C14.5850007,16.520001 14.7709989,16.6639995 14.999,16.76 C15.1850009,16.8320004 15.379999,16.868 15.584,16.868 C15.6800005,16.874 15.7759995,16.8680001 15.872,16.85 L15.548,16.49 Z M20.228,11.144 L22.073,11.144 L22.073,16.724 L25.763,16.724 L25.763,18.344 L20.228,18.344 L20.228,11.144 Z" id="SQL" fill="#F96D00"></path>
                        <rect id="Rectangle-Copy" fill="#FFD3B2" fill-rule="nonzero" x="11" y="27" width="16" height="2" rx="1"></rect>
                    </g>
                </g>
            </g>
        </g>
    </g>
</svg>