<?xml version="1.0" encoding="UTF-8"?>
<svg width="50px" height="50px" viewBox="0 0 50 50" version="1.1" xmlns="http://www.w3.org/2000/svg" xmlns:xlink="http://www.w3.org/1999/xlink">
    <!-- Generator: Sketch 52.4 (67378) - http://www.bohemiancoding.com/sketch -->
    <title>批量导入与导出</title>
    <desc>Created with Sketch.</desc>
    <g id="密态数据库" stroke="none" stroke-width="1" fill="none" fill-rule="evenodd">
        <g id="Group-19"></g>
        <g id="Group-6">
            <polygon id="path" points="0 0 50 0 50 50 0 50"></polygon>
            <g id="piliangdaoru" transform="translate(5.000000, 6.000000)">
                <path d="M37.9826325,28.9712878 L25.2994188,28.9712878 C24.2337094,28.9712878 23.2956581,28.0367707 23.2956581,26.9678537 C23.2956581,25.8946341 24.2337094,24.9598439 25.2994188,24.9598439 L37.9826325,24.9598439 C39.0528547,24.9598439 39.9863932,25.8946341 39.9863932,26.9678537 C39.9863932,28.0364976 39.0528547,28.9712878 37.9826325,28.9712878 Z" id="Fill-1" fill="#FFD3B2"></path>
                <path d="M32.7024274,22.4196976 L26.6955214,28.4390829 C26.158359,28.8392098 25.6255043,28.973678 25.2291966,28.973678 L25.2291966,28.9712878 C24.6917607,28.9712878 24.158906,28.8392098 23.8902564,28.4368976 C23.0886838,27.6363707 23.0886838,26.4289561 23.8902564,25.628361 L29.8971624,19.6135512 C30.698735,18.8084488 31.9009231,18.8084488 32.7024274,19.6135512 C33.504,20.4117561 33.504,21.6169854 32.7024274,22.4196976 Z" id="Fill-2" fill="#FFD3B2"></path>
                <path d="M32.7243761,34.4519805 C32.3236923,34.7224878 31.7908376,34.9863707 31.2534701,34.9863707 C30.7251282,34.9863707 30.1877607,34.8566829 29.9236239,34.4519805 L23.9121368,28.4390829 C23.1108376,27.6363707 23.1108376,26.4334634 23.9121368,25.628361 C24.7139145,24.8302244 25.9158974,24.8302244 26.7131624,25.628361 L32.7243761,31.6456293 C33.5258803,32.4504585 33.5258803,33.6535707 32.7243761,34.4519805 Z" id="Fill-3" fill="#FFD3B2"></path>
                <g id="Group-7">
                    <path d="M38.9163761,20.6846537 C38.8370598,20.7086244 38.7491966,20.6846537 38.6960684,20.616361 C37.991453,19.6882634 36.3926154,17.6232293 35.5782564,16.8028976 C34.485812,15.6920488 32.9976068,15.0643707 31.4428718,15.0643707 C29.8851282,15.0643707 28.3928889,15.6910244 27.3033846,16.8028976 L21.2951111,22.8265171 C20.4936068,23.6271122 19.9586325,24.6981463 19.6934017,25.7671317 C19.5576752,26.1672585 19.5576752,26.5673854 19.5576752,26.9678537 C19.5576752,27.3679805 19.5576752,27.7662634 19.6934017,28.1709659 C19.9586325,29.2396098 20.4936068,30.3085951 21.2951111,31.1113073 L27.1712137,37.1285073 C28.3734017,38.3313463 29.7078291,38.8659415 31.3106325,38.8659415 C32.8653675,38.8593171 34.3493333,38.2345073 35.4460171,37.1285073 C36.3576068,36.3191024 37.8814359,34.2802244 38.5683419,33.3390829 C38.6167521,33.2705171 38.705094,33.242722 38.7842051,33.2707902 C38.8635214,33.2950341 38.9163761,33.3697463 38.9163761,33.4556585 C38.9163761,36.5039707 36.4281709,38.9998634 33.3805812,38.9998634 L10.5440684,38.9998634 C7.50003419,38.9998634 5.00745299,36.5039707 5.00745299,33.4556585 L5.00745299,9.83803902 C5.00745299,6.78644878 7.50003419,4.29349268 10.5440684,4.29349268 L33.5128205,4.29349268 C36.5558291,4.29349268 39.0483419,6.78644878 39.0483419,9.83803902 L39.0483419,20.4997854 C39.0483419,20.581122 38.9954872,20.6579512 38.9163761,20.6846537 Z" id="Fill-4" fill="#F96D00"></path>
                    <path d="M8.27507692,1.90673171 C5.20540171,1.90673171 2.66878632,4.44797073 2.66878632,7.52353171 L2.66878632,32.8698439 C2.66878632,33.274478 2.66878632,33.6724878 2.8031453,34.2071512 C1.06680342,33.274478 0,31.5327415 0,29.5291024 L0,5.38276098 C0,2.44105366 2.40225641,0.035102439 5.33976068,0.035102439 L28.5715556,0.035102439 C30.1698462,0.035102439 31.6410256,0.837814634 32.5744957,1.90673171 L8.27507692,1.90673171 Z" id="Fill-6" fill="#FFD3B2"></path>
                </g>
            </g>
        </g>
    </g>
</svg>