<?xml version="1.0" encoding="UTF-8"?>
<svg width="50px" height="50px" viewBox="0 0 50 50" version="1.1" xmlns="http://www.w3.org/2000/svg" xmlns:xlink="http://www.w3.org/1999/xlink">
    <!-- Generator: Sketch 52.4 (67378) - http://www.bohemiancoding.com/sketch -->
    <title>密钥存储</title>
    <desc>Created with Sketch.</desc>
    <defs>
        <polygon id="path-1" points="0.00251046025 0.0331707317 39.9638275 0.0331707317 39.9638275 33.9999585 0.00251046025 33.9999585"></polygon>
    </defs>
    <g id="密态数据库" stroke="none" stroke-width="1" fill="none" fill-rule="evenodd">
        <g id="Icon_Opened_File" transform="translate(0.000000, -0.000000)">
            <g id="Group-16">
                <polygon id="Path" points="0 0 50 0 50 50 0 50"></polygon>
                <g id="jihe" transform="translate(5.000000, 8.000000)">
                    <g id="Group-3">
                        <mask id="mask-2" fill="white">
                            <use xlink:href="#path-1"></use>
                        </mask>
                        <g id="Clip-2"></g>
                        <path d="M38.9964854,6.36620976 C38.3507113,5.69728049 37.4578243,5.31780732 36.5237657,5.31540244 L27.3692469,5.31540244 C26.6871967,2.27331463 23.9914226,0.0900170732 20.8472803,0.0331707317 L3.4392887,0.0331707317 C1.53535565,0.0485536585 0,1.58236829 0,3.46945122 L0,30.5591585 C0.009958159,32.4426756 1.53878661,33.9720951 3.4392887,33.9999585 L36.5237657,33.9999585 C38.4284937,33.9821707 39.9630544,32.4468634 39.9630544,30.5591585 L39.9630544,8.78875122 C39.9825105,7.88530488 39.6340586,7.01212683 38.9964854,6.36620976 Z" id="Path" fill="#FFD3B2" mask="url(#mask-2)"></path>
                        <path d="M35.9964854,6.05080732 C35.3507113,5.38187805 34.4578243,5.00240488 33.5237657,5 L26.3692469,5 L0,5 L6.78725063e-14,30.2437561 C0.009958159,32.1272732 1.53878661,33.6566927 3.4392887,33.6845561 L33.5237657,33.6845561 C35.4284937,33.6667683 36.9630544,32.131461 36.9630544,30.2437561 L36.9630544,8.47334878 C36.9825105,7.56990244 36.6340586,6.69672439 35.9964854,6.05080732 Z" id="Path" fill="#F96D00" mask="url(#mask-2)"></path>
                        <path d="M29.6068194,12.682415 L26.6803208,14.0356135 L25.2596486,11 L22.4136542,12.3129714 L23.8343264,15.3487519 L18.0662032,18.0148662 C17.3672676,17.1692075 16.4483881,16.5193429 15.3861472,16.1366015 C13.8175197,15.5667459 12.1234581,15.642415 10.6130379,16.3413534 C9.10261776,17.0401248 7.95550292,18.2819895 7.38172141,19.8398842 C6.80810796,21.3977789 6.88429844,23.080194 7.58782785,24.5802797 C8.29163737,26.0803654 9.54183345,27.2199098 11.1104609,27.7895429 C11.8096766,28.0433684 12.5314133,28.1679444 13.2528699,28.1679444 C14.1492284,28.1679444 15.045587,27.9720947 15.8837382,27.584791 C18.5143825,26.3696331 19.8904609,23.5520692 19.3928138,20.841388 L30.9334301,15.5089368 L29.6068194,12.682415 Z M14.5571836,24.7582692 C13.8041304,25.1056241 12.9616094,25.1412331 12.1816654,24.8606451 C11.4019455,24.5802797 10.7789203,24.0106466 10.4292284,23.2628015 C10.0797606,22.5149008 10.0438503,21.6781444 10.3261472,20.9037594 C10.6086682,20.1291519 11.1822816,19.5103895 11.9352788,19.1633128 C12.3519175,18.971803 12.795727,18.8740451 13.2439063,18.8740451 C13.6023937,18.8740451 13.9610491,18.9364165 14.3105169,19.0609368 C15.0904609,19.3413023 15.713262,19.9111579 16.0630099,20.6588361 C16.7845225,22.2034331 16.1078278,24.0417489 14.5571836,24.7582692 Z" id="Fill-2" fill="#FFFFFF" mask="url(#mask-2)"></path>
                    </g>
                </g>
            </g>
        </g>
    </g>
</svg>