<?xml version="1.0" encoding="UTF-8"?>
<svg width="50px" height="50px" viewBox="0 0 50 50" version="1.1" xmlns="http://www.w3.org/2000/svg" xmlns:xlink="http://www.w3.org/1999/xlink">
    <!-- Generator: Sketch 52.4 (67378) - http://www.bohemiancoding.com/sketch -->
    <title>代理服务</title>
    <desc>Created with Sketch.</desc>
    <g id="密态数据库" stroke="none" stroke-width="1" fill="none" fill-rule="evenodd">
        <g id="Group-21">
            <g id="Group-10">
                <polygon id="Path" points="0 0 50 0 50 50 0 50"></polygon>
                <g id="luojifuwuqi" transform="translate(3.000000, 8.000000)">
                    <path d="M34.9968149,16.0255319 C29.9973369,16.0255319 25.997731,20.0198191 25.997731,25.012883 C25.997731,30.0057128 29.9973369,33.9999415 34.9968149,33.9999415 C39.9965273,33.9999415 43.9961332,30.0057128 43.9961332,25.012883 C43.9961332,20.0198191 39.9965273,16.0255319 34.9968149,16.0255319 Z" id="Fill-1" fill="#FFD3B2"></path>
                    <path d="M33.43,25.68 L33.28,23.96 L34.81,23.82 C34.7899999,23.553332 34.7766667,23.2800014 34.77,23 L34.67,20.94 L36.5,20.94 L36.54,22.15 L37.57,21.1 C38.1233361,21.5200021 38.6599974,21.963331 39.18,22.43 L38.14,23.5 L39.42,23.38 L39.58,25.1 L36.76,25.37 C36.8066669,25.7566686 36.8766662,26.1366648 36.97,26.51 C37.0566671,26.843335 37.1733326,27.1666651 37.32,27.48 C37.3733336,27.6066673 37.4399996,27.7266661 37.52,27.84 C37.5600002,27.906667 37.6199996,27.9466666 37.7,27.96 C37.7533336,27.9666667 37.7999998,27.9433336 37.84,27.89 C37.8866669,27.8099996 37.9233332,27.7200005 37.95,27.62 C38.0366671,27.2333314 38.1199996,26.8433353 38.2,26.45 L39.64,27.44 C39.5199994,27.9333358 39.3733342,28.413331 39.2,28.88 C39.133333,29.0400008 39.0566671,29.1966659 38.97,29.35 C38.8699995,29.5100008 38.7466674,29.6533327 38.6,29.78 C38.3199986,29.9933344 38.0033351,30.0966667 37.65,30.09 C37.2099978,30.0833333 36.823335,29.9400014 36.49,29.66 C36.289999,29.4799991 36.1200007,29.2766678 35.98,29.05 C35.8533327,28.8366656 35.7433338,28.6100012 35.65,28.37 C35.4699991,27.969998 35.3266672,27.5566688 35.22,27.13 C35.0999994,26.6099974 35.0133336,26.0800027 34.96,25.54 L33.43,25.68 Z M34.04,21.37 C33.7999988,22.0700035 33.5233349,22.7499967 33.21,23.41 L33.21,30.05 L31.45,30.05 L31.45,26.28 C31.2166655,26.5800015 30.9800012,26.8666653 30.74,27.14 L30.28,24.83 C31.1800045,23.6499941 31.829998,22.3433405 32.23,20.91 L34.04,21.37 Z M36.58,23.09 L36.6,23.65 L37.9,23.53 C37.4666645,23.0766644 37.0133357,22.6433354 36.54,22.23 C36.5466667,22.5233348 36.5599999,22.8099986 36.58,23.09 Z" id="代" fill="#FFFFFF"></path>
                    <path d="M22.9980559,25.012883 L0,25.012883 L0,30.0057128 C0,32.2025532 1.79978162,33.9999415 3.99960586,33.9999415 L27.0976724,33.9999415 C24.5978162,31.8030426 22.9980559,28.6076011 22.9980559,25.012883 Z M10.4990093,31.0042553 L5.49953129,31.0042553 C4.69968043,31.0042553 3.99960586,30.3053457 3.99960586,29.506266 C3.99960586,28.7074787 4.69968043,28.0085691 5.49953129,28.0085691 L10.4990093,28.0085691 C11.2989188,28.0085691 11.9989933,28.7074787 11.9989933,29.506266 C11.9989933,30.3053457 11.2989188,31.0042553 10.4990093,31.0042553 Z M30.9972091,0.0468085106 L3.99960586,0.0468085106 C1.79978162,0.0468085106 0,1.84419681 0,4.04109574 L0,9.03415957 L34.9968149,9.03415957 L34.9968149,4.04109574 C34.9968149,1.84419681 33.1970333,0.0468085106 30.9972091,0.0468085106 Z M10.4990093,6.03818085 L5.49953129,6.03818085 C4.69968043,6.03818085 3.99960586,5.33927128 3.99960586,4.54048404 C3.99960586,3.7416383 4.69968043,3.04249468 5.49953129,3.04249468 L10.4990093,3.04249468 C11.2989188,3.04249468 11.9989933,3.7416383 11.9989933,4.54048404 C11.9989933,5.33927128 11.2989188,6.03818085 10.4990093,6.03818085 Z M24.4978056,6.03818085 C23.6978961,6.03818085 22.9980559,5.33927128 22.9980559,4.54048404 C22.9980559,3.7416383 23.6978961,3.04249468 24.4978056,3.04249468 C25.2976565,3.04249468 25.997731,3.7416383 25.997731,4.54048404 C25.997731,5.33927128 25.2976565,6.03818085 24.4978056,6.03818085 Z M29.4972836,6.03818085 C28.6973742,6.03818085 27.997534,5.33927128 27.997534,4.54048404 C27.997534,3.7416383 28.6973742,3.04249468 29.4972836,3.04249468 C30.2973688,3.04249468 30.9972091,3.7416383 30.9972091,4.54048404 C30.9972091,5.33927128 30.2973688,6.03818085 29.4972836,6.03818085 Z M0,22.0169043 L23.3978642,22.0169043 C24.0979973,19.3208511 25.6976991,17.0240745 27.7975126,15.4265 L27.8975233,15.4265 L28.7974434,14.827234 L28.8974541,14.7272979 C29.197486,14.5275426 29.4972836,14.4276649 29.7973156,14.2281436 C29.8973262,14.2281436 29.8973262,14.128266 29.9973369,14.128266 C30.2973688,14.0283883 30.5971664,13.9285106 30.8971984,13.7287553 C30.9972091,13.7287553 31.0972197,13.6288777 31.1972304,13.6288777 C31.4973209,13.529 31.7971185,13.4291223 32.0971505,13.4291223 C32.1971611,13.4291223 32.2971718,13.3294787 32.3971824,13.3294787 C32.69698,13.2296011 32.997012,13.2296011 33.2970439,13.1297234 C33.3970546,13.1297234 33.4970652,13.1297234 33.5970759,13.0298457 C33.9969427,13.0298457 34.3969854,12.9299681 34.8968043,12.9299681 L0,12.9299681 L0,22.0169043 Z M5.49953129,16.0255319 L10.4990093,16.0255319 C11.2989188,16.0255319 11.9989933,16.7244415 11.9989933,17.5235213 C11.9989933,18.3223085 11.2989188,19.0212181 10.4990093,19.0212181 L5.49953129,19.0212181 C4.69968043,19.0212181 3.99960586,18.3223085 3.99960586,17.5235213 C3.99960586,16.7244415 4.69968043,16.0255319 5.49953129,16.0255319 Z" id="Fill-2" fill="#F96D00"></path>
                </g>
            </g>
        </g>
    </g>
</svg>