<?xml version="1.0" encoding="UTF-8"?>
<svg width="46px" height="47px" viewBox="0 0 46 47" version="1.1" xmlns="http://www.w3.org/2000/svg" xmlns:xlink="http://www.w3.org/1999/xlink">
    <!-- Generator: Sketch 52.4 (67378) - http://www.bohemiancoding.com/sketch -->
    <title>性能优异</title>
    <desc>Created with Sketch.</desc>
    <defs>
        <path d="M36.710517,6.06087215 C25.8157802,-4.47148445 16.5358141,0.318496873 14.9210434,8.34264932 C13.3062726,16.3668018 -1.69398829,17.9689504 0.158087172,27.4466616 C2.01016264,36.9243727 22.1842013,31.2969817 22.1842013,39.8861574 C22.1842013,48.4753331 45.5094882,48.1791546 45.5094882,36.9243727 C45.5094882,25.6695907 47.6052539,16.5932288 36.710517,6.06087215 Z" id="path-1"></path>
    </defs>
    <g id="密态数据库" stroke="none" stroke-width="1" fill="none" fill-rule="evenodd">
        <g id="Group-12-Copy">
            <g id="Group">
                <g id="Group-Copy">
                    <g id="Icon" transform="translate(0.000000, 0.894737)">
                        <g id="bgicon">
                            <mask id="mask-2" fill="white">
                                <use xlink:href="#path-1"></use>
                            </mask>
                            <use fill-opacity="0.2" fill="#FFFFFF" xlink:href="#path-1"></use>
                            <g id="Color/Blue" opacity="0.2" mask="url(#mask-2)" fill="#F96D00">
                                <rect id="Rectangle" x="0" y="0" width="46" height="46"></rect>
                            </g>
                        </g>
                    </g>
                </g>
            </g>
            <g id="keyongxingneng" transform="translate(4.000000, 8.000000)">
                <path d="M6.91818154,4.1850625 C6.04399697,4.1850625 5.3324115,4.885 5.3324115,5.745125 C5.3324115,6.605 6.04399697,7.3049375 6.91818154,7.3049375 C7.79262027,7.3049375 8.50420575,6.605 8.50420575,5.745125 C8.50420575,4.885 7.79262027,4.1850625 6.91818154,4.1850625 Z" id="Fill-4" fill="#FFFFFF"></path>
                <path d="M6.91818154,3.1850625 C5.48478064,3.1850625 4.31577005,4.3349375 4.31577005,5.745125 C4.31577005,7.155 5.48478064,8.3049375 6.91818154,8.3049375 C8.35177307,8.3049375 9.5208472,7.155 9.5208472,5.745125 C9.5208472,4.3349375 8.35679274,3.1850625 6.91818154,3.1850625 Z M6.91818154,7.3049375 C6.04399697,7.3049375 5.3324115,6.605 5.3324115,5.745125 C5.3324115,4.885 6.04399697,4.1850625 6.91818154,4.1850625 C7.79262027,4.1850625 8.50420575,4.885 8.50420575,5.745125 C8.50420575,6.605 7.79262027,7.3049375 6.91818154,7.3049375 Z" id="Fill-5" fill="#F96D00"></path>
                <path d="M21.2427231,3.600125 L13.9939425,3.600125 C12.7690802,3.600125 11.7727716,4.5800625 11.7727716,5.7849375 C11.7727716,6.99 12.7690802,7.97 13.9939425,7.97 L21.2427231,7.97 C22.4679032,7.97 23.4641483,6.99 23.4641483,5.7849375 C23.4641483,4.5800625 22.4679032,3.600125 21.2427231,3.600125 Z M21.2427231,6.9650625 L13.9939425,6.9650625 C13.3332526,6.9650625 12.789413,6.4350625 12.789413,5.78 C12.789413,5.125 13.3282965,4.595 13.9939425,4.595 L21.2427231,4.595 C21.9034766,4.595 22.4475068,5.125 22.4475068,5.78 C22.4475068,6.4350625 21.9034766,6.9650625 21.2427231,6.9650625 Z" id="Fill-7" fill="#F96D00"></path>
                <path d="M34.418944,0 L3.55824508,0 C1.59619062,0 0,1.5700625 0,3.5 L0,28.5 C0,30.4299375 1.59619062,32 3.55824508,32 L34.4137337,32 C36.3759788,32 37.9719788,30.4299375 37.9719788,28.5 L37.9719788,3.5 C37.9771891,1.5700625 36.3809985,0 34.418944,0 Z M34.3856611,30.495125 L3.52496218,30.495125 C2.68629652,30.495125 2,29.8200625 2,28.995125 L2,11 L35.9054425,11 L35.905413,28.995125 C35.9106233,29.8200625 35.2243268,30.495125 34.3856611,30.495125 Z M35.9056672,9.504875 L2,9.504875 L2,3.5 C2,2.6750625 2.68629652,2 3.52496218,2 L34.380705,2 C35.2193707,2 35.9056672,2.6750625 35.9056672,3.5 L35.9056672,9.504875 Z" id="Fill-8" fill="#212B34"></path>
                <path d="M16.32623,22.49 L10.5163147,20.225125 L16.32623,18.0400625 L16.32623,15.715125 L8,19.2600625 L8,21.235125 L16.32623,24.7949375 L16.32623,22.49 Z M21.8569501,14 L20.1083903,14 L17.098941,26.360125 L18.8172557,26.360125 L21.8569501,14 Z M30.9660575,19.2751875 L22.6296611,15.73 L22.6296611,18.0200625 L28.4447867,20.245125 L22.6296611,22.495125 L22.6296611,24.8049375 L30.9660575,21.235125 L30.9660575,19.2751875 Z" id="Fill-9" fill="#F96D00"></path>
            </g>
        </g>
    </g>
</svg>