<?xml version="1.0" encoding="UTF-8"?>
<svg width="46px" height="48px" viewBox="0 0 46 48" version="1.1" xmlns="http://www.w3.org/2000/svg" xmlns:xlink="http://www.w3.org/1999/xlink">
    <!-- Generator: Sketch 52.4 (67378) - http://www.bohemiancoding.com/sketch -->
    <title>无缝对接传统数据库</title>
    <desc>Created with Sketch.</desc>
    <defs>
        <path d="M36.710517,6.19292581 C25.8157802,-4.5689087 16.5358141,0.32543625 14.9210434,8.52441811 C13.3062726,16.7234 -1.69398829,18.3604561 0.158087172,28.0446666 C2.01016264,37.7288771 22.1842013,31.9788771 22.1842013,40.7551929 C22.1842013,49.5315087 45.5094882,49.2288771 45.5094882,37.7288771 C45.5094882,26.2288771 47.6052539,16.9547603 36.710517,6.19292581 Z" id="path-1"></path>
        <polygon id="path-3" points="0 0.0576507277 36.2649068 0.0576507277 36.2649068 35.551222 0 35.551222"></polygon>
    </defs>
    <g id="密态数据库" stroke="none" stroke-width="1" fill="none" fill-rule="evenodd">
        <g id="Group-8-Copy" transform="translate(0.000000, 1.000000)">
            <g id="Icon" transform="translate(0.000000, -0.105263)">
                <g id="bgicon">
                    <mask id="mask-2" fill="white">
                        <use xlink:href="#path-1"></use>
                    </mask>
                    <use fill-opacity="0.2" fill="#FFFFFF" xlink:href="#path-1"></use>
                    <g id="Color/Blue" opacity="0.2" mask="url(#mask-2)" fill="#F96D00">
                        <rect id="Rectangle" x="0" y="0" width="46" height="47.2105263"></rect>
                    </g>
                </g>
            </g>
            <g id="DDOSfanghu" transform="translate(4.842105, 4.820513)">
                <g id="Group-4">
                    <mask id="mask-4" fill="white">
                        <use xlink:href="#path-3"></use>
                    </mask>
                    <g id="Clip-2"></g>
                    <path d="M32.7340462,3.05068434 L26.777893,3.05068434 C26.5888569,1.36920478 25.1482901,0.0576507277 23.4021615,0.0576507277 L12.198407,0.0576507277 C10.3260522,0.0576507277 8.80327476,1.56623815 8.80327476,3.42060984 L8.80327476,3.5360314 C8.57519462,3.56461655 8.57519462,4.45345866 8.79357438,4.48726841 L8.79357438,31.9961538 L8.6529189,31.9961538 C8.38597663,31.9961538 8.16790001,32.2124041 8.16790001,32.4765766 C8.16790001,32.740689 8.38597663,32.9569993 8.6529189,32.9569993 L8.88566734,32.9569993 C9.23973113,34.4414455 10.5832335,35.551222 12.1887066,35.551222 L23.3924611,35.551222 C24.8185985,35.551222 26.0406643,34.6769127 26.5450839,33.437422 L32.7243458,33.437422 C34.6741218,33.437422 36.2648625,31.9288346 36.2648625,30.0744629 L36.2648625,6.41364345 C36.2745629,4.55927176 34.6885511,3.05068434 32.7340462,3.05068434 Z M24.8621896,32.1882629 C24.8621896,32.9809003 24.2073535,33.6295311 23.4071329,33.6295311 L12.2031359,33.6295311 C11.4029154,33.6295311 10.7480793,32.9809003 10.7480793,32.1882629 L10.7480793,3.42529396 C10.7480793,2.63265651 11.4029154,1.98402577 12.2031359,1.98402577 L23.4071329,1.98402577 C24.2073535,1.98402577 24.8621896,2.63265651 24.8621896,3.42529396 L24.8621896,32.1882629 Z M34.3344873,30.0744629 C34.3344873,30.8671004 33.6166593,31.5157311 32.7340462,31.5157311 L26.8022652,31.5157311 L26.8022652,4.97237526 L32.7387752,4.97237526 C33.6216308,4.97237526 34.3394587,5.621006 34.3394587,6.41364345 L34.3394587,30.0744629 L34.3344873,30.0744629 Z" id="Fill-3" fill="#212B34" mask="url(#mask-4)"></path>
                    <path d="M0.485018891,16.4593428 C0.751900536,16.4593428 0.970037782,16.2430925 0.970037782,15.9789201 L0.970037782,15.4984973 C0.970037782,15.2341447 0.751900536,15.0180746 0.485018891,15.0180746 C0.218379756,15.0180746 8.52651283e-14,15.2341447 8.52651283e-14,15.4984973 L8.52651283e-14,15.9789201 C8.52651283e-14,16.2430925 0.218379756,16.4593428 0.485018891,16.4593428 Z" id="Path" fill="#F96D00" mask="url(#mask-4)"></path>
                    <path d="M0.485018891,18.8614564 C0.751900536,18.8614564 0.970037782,18.6452062 0.970037782,18.3810337 L0.970037782,17.900611 C0.970037782,17.6362584 0.751900536,17.4201883 0.485018891,17.4201883 C0.218379756,17.4201883 8.52651283e-14,17.6362584 8.52651283e-14,17.900611 L8.52651283e-14,18.3810337 C8.52651283e-14,18.6452062 0.218379756,18.8614564 0.485018891,18.8614564 Z" id="Path" fill="#F96D00" mask="url(#mask-4)"></path>
                    <path d="M0.485018891,23.6656838 C0.751900536,23.6656838 0.970037782,23.4494335 0.970037782,23.185261 L0.970037782,22.7048383 C0.970037782,22.4404857 0.751900536,22.2244156 0.485018891,22.2244156 C0.218379756,22.2244156 8.52651283e-14,22.4404857 8.52651283e-14,22.7048383 L8.52651283e-14,23.185261 C8.52651283e-14,23.4494335 0.218379756,23.6656838 0.485018891,23.6656838 Z" id="Path" fill="#F96D00" mask="url(#mask-4)"></path>
                    <path d="M0.485018891,21.2635701 C0.751900536,21.2635701 0.970037782,21.0473198 0.970037782,20.7831474 L0.970037782,20.3027246 C0.970037782,20.038372 0.751900536,19.8223019 0.485018891,19.8223019 C0.218379756,19.8223019 8.52651283e-14,20.038372 8.52651283e-14,20.3027246 L8.52651283e-14,20.7831474 C8.52651283e-14,21.0473198 0.218379756,21.2635701 0.485018891,21.2635701 Z" id="Path" fill="#F96D00" mask="url(#mask-4)"></path>
                    <path d="M0.485018891,9.25300184 C0.751900536,9.25300184 0.970037782,9.03675156 0.970037782,8.77257911 L0.970037782,8.29215638 C0.970037782,8.02780377 0.751900536,7.81173365 0.485018891,7.81173365 C0.218379756,7.81173365 8.52651283e-14,8.02780377 8.52651283e-14,8.29215638 L8.52651283e-14,8.77257911 C8.52651283e-14,9.03675156 0.218379756,9.25300184 0.485018891,9.25300184 Z" id="Path" fill="#F96D00" mask="url(#mask-4)"></path>
                    <path d="M0.485018891,11.6551155 C0.751900536,11.6551155 0.970037782,11.4388652 0.970037782,11.1746928 L0.970037782,10.69427 C0.970037782,10.4299174 0.751900536,10.2138473 0.485018891,10.2138473 C0.218379756,10.2138473 8.52651283e-14,10.4299174 8.52651283e-14,10.69427 L8.52651283e-14,11.1746928 C8.52651283e-14,11.4388652 0.218379756,11.6551155 0.485018891,11.6551155 Z" id="Path" fill="#F96D00" mask="url(#mask-4)"></path>
                    <path d="M0.475318513,6.85088819 L0.485018891,6.85088819 C0.746929092,6.85088819 0.965308848,6.63956224 0.970037782,6.38007391 C0.970037782,6.2550439 0.989438538,6.12532976 1.0186003,6.00522408 C1.08159213,5.7457958 0.916746332,5.48630748 0.65483613,5.42883691 C0.392865302,5.36620179 0.130955101,5.52972568 0.0729347158,5.78915395 C0.0291011335,5.97639871 0.00497144363,6.16874796 5.53027269e-14,6.36554113 C-0.00472893419,6.62989373 0.208618751,6.84596386 0.475318513,6.85088819 Z" id="Path" fill="#F96D00" mask="url(#mask-4)"></path>
                    <path d="M0.485018891,26.0677974 C0.751900536,26.0677974 0.970037782,25.8515471 0.970037782,25.5873747 L0.970037782,25.1069519 C0.970037782,24.8425993 0.751900536,24.6265292 0.485018891,24.6265292 C0.218379756,24.6265292 8.52651283e-14,24.8425993 8.52651283e-14,25.1069519 L8.52651283e-14,25.5873747 C8.52651283e-14,25.8515471 0.218379756,26.0677974 0.485018891,26.0677974 Z" id="Path" fill="#F96D00" mask="url(#mask-4)"></path>
                    <path d="M0.485018891,14.0572291 C0.751900536,14.0572291 0.970037782,13.8409789 0.970037782,13.5768064 L0.970037782,13.0963837 C0.970037782,12.8320311 0.751900536,12.615961 0.485018891,12.615961 C0.218379756,12.615961 8.52651283e-14,12.8320311 8.52651283e-14,13.0963837 L8.52651283e-14,13.5768064 C8.52651283e-14,13.8409789 0.218379756,14.0572291 0.485018891,14.0572291 Z" id="Path" fill="#F96D00" mask="url(#mask-4)"></path>
                    <path d="M0.485018891,28.4699111 C0.751900536,28.4699111 0.970037782,28.2536608 0.970037782,27.9894883 L0.970037782,27.5090656 C0.970037782,27.244713 0.751900536,27.0286429 0.485018891,27.0286429 C0.218379756,27.0286429 8.52651283e-14,27.244713 8.52651283e-14,27.5090656 L8.52651283e-14,27.9894883 C8.52651283e-14,28.2536608 0.218379756,28.4699111 0.485018891,28.4699111 Z" id="Path" fill="#F96D00" mask="url(#mask-4)"></path>
                    <path d="M4.60161673,3.61538462 L4.11659784,3.61538462 C3.84971619,3.61538462 3.63157895,3.8316349 3.63157895,4.09580735 C3.63157895,4.35991974 3.84971619,4.57623008 4.11659784,4.57623008 L4.60161673,4.57623008 C4.86831649,4.57623008 5.08663562,4.35991974 5.08663562,4.09580735 C5.08663562,3.8316349 4.86831649,3.61538462 4.60161673,3.61538462 Z" id="Path" fill="#F96D00" mask="url(#mask-4)"></path>
                    <path d="M7.62793252,3.61538462 L7.14291363,3.61538462 C6.87603198,3.61538462 6.65789474,3.8316349 6.65789474,4.09580735 C6.65789474,4.35991974 6.87603198,4.57623008 7.14291363,4.57623008 L7.62793252,4.57623008 C7.89463228,4.57623008 8.11295141,4.35991974 8.11295141,4.09580735 C8.11295141,3.8316349 7.89463228,3.61538462 7.62793252,3.61538462 Z" id="Path-Copy" fill="#F96D00" mask="url(#mask-4)"></path>
                    <path d="M6.72727265,31.9961538 L6.24225376,31.9961538 C5.97555399,31.9961538 5.75723487,32.2124041 5.75723487,32.4765766 C5.75723487,32.740689 5.97555399,32.9569993 6.24225376,32.9569993 L6.72727265,32.9569993 C6.99415429,32.9569993 7.21229154,32.740689 7.21229154,32.4765766 C7.21229154,32.2124041 6.99415429,31.9961538 6.72727265,31.9961538 Z" id="Path" fill="#F96D00" mask="url(#mask-4)"></path>
                    <path d="M4.30217819,31.9961538 L3.8171593,31.9961538 C3.55045954,31.9961538 3.33214041,32.2124041 3.33214041,32.4765766 C3.33214041,32.740689 3.55045954,32.9569993 3.8171593,32.9569993 L4.30217819,32.9569993 C4.56905984,32.9569993 4.78719708,32.740689 4.78719708,32.4765766 C4.78719708,32.2124041 4.56905984,31.9961538 4.30217819,31.9961538 Z" id="Path" fill="#F96D00" mask="url(#mask-4)"></path>
                    <path d="M1.93534663,3.73282456 C1.75582901,3.8001438 1.58128284,3.88181566 1.42116598,3.98264438 C1.19314647,4.12202703 1.12039364,4.41502484 1.25638081,4.64088358 C1.34847377,4.78987468 1.50859063,4.87148649 1.67343643,4.87148649 C1.76080046,4.87148649 1.84792198,4.84758546 1.92564625,4.80416725 C2.0372006,4.73708823 2.15845532,4.67937745 2.27971004,4.63127512 C2.53191987,4.54005486 2.65790352,4.26134962 2.561021,4.0115298 C2.46395659,3.76663431 2.18258501,3.6416043 1.93534663,3.73282456 Z" id="Path" fill="#F96D00" mask="url(#mask-4)"></path>
                    <path d="M0.970037782,30.0744629 L0.970037782,29.9111792 C0.970037782,29.6468266 0.751900536,29.4307565 0.485018891,29.4307565 C0.218379756,29.4307565 8.52651283e-14,29.6468266 8.52651283e-14,29.9111792 L8.52651283e-14,30.0744629 C8.52651283e-14,30.2041771 0.00970037782,30.3338912 0.0291011335,30.458681 C0.0632343379,30.6988924 0.271610579,30.8720247 0.50939109,30.8720247 C0.533581408,30.8720247 0.552982163,30.8720247 0.57717248,30.8671004 C0.844054125,30.8286065 1.02830068,30.5883951 0.989438538,30.3242827 C0.975009226,30.2426709 0.970037782,30.1560747 0.970037782,30.0744629 Z" id="Path" fill="#F96D00" mask="url(#mask-4)"></path>
                    <path d="M2.11959318,31.7943763 C1.99833846,31.7367256 1.88678411,31.6742706 1.78020121,31.5973429 C1.56188208,31.4437278 1.26110974,31.49177 1.10099288,31.7078402 C0.945908092,31.9241505 0.994409982,32.2220726 1.21254723,32.3803719 C1.36787453,32.4908692 1.53272032,32.5870738 1.7072665,32.6686856 C1.77522977,32.697571 1.84319304,32.7121038 1.91097443,32.7121038 C2.09540286,32.7121038 2.26994904,32.6109748 2.35240225,32.4333986 C2.46395659,32.1931872 2.36210263,31.9048735 2.11959318,31.7943763 Z" id="Path" fill="#F96D00" mask="url(#mask-4)"></path>
                </g>
                <path d="M29.8480626,30.3146743 L28.7373693,30.3146743 C28.4707302,30.3146743 28.2523504,30.098364 28.2523504,29.8342516 C28.2523504,29.5700791 28.4707302,29.3538288 28.7373693,29.3538288 L29.8480626,29.3538288 C30.997618,29.3538288 31.9338257,28.4938721 31.9338257,27.4321379 L31.9338257,15.9885285 C31.9338257,15.7241759 32.1519023,15.5081058 32.4188446,15.5081058 C32.6854837,15.5081058 32.9038635,15.7241759 32.9038635,15.9885285 L32.9038635,27.4321379 C32.9038635,29.0223371 31.5311994,30.3146743 29.8480626,30.3146743 Z" id="Fill-5" fill="#F96D00"></path>
                <path d="M21.2778394,7.71084488 L14.327458,7.71084488 C14.0608189,7.71084488 13.8424392,7.49459459 13.8424392,7.23042215 C13.8424392,6.96606954 14.0608189,6.74999942 14.327458,6.74999942 L21.2731104,6.74999942 C21.5397496,6.74999942 21.7581293,6.96606954 21.7581293,7.23042215 C21.7581293,7.49459459 21.544721,7.71084488 21.2778394,7.71084488 Z" id="Fill-6" fill="#F96D00"></path>
                <path d="M21.2778394,10.8094514 L14.327458,10.8094514 C14.0608189,10.8094514 13.8424392,10.5933813 13.8424392,10.3290287 C13.8424392,10.0649163 14.0608189,9.84860592 14.327458,9.84860592 L21.2731104,9.84860592 C21.5397496,9.84860592 21.7581293,10.0649163 21.7581293,10.3290287 C21.7581293,10.5933813 21.544721,10.8094514 21.2778394,10.8094514 Z" id="Fill-7" fill="#F96D00"></path>
                <path d="M21.2778394,13.9082981 L14.327458,13.9082981 C14.0608189,13.9082981 13.8424392,13.6919878 13.8424392,13.4278754 C13.8424392,13.1634627 14.0608189,12.9474526 14.327458,12.9474526 L21.2731104,12.9474526 C21.5397496,12.9474526 21.7581293,13.1634627 21.7581293,13.4278754 C21.7581293,13.6919878 21.544721,13.9082981 21.2778394,13.9082981 Z" id="Fill-8" fill="#F96D00"></path>
                <path d="M17.8050435,21.1481485 C15.8990405,21.1481485 14.3469194,22.6856214 14.3469194,24.5735026 C14.3469194,26.461684 15.8990405,27.9990968 17.8050435,27.9990968 C19.7112284,27.9990968 21.2634101,26.461684 21.2634101,24.5735026 C21.2634101,22.6856214 19.7112284,21.1481485 17.8050435,21.1481485 Z" id="Fill-9" fill="#FFB276"></path>
                <path d="M17.8050435,20.1873031 C15.3607302,20.1873031 13.3768816,22.1570963 13.3768816,24.5735026 C13.3768816,26.990149 15.3654591,28.9599422 17.8050435,28.9599422 C20.2448098,28.9599422 22.2334479,26.990149 22.2334479,24.5735026 C22.2334479,22.1570963 20.2448098,20.1873031 17.8050435,20.1873031 Z M17.8050435,27.9990968 C15.8990405,27.9990968 14.3469194,26.461684 14.3469194,24.5735026 C14.3469194,22.6856214 15.8990405,21.1481485 17.8050435,21.1481485 C19.7112284,21.1481485 21.2634101,22.6856214 21.2634101,24.5735026 C21.2634101,26.461684 19.7112284,27.9990968 17.8050435,27.9990968 Z" id="Fill-10" fill="#F96D00"></path>
            </g>
        </g>
    </g>
</svg>