<?xml version="1.0" encoding="UTF-8"?>
<svg width="50px" height="50px" viewBox="0 0 50 50" version="1.1" xmlns="http://www.w3.org/2000/svg" xmlns:xlink="http://www.w3.org/1999/xlink">
    <!-- Generator: Sketch 52.4 (67378) - http://www.bohemiancoding.com/sketch -->
    <title>纵向联邦学习</title>
    <desc>Created with Sketch.</desc>
    <defs>
        <path d="M33.302973,25.7923893 L33.302973,14.876604 C34.7791351,14.596656 35.9784865,13.1972987 35.9784865,11.6110907 C35.9784865,9.745208 34.5023243,8.34585067 32.7495676,8.34585067 C31.8270811,8.34585067 30.9045405,8.812212 30.3509189,9.465424 L21.1258378,4.240712 C21.2181081,3.960764 21.3101622,3.680816 21.3101622,3.30777067 C21.3101622,1.44183333 19.8342703,0.0422573333 18.0815135,0.0422573333 C16.3285405,0.0422573333 14.8525946,1.53514933 14.8525946,3.30777067 C14.8525946,3.5875 14.9448649,3.867448 14.9448649,4.147396 L5.71956757,9.465424 C4.98162162,8.718896 4.15140541,8.25253467 3.22886486,8.25253467 C1.38389189,8.25253467 2.13162821e-14,9.745208 2.13162821e-14,11.5179933 C2.13162821e-14,13.1039827 1.10702703,14.410188 2.58297297,14.783288 L2.58297297,25.7923893 C1.10702703,26.165708 2.13162821e-14,27.4719133 2.13162821e-14,29.0579027 C2.13162821e-14,30.92384 1.47616216,32.3233613 3.22886486,32.3233613 C4.15140541,32.3233613 5.07389189,31.8567813 5.6272973,31.203788 L14.9448649,36.4285 C14.7603243,36.8015453 14.6680541,37.2681253 14.6680541,37.7345413 C14.6680541,39.600424 16.1442162,41 17.896973,41 C19.6497297,41 21.1258378,39.5073267 21.1258378,37.7345413 C21.1258378,37.2681253 21.0335676,36.8015453 20.849027,36.335184 L30.1663784,31.203788 C30.8122703,31.8567813 31.6425405,32.3233613 32.6572973,32.3233613 C34.5023243,32.3233613 35.8862162,30.830524 35.8862162,29.0579027 C35.9784865,27.3785973 34.8714054,26.0723373 33.302973,25.7923893 Z M19.9265405,35.12224 C19.5574054,34.842292 19.1885405,34.65566 18.8194595,34.562344 L18.8194595,26.259024 L17.2512432,26.259024 L17.2512432,34.562344 C16.7898919,34.65566 16.3285405,34.935608 15.9596757,35.215556 L6.45756757,29.897528 C6.54983784,29.61758 6.54983784,29.3378507 6.54983784,29.0579027 C6.54983784,27.5650107 5.53502703,26.259024 4.15140541,25.8857053 L4.15140541,14.783288 C4.70481081,14.596656 5.16616216,14.410188 5.53502703,13.943608 L14,19.5 L14.6680541,18.2353787 L6.36551351,12.6374027 C6.45756757,12.2643573 6.54983784,11.9843547 6.54983784,11.6110907 C6.54983784,11.3313613 6.45756757,11.0514133 6.45756757,10.7714653 L15.6828649,5.453656 C16.2364865,6.10664933 17.158973,6.47991333 18.0815135,6.47991333 C19.004,6.47991333 19.8342703,6.10664933 20.3876757,5.453656 L29.612973,10.7714653 C29.5207027,11.0514133 29.5207027,11.3313613 29.5207027,11.6110907 C29.5207027,11.9843547 29.612973,12.2643573 29.7052432,12.6374027 L20.8064952,17.5 L22,19 L30.4431892,14.036924 C30.8122703,14.410188 31.2734595,14.689972 31.8270811,14.876604 L31.8270811,25.9790213 C30.4431892,26.35234 29.5207027,27.6583267 29.5207027,29.1512187 C29.5207027,29.4311667 29.5207027,29.710896 29.612973,29.897528 L19.9265405,35.12224 Z" id="path-1"></path>
    </defs>
    <g id="联邦学习-" stroke="none" stroke-width="1" fill="none" fill-rule="evenodd">
        <g id="Group-21-Copy-4">
            <g id="Group-10">
                <polygon id="Path" points="0 0 50 0 50 50 0 50"></polygon>
                <polygon id="Path-3" fill="#F96D00" fill-rule="nonzero" opacity="0.130570715" points="11.3918532 15.822769 25 7 39 16.822769 40 32.835652 35.5 36.822769 24.500422 41.8227105 24 24.5 13.5 16.822769"></polygon>
                <polygon id="Path-4" fill="#F96D00" fill-rule="nonzero" points="11.5645659 17.3474169 12.5935048 15.3931201 24.6732476 8.26128591 40 16.3639348 27 23.5 23.5154136 24.5 19.0449518 21.5"></polygon>
                <g id="sae-copy" transform="translate(7.000000, 4.000000)">
                    <g id="Rectangle" transform="translate(0.000000, 1.000000)">
                        <mask id="mask-2" fill="white">
                            <use xlink:href="#path-1"></use>
                        </mask>
                        <use id="Mask" fill="#F96D00" xlink:href="#path-1"></use>
                        <rect fill="#FFD3B2" fill-rule="nonzero" mask="url(#mask-2)" x="17" y="25" width="2" height="10"></rect>
                    </g>
                    <path d="M15.243,24.3265087 C16.9000811,26.00237 19.5871622,26.00237 21.2442432,24.32629 C22.9015405,22.65021 22.9013784,19.932894 21.2442432,18.256978 C19.5869459,16.580898 16.9000811,16.5811167 15.2427838,18.256978 C13.5857027,19.9331127 13.5857027,22.6504287 15.243,24.3265087 Z" id="Fill-2" fill="#FFD3B2"></path>
                    <path d="M15.0965434,6.47293922 C16.5583787,7.95355557 18.9288542,7.95355557 20.3906895,6.47274603 C21.8527156,4.99193648 21.8525725,2.59119936 20.3906895,1.11053471 C18.9286634,-0.370274832 16.5583787,-0.370081641 15.0963527,1.11053471 C13.6345173,2.59139256 13.6345173,4.99212967 15.0965434,6.47293922 Z" id="Fill-2-Copy" fill="#FFD3B2"></path>
                    <path d="M15.0965434,41.4729392 C16.5583787,42.9535556 18.9288542,42.9535556 20.3906895,41.472746 C21.8527156,39.9919365 21.8525725,37.5911994 20.3906895,36.1105347 C18.9286634,34.6297252 16.5583787,34.6299184 15.0963527,36.1105347 C13.6345173,37.5913926 13.6345173,39.9921297 15.0965434,41.4729392 Z" id="Fill-2-Copy-2" fill="#FFD3B2"></path>
                </g>
            </g>
        </g>
    </g>
</svg>