<?xml version="1.0" encoding="UTF-8"?>
<svg width="50px" height="50px" viewBox="0 0 50 50" version="1.1" xmlns="http://www.w3.org/2000/svg" xmlns:xlink="http://www.w3.org/1999/xlink">
    <!-- Generator: Sketch 52.4 (67378) - http://www.bohemiancoding.com/sketch -->
    <title>联邦迁移学习</title>
    <desc>Created with Sketch.</desc>
    <defs>
        <path d="M33.302973,25.7923893 L33.302973,14.876604 C34.7791351,14.596656 35.9784865,13.1972987 35.9784865,11.6110907 C35.9784865,9.745208 34.5023243,8.34585067 32.7495676,8.34585067 C31.8270811,8.34585067 30.9045405,8.812212 30.3509189,9.465424 L21.1258378,4.240712 C21.2181081,3.960764 21.3101622,3.680816 21.3101622,3.30777067 C21.3101622,1.44183333 19.8342703,0.0422573333 18.0815135,0.0422573333 C16.3285405,0.0422573333 14.8525946,1.53514933 14.8525946,3.30777067 C14.8525946,3.5875 14.9448649,3.867448 14.9448649,4.147396 L5.71956757,9.465424 C4.98162162,8.718896 4.15140541,8.25253467 3.22886486,8.25253467 C1.38389189,8.25253467 2.13162821e-14,9.745208 2.13162821e-14,11.5179933 C2.13162821e-14,13.1039827 1.10702703,14.410188 2.58297297,14.783288 L2.58297297,25.7923893 C1.10702703,26.165708 2.13162821e-14,27.4719133 2.13162821e-14,29.0579027 C2.13162821e-14,30.92384 1.47616216,32.3233613 3.22886486,32.3233613 C4.15140541,32.3233613 5.07389189,31.8567813 5.6272973,31.203788 L14.9448649,36.4285 C14.7603243,36.8015453 14.6680541,37.2681253 14.6680541,37.7345413 C14.6680541,39.600424 16.1442162,41 17.896973,41 C19.6497297,41 21.1258378,39.5073267 21.1258378,37.7345413 C21.1258378,37.2681253 21.0335676,36.8015453 20.849027,36.335184 L30.1663784,31.203788 C30.8122703,31.8567813 31.6425405,32.3233613 32.6572973,32.3233613 C34.5023243,32.3233613 35.8862162,30.830524 35.8862162,29.0579027 C35.9784865,27.3785973 34.8714054,26.0723373 33.302973,25.7923893 Z M19.9265405,35.12224 C19.5574054,34.842292 19.1885405,34.65566 18.8194595,34.562344 C18.8194595,33.1180416 18.8194595,32.1311428 18.8194595,31.6016473 C18.8194595,31.1801816 17.2512432,31.2107399 17.2512432,31.6543759 C17.2512432,32.177746 17.2512432,33.1470687 17.2512432,34.562344 C16.7898919,34.65566 16.3285405,34.935608 15.9596757,35.215556 L6.45756757,29.897528 C6.54983784,29.61758 6.54983784,29.3378507 6.54983784,29.0579027 C6.54983784,27.5650107 5.53502703,26.259024 4.15140541,25.8857053 L4.15140541,14.783288 C4.70481081,14.596656 5.16616216,14.410188 5.53502703,13.943608 C6.93511343,14.862622 7.89541048,15.4929592 8.41591817,15.8346194 C8.87437868,16.135552 9.74707526,14.9174158 9.27808367,14.6011989 C8.7512837,14.2460048 7.78042698,13.591406 6.36551351,12.6374027 C6.45756757,12.2643573 6.54983784,11.9843547 6.54983784,11.6110907 C6.54983784,11.3313613 6.45756757,11.0514133 6.45756757,10.7714653 L15.6828649,5.453656 C16.2364865,6.10664933 17.158973,6.47991333 18.0815135,6.47991333 C19.004,6.47991333 19.8342703,6.10664933 20.3876757,5.453656 L29.612973,10.7714653 C29.5207027,11.0514133 29.5207027,11.3313613 29.5207027,11.6110907 C29.5207027,11.9843547 29.612973,12.2643573 29.7052432,12.6374027 C28.1191706,13.50409 27.0369389,14.0954606 26.4585479,14.4115142 C26.0156555,14.6535267 26.8625428,16.1416998 27.1974801,15.9448169 C27.761399,15.6133341 28.843302,14.9773698 30.4431892,14.036924 C30.8122703,14.410188 31.2734595,14.689972 31.8270811,14.876604 L31.8270811,25.9790213 C30.4431892,26.35234 29.5207027,27.6583267 29.5207027,29.1512187 C29.5207027,29.4311667 29.5207027,29.710896 29.612973,29.897528 L19.9265405,35.12224 Z" id="path-1"></path>
    </defs>
    <g id="联邦学习-" stroke="none" stroke-width="1" fill="none" fill-rule="evenodd">
        <g id="Group-21-Copy-5">
            <g id="Group-10">
                <polygon id="Path" points="0 0 50 0 50 50 0 50"></polygon>
                <polygon id="Path-3" fill="#F96D00" fill-rule="nonzero" opacity="0.130570715" points="11.3918532 15.822769 25 7 39 16.822769 40 32.835652 35.5 36.822769 24.500422 41.8227105 10 34.322769 10.5377125 18.8227304"></polygon>
                <g id="sae-copy" transform="translate(7.000000, 5.000000)">
                    <g id="Rectangle">
                        <mask id="mask-2" fill="white">
                            <use xlink:href="#path-1"></use>
                        </mask>
                        <use id="Mask" fill="#F96D00" xlink:href="#path-1"></use>
                    </g>
                    <path d="M21.0546364,25.4495069 L11.9718819,25.4495069 C11.7165811,25.4505642 11.4715614,25.3476539 11.2909933,25.1636842 C11.110598,24.9795822 11.0097304,24.7297076 11.0107239,24.4694803 C11.0107239,23.9248399 11.4379964,23.4892774 11.9718819,23.4892774 L21.0653643,23.4892774 L19.9596445,21.7031935 C19.5750949,21.3108481 19.5750949,20.7011398 19.9596445,20.3089706 C20.3440645,19.9168013 20.9422287,19.9168013 21.3264759,20.3089706 L24.7225817,23.7720163 C24.9149429,23.9681891 25,24.2075789 25,24.4691719 C25,24.7305446 24.8931711,24.9917852 24.7225817,25.1662834 L21.2414188,28.7169086 C21.0494032,28.8910984 20.8143191,29 20.5578519,29 C20.3015143,29 20.066819,28.9125967 19.874285,28.7169086 C19.4900378,28.3247393 19.4900378,27.7150311 19.874285,27.3226856 L21.0546364,25.4495069 Z M14.940301,17.3909176 L16.0085293,19.1329474 C16.3929493,19.5251166 16.3929493,20.1348249 16.0085293,20.5268179 C15.8165137,20.7229906 15.5814728,20.8319363 15.3249624,20.8319363 C15.0686248,20.8319363 14.8339295,20.7448855 14.6419139,20.5490212 L11.288315,17.1078262 C10.903895,16.7156569 10.903895,16.1059487 11.288315,15.7135592 L14.6419139,12.2938626 C15.0261179,11.9020458 15.6243253,11.9020458 16.0085293,12.2938626 C16.3929493,12.6858997 16.3929493,13.2956079 16.0085293,13.6877772 L14.9397607,15.4306881 L24.0182365,15.4306881 C24.5521652,15.4306881 24.9792217,15.8662065 24.9792217,16.4107147 C24.9789193,16.9551789 24.5732459,17.3909176 24.0393604,17.3909176 L14.940301,17.3909176 Z" id="Combined-Shape" fill="#F96D00"></path>
                </g>
            </g>
        </g>
    </g>
</svg>