<?xml version="1.0" encoding="UTF-8"?>
<svg width="46px" height="48px" viewBox="0 0 46 48" version="1.1" xmlns="http://www.w3.org/2000/svg" xmlns:xlink="http://www.w3.org/1999/xlink">
    <!-- Generator: Sketch 52.4 (67378) - http://www.bohemiancoding.com/sketch -->
    <title>一键式部署</title>
    <desc>Created with Sketch.</desc>
    <defs>
        <path d="M36.710517,6.19292581 C25.8157802,-4.5689087 16.5358141,0.32543625 14.9210434,8.52441811 C13.3062726,16.7234 -1.69398829,18.3604561 0.158087172,28.0446666 C2.01016264,37.7288771 22.1842013,31.9788771 22.1842013,40.7551929 C22.1842013,49.5315087 45.5094882,49.2288771 45.5094882,37.7288771 C45.5094882,26.2288771 47.6052539,16.9547603 36.710517,6.19292581 Z" id="path-1"></path>
    </defs>
    <g id="联邦学习-" stroke="none" stroke-width="1" fill="none" fill-rule="evenodd">
        <g id="Group-11-Copy-2">
            <g id="Group-2-Copy">
                <g id="Group-11-Copy">
                    <g id="Icon" transform="translate(0.000000, 0.894737)">
                        <g id="bgicon">
                            <mask id="mask-2" fill="white">
                                <use xlink:href="#path-1"></use>
                            </mask>
                            <use fill-opacity="0.2" fill="#FFFFFF" xlink:href="#path-1"></use>
                            <g id="Color/Blue" opacity="0.2" mask="url(#mask-2)" fill="#F96D00">
                                <rect id="Rectangle" x="0" y="0" width="46" height="47.2105263"></rect>
                            </g>
                        </g>
                    </g>
                </g>
            </g>
            <g id="diguifuwuqi" transform="translate(5.000000, 5.000000)">
                <polygon id="Fill-4" fill="#F96D00" points="26.042508 7.97297647 25.0082958 7.3753916 10.6187138 16.0116303 10.7626367 33.1112622 11.7968489 33.7039966 11.6526688 16.6094773"></polygon>
                <path d="M32.0513183,18.5758639 L31.6090032,18.8485361 C31.3673312,19.0006034 31.2899678,19.3204034 31.4341479,19.5669882 C31.5318328,19.7292807 31.701672,19.8186857 31.8765273,19.8186857 C31.9691961,19.8186857 32.0565916,19.7922706 32.1440514,19.7452084 L32.5864309,19.4724706 C32.8282958,19.3204034 32.9054662,19.0006034 32.7614791,18.754084 C32.612283,18.5077613 32.2982637,18.4289092 32.0513183,18.5758639 Z" id="Fill-5" fill="#F96D00"></path>
                <g id="Group-10" fill="#212B34">
                    <path d="M16.4733119,0.0393277311 L0,9.92376303 L0.164565916,29.4040336 L16.7973633,38.9998689 L33.2656592,29.1157613 L33.1009003,9.63516303 L16.4733119,0.0393277311 Z M2.21209003,28.1770739 L2.0681672,11.119195 L16.4886174,2.46198151 L20.1517042,4.5750605 L5.73125402,13.2325361 L5.87517685,30.2902185 L2.21209003,28.1770739 Z M15.7325402,35.9742555 L11.7968489,33.7039966 L10.7626367,33.1112622 L6.90938907,30.8880655 L6.765209,13.830121 L21.1909968,5.17290756 L25.0082958,7.3753916 L26.042508,7.97297647 L30.0449518,10.2801378 L15.5882958,18.9586538 L15.7325402,35.9742555 Z M17.790418,35.9742555 L17.6565273,20.1489731 L31.0688746,12.0998319 L31.202508,27.9200017 L17.790418,35.9742555 Z M32.5864309,19.4724706 L32.1440514,19.7452084 C32.061672,19.7976454 31.9691961,19.8186857 31.8765273,19.8186857 C31.701672,19.8186857 31.5318328,19.7292807 31.4341479,19.5669882 C31.2848875,19.3204034 31.3673312,18.9952286 31.6090032,18.8485361 L32.0513183,18.5758639 C32.2932476,18.4237311 32.612283,18.5077613 32.7562058,18.754084 C32.9054662,19.0006034 32.8282958,19.325516 32.5864309,19.4724706 Z" id="Fill-9"></path>
                </g>
                <path d="M29.8495177,19.9287378 L29.4071383,20.2014756 C29.1652733,20.3535429 29.0881029,20.6733429 29.23209,20.9196655 C29.3297749,21.0822202 29.4996141,21.1712975 29.6746624,21.1712975 C29.7671383,21.1712975 29.8545338,21.1452101 29.9422508,21.0980824 L30.3845659,20.8254101 C30.6262379,20.6733429 30.7036013,20.3535429 30.5594212,20.106958 C30.4102251,19.8603731 30.096463,19.7817832 29.8495177,19.9287378 Z M36.187717,15.4821479 C35.9048232,15.4821479 35.6732476,15.7179176 35.6732476,16.0065176 L35.6732476,16.5308874 C35.6732476,16.8191597 35.9048232,17.0552571 36.187717,17.0552571 C36.4708039,17.0552571 36.7021865,16.8191597 36.7021865,16.5308874 L36.7021865,16.0065176 C36.7021865,15.7179176 36.4708039,15.4821479 36.187717,15.4821479 Z M36.7021865,13.3846689 C36.7021865,13.0960689 36.4708039,12.8602992 36.187717,12.8602992 C35.9048232,12.8602992 35.6732476,13.0960689 35.6732476,13.3846689 L35.6732476,13.9090387 C35.6732476,14.1973109 35.9048232,14.4334084 36.187717,14.4334084 C36.4708039,14.4334084 36.7021865,14.1973109 36.7021865,13.9090387 L36.7021865,13.3846689 Z M36.7021865,10.7628202 C36.7021865,10.4742202 36.4708039,10.2384504 36.187717,10.2384504 C35.9048232,10.2384504 35.6732476,10.4742202 35.6732476,10.7628202 L35.6732476,11.2871899 C35.6732476,11.5754622 35.9048232,11.8115597 36.187717,11.8115597 C36.4708039,11.8115597 36.7021865,11.5754622 36.7021865,11.2871899 L36.7021865,10.7628202 Z M36.7021865,8.14097143 C36.7021865,7.85237143 36.4708039,7.61660168 36.187717,7.61660168 C35.9048232,7.61660168 35.6732476,7.85237143 35.6732476,8.14097143 L35.6732476,8.66534118 C35.6732476,8.95361345 35.9048232,9.18971092 36.187717,9.18971092 C36.4708039,9.18971092 36.7021865,8.95361345 36.7021865,8.66534118 L36.7021865,8.14097143 Z M34.9633441,17.4011445 C34.8140836,17.1548218 34.5003215,17.0708571 34.2584566,17.2229244 L33.8160772,17.4955966 C33.5741479,17.6477294 33.4970418,17.9675294 33.6412219,18.2140487 C33.7389711,18.3766689 33.908746,18.4657462 34.0836013,18.4657462 C34.1762701,18.4657462 34.2637299,18.4393966 34.3511254,18.3922689 L34.7935048,18.1195966 C35.0301608,17.9675294 35.1075241,17.6477294 34.9633441,17.4011445 Z M27.8584566,21.2133126 C27.7042444,20.6469277 27.4005145,20.211963 26.9787781,19.9758655 C26.402508,19.6560655 25.7028939,19.7241681 24.9980064,20.1804353 C23.6347267,21.0612454 22.5645659,23.1796992 22.5645659,25.0098807 C22.5645659,26.0532454 22.9298392,26.8556622 23.5678457,27.2121025 C23.8045016,27.343195 24.0617363,27.4115597 24.3342765,27.4115597 C24.7201286,27.4115597 25.1369132,27.2750924 25.5536334,27.0077294 C26.886045,26.1476975 27.940836,24.102721 27.987074,22.3040672 L28.1877814,22.1783496 C28.4294534,22.0262168 28.5068167,21.7062202 28.3626367,21.4598975 C28.249582,21.2814151 28.0488746,21.1923378 27.8584566,21.2133126 Z M24.9980064,26.1267227 C24.7819293,26.2683025 24.3704823,26.4728723 24.0617363,26.2998303 C23.7686174,26.1372101 23.5935048,25.6548555 23.5935048,25.0149933 C23.5935048,23.5624891 24.4888103,21.7535445 25.5486174,21.0717328 C25.7081672,20.9721025 25.9654019,20.8305227 26.2173633,20.8305227 C26.3100322,20.8305227 26.402508,20.851563 26.4848875,20.8986252 C26.7780064,21.0612454 26.953119,21.5436 26.953119,22.1834622 C26.953119,23.6359664 26.0578135,25.4397983 24.9980064,26.1267227 Z" id="Fill-11" fill="#F96D00"></path>
                <path d="M39.4805145,9.76114286 C39.1974277,9.76114286 38.966045,9.99724034 38.966045,10.2855126 L38.966045,18.486721 L34.7626367,21.0717328 C34.5209646,21.2238 34.4438585,21.5436 34.5877814,21.7901849 C34.6854662,21.9527395 34.8553055,22.0418824 35.0301608,22.0418824 C35.1228296,22.0418824 35.2102894,22.0157294 35.2976849,21.968405 L40,19.0791933 L40,10.2855126 C39.9949839,9.99724034 39.7633441,9.76114286 39.4805145,9.76114286 Z M35.6785209,5.45613277 C35.6732476,5.47710756 35.6732476,5.49808235 35.6732476,5.52423529 L35.6732476,6.04860504 C35.6732476,6.33687731 35.9048232,6.57297479 36.187717,6.57297479 C36.4708039,6.57297479 36.7021865,6.33687731 36.7021865,6.04860504 L36.7021865,5.52423529 C36.7021865,5.50319496 36.7021865,5.47710756 36.6971704,5.45613277 C37.9009003,5.21492269 38.8064952,4.12928067 38.8064952,2.83428403 C38.8064952,1.35536471 37.6333762,0.159932773 36.182701,0.159932773 C34.7317042,0.159932773 33.5588424,1.35536471 33.5588424,2.83428403 C33.5588424,4.12928067 34.4694534,5.21492269 35.6785209,5.45613277 Z" id="Fill-12" fill="#F96D00"></path>
            </g>
        </g>
    </g>
</svg>