<?xml version="1.0" encoding="UTF-8"?>
<svg width="46px" height="48px" viewBox="0 0 46 48" version="1.1" xmlns="http://www.w3.org/2000/svg" xmlns:xlink="http://www.w3.org/1999/xlink">
    <!-- Generator: Sketch 52.4 (67378) - http://www.bohemiancoding.com/sketch -->
    <title>快速灵活部署</title>
    <desc>Created with Sketch.</desc>
    <defs>
        <path d="M36.710517,6.19292581 C25.8157802,-4.5689087 16.5358141,0.32543625 14.9210434,8.52441811 C13.3062726,16.7234 -1.69398829,18.3604561 0.158087172,28.0446666 C2.01016264,37.7288771 22.1842013,31.9788771 22.1842013,40.7551929 C22.1842013,49.5315087 45.5094882,49.2288771 45.5094882,37.7288771 C45.5094882,26.2288771 47.6052539,16.9547603 36.710517,6.19292581 Z" id="path-1"></path>
    </defs>
    <g id="联邦学习-" stroke="none" stroke-width="1" fill="none" fill-rule="evenodd">
        <g id="Group-2-Copy-5">
            <g id="Group-11-Copy">
                <g id="Icon" transform="translate(0.000000, 0.894737)">
                    <g id="bgicon">
                        <mask id="mask-2" fill="white">
                            <use xlink:href="#path-1"></use>
                        </mask>
                        <use fill-opacity="0.2" fill="#FFFFFF" xlink:href="#path-1"></use>
                        <g id="Color/Blue" opacity="0.2" mask="url(#mask-2)" fill="#F96D00">
                            <rect id="Rectangle" x="0" y="0" width="46" height="47.2105263"></rect>
                        </g>
                    </g>
                </g>
                <g id="duankoutance-copy" transform="translate(6.000000, 6.000000)">
                    <path d="M17.9890725,9.9925801 C13.569511,9.9925801 9.97558179,13.5865093 9.97558179,18.0060708 C9.97558179,22.4256931 13.569511,26.0195616 17.9890725,26.0195616 C22.4086948,26.0195616 26.0025632,22.4256931 26.0025632,18.0060708 C26.0025632,13.5865093 22.4086948,9.9925801 17.9890725,9.9925801 Z M17.9890725,25.0529646 C14.1037437,25.0529646 10.946914,21.8913997 10.946914,18.0108061 C10.946914,14.1304553 14.1084789,10.9686476 17.9890725,10.9686476 C21.8694233,10.9686476 25.031231,14.1304553 25.031231,18.0108061 C25.031231,21.8913997 21.8744013,25.0529646 17.9890725,25.0529646 Z" id="Fill-3" fill="#212B34"></path>
                    <path d="M18,14 C15.7939394,14 14,15.7939394 14,18 C14,20.2060909 15.7939394,22 18,22 C20.2060909,22 22,20.2060909 22,18 C22,15.7939394 20.2060909,14 18,14 Z M18,21.5175152 C16.0606061,21.5175152 14.4848485,19.9393939 14.4848485,18.0023636 C14.4848485,16.0654545 16.0629697,14.4872121 18,14.4872121 C19.9369091,14.4872121 21.5151515,16.0654545 21.5151515,18.0023636 C21.5151515,19.9393939 19.9393939,21.5175152 18,21.5175152 Z" id="Fill-3" fill="#F96D00"></path>
                    <path d="M31.8500438,17.0347386 L30.1307251,17.0347386 C29.9024013,14.1449646 28.6737268,11.4640877 26.5999325,9.39023272 C24.5261383,7.31643845 21.8355481,6.08308938 18.9409781,5.85944013 L18.9409781,4.08208432 C18.9409781,3.54779089 18.5039393,3.11075211 17.9696459,3.11075211 C17.4353524,3.11075211 16.9983137,3.54779089 16.9983137,4.08208432 L16.9983137,5.86441821 C14.118253,6.09255987 11.4373153,7.32615177 9.3732344,9.39023272 C7.30441821,11.4592917 6.07082631,14.1449646 5.84244182,17.0347386 L4.19621585,17.0347386 C3.66192243,17.0347386 3.22488364,17.4718381 3.22488364,18.0060708 C3.22488364,18.5403642 3.66192243,18.977403 4.19621585,18.977403 L5.8474199,18.977403 C6.07556155,21.8672378 7.30441821,24.5478718 9.37821248,26.6216661 C11.4422934,28.685747 14.123231,29.9193997 17.0030489,30.1477234 L17.0030489,31.8717774 C17.0030489,32.4060708 17.4403305,32.8431096 17.9743811,32.8431096 C18.5086745,32.8431096 18.9457133,32.4060708 18.9457133,31.8717774 L18.9457133,30.1524587 C21.8405261,29.929113 24.5308735,28.6954604 26.6046678,26.6216661 C28.6737268,24.5528499 29.9073794,21.8672378 30.1354604,18.977403 L31.8547791,18.977403 C32.3890725,18.977403 32.8261113,18.5403642 32.8261113,18.0060708 C32.8261113,17.4718381 32.3890725,17.0347386 31.8500438,17.0347386 Z M18.9457133,28.2000809 L18.9457133,25.6795346 C18.9457133,25.145484 18.5086745,24.7082024 17.9743811,24.7082024 C17.4403305,24.7082024 17.0030489,25.145484 17.0030489,25.6795346 L17.0030489,28.1953457 C12.1416526,27.7291062 8.26105902,23.8437774 7.79979764,18.977403 L10.3543406,18.977403 C10.8885734,18.977403 11.3256728,18.5403642 11.3256728,18.0060708 C11.3256728,17.4718381 10.8885734,17.0347386 10.3543406,17.0347386 L7.79979764,17.0347386 C8.26105902,12.1683642 12.1416526,8.28303541 17.0030489,7.81679595 L17.0030489,10.2596358 C17.0030489,10.7939292 17.4403305,11.230968 17.9743811,11.230968 C18.5086745,11.230968 18.9457133,10.7939292 18.9457133,10.2596358 L18.9457133,7.81679595 C23.8267791,8.26858685 27.721882,12.1633862 28.1830826,17.0394739 L25.7792175,17.0394739 C25.2449241,17.0394739 24.8078853,17.4768162 24.8078853,18.0108061 C24.8078853,18.5450995 25.2449241,18.9821383 25.7792175,18.9821383 L28.1830826,18.9821383 C27.721882,23.8582867 23.821801,27.7485936 18.9457133,28.2000809 Z" id="Fill-4" fill="#F96D00"></path>
                    <path d="M35.9782057,0.988330523 C35.9782057,0.454037099 35.5411062,0.0169983137 35.0068735,0.0169983137 L17.9890725,0.0169983137 C15.560742,0.0169983137 13.2052614,0.492951096 10.985828,1.43034739 C8.84397976,2.33836088 6.92074199,3.63533221 5.26953794,5.28653626 C3.6183339,6.9377403 2.32136256,8.86097808 1.41334907,11.0028263 C0.475952782,13.2222597 0,15.5777403 0,18.0060708 C0,18.5403642 0.437038786,18.977403 0.971332209,18.977403 C1.50562563,18.977403 1.94266442,18.5403642 1.94266442,18.0060708 C1.94266442,9.15717369 9.14017538,1.95966273 17.9890725,1.95966273 L31.6507993,1.95966273 L31.6507993,4.60666442 C31.6507993,5.03872513 32.1706442,5.2523575 32.4765531,4.94644857 L35.7353727,1.68768971 C35.81314,1.60986172 35.8567892,1.52262395 35.8712378,1.43034739 C35.9392917,1.29921754 35.9782057,1.14866105 35.9782057,0.988330523 Z M35.0068735,17.0347386 C34.4725801,17.0347386 34.0355413,17.4718381 34.0355413,18.0060708 C34.0355413,26.8547858 26.8377875,34.0525396 17.9890725,34.0525396 L4.40493086,34.0525396 L4.40493086,31.3424621 C4.40493086,30.9101585 3.88532884,30.6964654 3.5794199,31.0023744 L0.320600337,34.2611939 C0.271973019,34.3098212 0.23311973,34.3681619 0.208897133,34.4265025 C0.077767285,34.5915683 0,34.8004654 0,35.0286071 C0,35.5629005 0.437038786,35.9999393 0.971332209,35.9999393 L17.9890725,35.9999393 C20.417403,35.9999393 22.7729444,35.5239865 24.9923777,34.5867723 C27.134226,33.678516 29.0574637,32.3818482 30.7086678,30.7306442 C32.3598718,29.0791973 33.6565396,27.1559595 34.564796,25.0143541 C35.502253,22.7946779 35.9782057,20.4391366 35.9782057,18.0108061 C35.9782057,17.4718381 35.5459022,17.0347386 35.0068735,17.0347386 Z" id="Fill-5" fill="#212B34"></path>
                </g>
            </g>
        </g>
    </g>
</svg>